<!--?xml version="1.0" standalone="no"?-->
              <svg id="sw-js-blob-svg" viewBox="0 0 100 100" xmlns="http://www.w3.org/2000/svg" version="1.1">
                    <defs> 
                        <linearGradient id="sw-gradient" x1="0" x2="1" y1="1" y2="0">
                            <stop id="stop1" stop-color="rgba(55, 93.8, 248, 0.32)" offset="0%"></stop>
                            <stop id="stop2" stop-color="rgba(255, 255, 255, 1)" offset="100%"></stop>
                        </linearGradient>
                    </defs>
                <path fill="url(#sw-gradient)" d="M19.8,-23.8C24.8,-19.3,27.5,-12.3,28.4,-5.3C29.4,1.8,28.6,9,26.1,16.8C23.6,24.6,19.4,33.1,12.4,36.9C5.4,40.6,-4.4,39.7,-13.6,36.6C-22.8,33.6,-31.5,28.4,-37,20.5C-42.5,12.7,-44.9,2.2,-41.8,-6C-38.7,-14.1,-30.1,-19.9,-22.3,-23.9C-14.4,-27.8,-7.2,-30,0.1,-30.1C7.4,-30.2,14.7,-28.2,19.8,-23.8Z" width="100%" height="100%" transform="translate(50 50)" stroke-width="0" style="transition: all 0.3s ease 0s;"></path>
              </svg>