<!--?xml version="1.0" standalone="no"?-->
              <svg id="sw-js-blob-svg" viewBox="0 0 100 100" xmlns="http://www.w3.org/2000/svg" version="1.1">
                    <defs> 
                        <linearGradient id="sw-gradient" x1="0" x2="1" y1="1" y2="0">
                            <stop id="stop1" stop-color="rgba(55, 93.8, 248, 0.11)" offset="0%"></stop>
                            <stop id="stop2" stop-color="rgba(255, 255, 255, 0.28)" offset="100%"></stop>
                        </linearGradient>
                    </defs>
                <path fill="url(#sw-gradient)" d="M24.1,-29.7C30.1,-23.7,33,-15,33.6,-6.7C34.1,1.7,32.3,9.6,28.3,16.1C24.3,22.5,18,27.4,11,29.7C4.1,31.9,-3.6,31.6,-10.6,29.1C-17.6,26.6,-23.8,22,-28.2,15.7C-32.5,9.4,-34.9,1.4,-33.6,-5.9C-32.3,-13.2,-27.2,-19.8,-21,-25.8C-14.7,-31.8,-7.4,-37.2,0.8,-38.2C9,-39.2,18.1,-35.8,24.1,-29.7Z" width="100%" height="100%" transform="translate(50 50)" stroke-width="0" style="transition: all 0.3s ease 0s;"></path>
              </svg>