<!--?xml version="1.0" standalone="no"?-->
              <svg id="sw-js-blob-svg" viewBox="0 0 100 100" xmlns="http://www.w3.org/2000/svg" version="1.1">
                    <defs> 
                        <linearGradient id="sw-gradient" x1="0" x2="1" y1="1" y2="0">
                            <stop id="stop1" stop-color="rgba(214.49, 219.889, 255, 0.22)" offset="0%"></stop>
                            <stop id="stop2" stop-color="rgba(82.244, 140.203, 223.623, 0.09)" offset="100%"></stop>
                        </linearGradient>
                    </defs>
                <path fill="url(#sw-gradient)" d="M26.5,-29.6C34,-25.3,39.4,-16.6,40.7,-7.5C41.9,1.6,38.9,11.2,34.3,20.3C29.6,29.5,23.4,38.2,14.7,42.1C6,46,-5,45,-13.7,40.6C-22.4,36.2,-28.9,28.3,-33.3,19.7C-37.7,11.1,-40.1,1.8,-37.7,-5.8C-35.4,-13.5,-28.4,-19.5,-21.4,-23.9C-14.3,-28.4,-7.1,-31.2,1.2,-32.6C9.5,-34,19,-34,26.5,-29.6Z" width="100%" height="100%" transform="translate(50 50)" stroke-width="0" style="transition: all 0.3s ease 0s;"></path>
              </svg>