<!--?xml version="1.0" standalone="no"?-->
              <svg id="sw-js-blob-svg" viewBox="0 0 100 100" xmlns="http://www.w3.org/2000/svg" version="1.1">
                    <defs> 
                        <linearGradient id="sw-gradient" x1="0" x2="1" y1="1" y2="0">
                            <stop id="stop1" stop-color="rgba(214.49, 219.889, 255, 0.1)" offset="0%"></stop>
                            <stop id="stop2" stop-color="rgba(82.244, 140.203, 223.623, 0.05)" offset="100%"></stop>
                        </linearGradient>
                    </defs>
                <path fill="url(#sw-gradient)" d="M26.7,-29.7C34,-25.7,38.8,-16.7,40.4,-7.2C42,2.3,40.3,12.3,35.1,19.2C29.8,26.1,21.1,30,12.8,31.4C4.5,32.8,-3.3,31.7,-12.2,30C-21.1,28.3,-31,26,-37,19.5C-43,13,-45.1,2.3,-43.4,-7.7C-41.7,-17.7,-36.1,-27,-28.2,-30.9C-20.3,-34.8,-10.2,-33.4,-0.2,-33.1C9.7,-32.8,19.4,-33.7,26.7,-29.7Z" width="100%" height="100%" transform="translate(50 50)" stroke-width="0" style="transition: all 0.3s ease 0s;"></path>
              </svg>