<svg xmlns="http://www.w3.org/2000/svg" viewBox="0 0 750 500"><g id="freepik--background-complete--inject-13"><polygon points="684.95 379.73 683.18 379.73 683.18 378.55 683.77 378.55 683.77 377.96 684.95 377.96 684.95 379.73" style="fill:#ebebeb"></polygon><path d="M680.79,379.73h-2.4v-1.18h2.4Zm-4.79,0h-2.4v-1.18H676Zm-4.79,0h-2.39v-1.18h2.39Zm-4.79,0H664v-1.18h2.39Zm-4.78,0h-2.4v-1.18h2.4Zm-4.79,0h-2.4v-1.18h2.4Zm-4.79,0h-2.39v-1.18h2.39Zm-4.79,0h-2.39v-1.18h2.39Zm-4.78,0h-2.4v-1.18h2.4Zm-4.79,0h-2.4v-1.18h2.4Zm-4.79,0h-2.39v-1.18h2.39Zm-4.79,0h-2.39v-1.18h2.39Zm-4.79,0h-2.39v-1.18h2.39Z" style="fill:#ebebeb"></path><polygon points="618.55 379.73 616.77 379.73 616.77 377.96 617.96 377.96 617.96 378.55 618.55 378.55 618.55 379.73" style="fill:#ebebeb"></polygon><path d="M618,375.56h-1.19v-2.39H618Zm0-4.78h-1.19v-2.4H618Zm0-4.79h-1.19v-2.4H618Zm0-4.79h-1.19v-2.39H618Zm0-4.79h-1.19V354H618Zm0-4.79h-1.19v-2.39H618Zm0-4.78h-1.19v-2.4H618Zm0-4.79h-1.19v-2.39H618Zm0-4.79h-1.19v-2.39H618Zm0-4.79h-1.19v-2.39H618Zm0-4.78h-1.19v-2.4H618Zm0-4.79h-1.19v-2.39H618Zm0-4.79h-1.19v-2.39H618Z" style="fill:#ebebeb"></path><polygon points="617.96 313.32 616.77 313.32 616.77 311.55 618.55 311.55 618.55 312.73 617.96 312.73 617.96 313.32" style="fill:#ebebeb"></polygon><path d="M680.79,312.73h-2.4v-1.18h2.4Zm-4.79,0h-2.4v-1.18H676Zm-4.79,0h-2.39v-1.18h2.39Zm-4.79,0H664v-1.18h2.39Zm-4.78,0h-2.4v-1.18h2.4Zm-4.79,0h-2.4v-1.18h2.4Zm-4.79,0h-2.39v-1.18h2.39Zm-4.79,0h-2.39v-1.18h2.39Zm-4.78,0h-2.4v-1.18h2.4Zm-4.79,0h-2.4v-1.18h2.4Zm-4.79,0h-2.39v-1.18h2.39Zm-4.79,0h-2.39v-1.18h2.39Zm-4.79,0h-2.39v-1.18h2.39Z" style="fill:#ebebeb"></path><polygon points="684.95 313.32 683.77 313.32 683.77 312.73 683.18 312.73 683.18 311.55 684.95 311.55 684.95 313.32" style="fill:#ebebeb"></polygon><path d="M685,375.56h-1.18v-2.39H685Zm0-4.78h-1.18v-2.4H685Zm0-4.79h-1.18v-2.4H685Zm0-4.79h-1.18v-2.39H685Zm0-4.79h-1.18V354H685Zm0-4.79h-1.18v-2.39H685Zm0-4.78h-1.18v-2.4H685Zm0-4.79h-1.18v-2.39H685Zm0-4.79h-1.18v-2.39H685Zm0-4.79h-1.18v-2.39H685Zm0-4.78h-1.18v-2.4H685Zm0-4.79h-1.18v-2.39H685Zm0-4.79h-1.18v-2.39H685Z" style="fill:#ebebeb"></path><rect x="613.19" y="374.97" width="8.35" height="8.35" style="fill:#fff"></rect><path d="M622.13,383.91H612.6v-9.54h9.53Zm-8.35-1.19H621v-7.16h-7.17Z" style="fill:#ebebeb"></path><rect x="613.19" y="341.47" width="8.35" height="8.35" style="fill:#fff"></rect><path d="M622.13,350.41H612.6v-9.54h9.53Zm-8.35-1.19H621v-7.16h-7.17Z" style="fill:#ebebeb"></path><rect x="613.19" y="307.97" width="8.35" height="8.35" style="fill:#fff"></rect><path d="M622.13,316.91H612.6v-9.54h9.53Zm-8.35-1.19H621v-7.16h-7.17Z" style="fill:#ebebeb"></path><rect x="680.19" y="374.97" width="8.35" height="8.35" style="fill:#fff"></rect><path d="M689.13,383.91H679.6v-9.54h9.53Zm-8.35-1.19H688v-7.16h-7.17Z" style="fill:#ebebeb"></path><rect x="680.19" y="341.47" width="8.35" height="8.35" style="fill:#fff"></rect><path d="M689.13,350.41H679.6v-9.54h9.53Zm-8.35-1.19H688v-7.16h-7.17Z" style="fill:#ebebeb"></path><rect x="680.19" y="307.97" width="8.35" height="8.35" style="fill:#fff"></rect><path d="M689.13,316.91H679.6v-9.54h9.53Zm-8.35-1.19H688v-7.16h-7.17Z" style="fill:#ebebeb"></path><rect x="646.69" y="307.97" width="8.35" height="8.35" style="fill:#fff"></rect><path d="M655.63,316.91H646.1v-9.54h9.53Zm-8.35-1.19h7.17v-7.16h-7.17Z" style="fill:#ebebeb"></path><rect x="646.69" y="374.97" width="8.35" height="8.35" style="fill:#fff"></rect><path d="M655.63,383.91H646.1v-9.54h9.53Zm-8.35-1.19h7.17v-7.16h-7.17Z" style="fill:#ebebeb"></path><path d="M651.67,353.61H638.3l-5.19,14.58h5.06v1.28H627.84v-1.28H631l17.22-46.38h5.54l17,46.38h3.11v1.28H651.81v-1.28h4.79Zm-12.76-1.49h12.22l-5.87-17.69Z" style="fill:#dbdbdb"></path><path d="M120.36,83s-.23,13.16-8.66,28.09H99.83C91.41,96.11,91.17,83,91.17,83c12.19-6.82,12.51-22.08,12.51-22.08h1.23V85a3.73,3.73,0,1,0,1.71,0V60.87h1.23S108.17,76.13,120.36,83Z" style="fill:#ebebeb"></path><rect x="97" y="109.59" width="17.54" height="7.38" style="fill:#c7c7c7"></rect><path d="M146.49,100.37h-1.18a39.54,39.54,0,0,0-79.08,0H65.05a40.72,40.72,0,0,1,81.44,0Z" style="fill:#ebebeb"></path><rect x="64.72" y="59.16" width="81.18" height="1.18" style="fill:#ebebeb"></rect><rect x="61.46" y="96.19" width="8.35" height="8.35" style="fill:#fff"></rect><path d="M70.4,105.13H60.87V95.6H70.4ZM62.05,104h7.17V96.78H62.05Z" style="fill:#ebebeb"></path><rect x="61.46" y="55.57" width="8.35" height="8.35" style="fill:#fff"></rect><path d="M70.4,64.51H60.87V55H70.4Zm-8.35-1.18h7.17V56.16H62.05Z" style="fill:#ebebeb"></path><rect x="141.72" y="96.19" width="8.35" height="8.35" style="fill:#fff"></rect><path d="M150.66,105.13h-9.53V95.6h9.53ZM142.31,104h7.17V96.78h-7.17Z" style="fill:#ebebeb"></path><rect x="141.72" y="55.57" width="8.35" height="8.35" style="fill:#fff"></rect><path d="M150.66,64.51h-9.53V55h9.53Zm-8.35-1.18h7.17V56.16h-7.17Z" style="fill:#ebebeb"></path><path d="M184.49,243.31H57.85V156.67H184.49Zm-125.64-1H183.49V157.67H58.85Z" style="fill:#ebebeb"></path><path d="M67.75,162.25a2.52,2.52,0,1,1-2.52-2.52A2.52,2.52,0,0,1,67.75,162.25Z" style="fill:#a6a6a6"></path><path d="M78,162.25a2.52,2.52,0,1,1-2.52-2.52A2.52,2.52,0,0,1,78,162.25Z" style="fill:#ebebeb"></path><path d="M88.33,162.25a2.52,2.52,0,1,1-2.52-2.52A2.52,2.52,0,0,1,88.33,162.25Z" style="fill:#BA68C8"></path><rect x="58.35" y="166.69" width="125.64" height="1" style="fill:#ebebeb"></rect><path d="M665.73,239.64l5.89-9.49-2.91-1.8a2.68,2.68,0,0,1-1.23-2.5,13.31,13.31,0,0,0,0-1.67,2.67,2.67,0,0,1,1.39-2.41l3-1.62-5.28-9.84-3,1.61a2.62,2.62,0,0,1-2.77-.18c-.46-.31-.94-.61-1.42-.87a2.66,2.66,0,0,1-1.4-2.41l.11-3.42L647,204.69l-.1,3.43a2.66,2.66,0,0,1-1.56,2.31l-.73.37-.72.41a2.63,2.63,0,0,1-2.77,0l-2.93-1.81-5.88,9.49,2.91,1.8a2.66,2.66,0,0,1,1.23,2.5,15.54,15.54,0,0,0-.06,1.67,2.64,2.64,0,0,1-1.38,2.4l-3,1.62,5.28,9.85,3-1.62a2.66,2.66,0,0,1,2.77.18c.46.31.93.61,1.41.87a2.65,2.65,0,0,1,1.41,2.41l-.11,3.43,11.16.34.11-3.43a2.66,2.66,0,0,1,1.55-2.3c.25-.11.5-.24.74-.37s.48-.27.72-.41a2.65,2.65,0,0,1,2.78,0Zm-9.45-7A9.15,9.15,0,1,1,660,220.21,9.14,9.14,0,0,1,656.28,232.59Z" style="fill:#ebebeb"></path><path d="M111.82,376.89l5.88-9.49-2.9-1.8a2.67,2.67,0,0,1-1.24-2.5,15.44,15.44,0,0,0,.06-1.67A2.67,2.67,0,0,1,115,359l3-1.61-5.28-9.85-3,1.62A2.66,2.66,0,0,1,107,349a13.94,13.94,0,0,0-1.42-.88,2.67,2.67,0,0,1-1.4-2.41l.11-3.42-11.16-.35L93,345.37a2.66,2.66,0,0,1-1.55,2.32c-.25.11-.5.24-.74.37s-.48.26-.71.4a2.65,2.65,0,0,1-2.78,0l-2.92-1.81-5.89,9.49L81.29,358a2.64,2.64,0,0,1,1.23,2.5,13.1,13.1,0,0,0,0,1.66,2.68,2.68,0,0,1-1.39,2.41l-3,1.61L83.35,376l3-1.62a2.66,2.66,0,0,1,2.77.18,13.84,13.84,0,0,0,1.42.87,2.68,2.68,0,0,1,1.4,2.41l-.11,3.43,11.17.34.1-3.42a2.64,2.64,0,0,1,1.56-2.3l.74-.38c.24-.13.48-.26.71-.41a2.65,2.65,0,0,1,2.79,0Zm-9.45-7.05a9.15,9.15,0,1,1,3.74-12.38A9.14,9.14,0,0,1,102.37,369.84Z" style="fill:#ebebeb"></path><path d="M625.72,167.58l-3.91-6.77L619.74,162a1.85,1.85,0,0,1-2-.06c-.33-.21-.66-.41-1-.59a1.85,1.85,0,0,1-1-1.65v-2.4h-7.83v2.4a1.85,1.85,0,0,1-1,1.65,11.12,11.12,0,0,0-1,.59,1.85,1.85,0,0,1-2,.06l-2.08-1.19-3.91,6.77,2.09,1.2a1.87,1.87,0,0,1,.91,1.73c0,.19,0,.38,0,.57s0,.39,0,.58a1.87,1.87,0,0,1-.91,1.72l-2.09,1.21,3.91,6.77,2.08-1.2a1.87,1.87,0,0,1,2,.07c.33.21.67.41,1,.59a1.85,1.85,0,0,1,1,1.65v2.39h7.83v-2.39a1.86,1.86,0,0,1,1-1.65,11.12,11.12,0,0,0,1-.59,1.87,1.87,0,0,1,2-.07l2.08,1.2,3.91-6.77-2.08-1.2a1.86,1.86,0,0,1-.9-1.73c0-.19,0-.38,0-.58s0-.38,0-.57a1.85,1.85,0,0,1,.91-1.73Zm-7.48,3.5a6.41,6.41,0,1,1-6.4-6.41A6.4,6.4,0,0,1,618.24,171.08Z" style="fill:#ebebeb"></path></g><g id="freepik--Floor--inject-13"><polygon points="46.15 419.11 128.36 418.87 210.57 418.78 375 418.61 539.42 418.78 621.64 418.86 703.85 419.11 621.64 419.35 539.42 419.44 375 419.61 210.57 419.44 128.36 419.35 46.15 419.11" style="fill:#263238"></polygon></g><g id="freepik--Shadow--inject-13"><ellipse cx="375" cy="456.75" rx="304.04" ry="15.44" style="fill:#ebebeb"></ellipse></g><g id="freepik--Screens--inject-13"><rect x="188.8" y="60.54" width="372.22" height="271.66" style="fill:#c7c7c7"></rect><rect x="188.8" y="60.54" width="372.4" height="10.17" style="fill:#263238"></rect><path d="M197.72,65.62a2.29,2.29,0,1,1-2.29-2.29A2.29,2.29,0,0,1,197.72,65.62Z" style="fill:#c7c7c7"></path><path d="M207.06,65.62a2.29,2.29,0,1,1-2.29-2.29A2.29,2.29,0,0,1,207.06,65.62Z" style="fill:#fff"></path><path d="M216.4,65.62a2.29,2.29,0,1,1-2.29-2.29A2.29,2.29,0,0,1,216.4,65.62Z" style="fill:#BA68C8"></path><rect x="225.48" y="104.75" width="299.05" height="199.05" style="fill:#fff"></rect><path d="M306.08,242.32V241a58.49,58.49,0,1,0-58.49-58.49h-1.32a59.81,59.81,0,1,1,59.81,59.8Z" style="fill:#BA68C8"></path><path d="M250.14,182.52a3.21,3.21,0,1,1-3.21-3.21A3.21,3.21,0,0,1,250.14,182.52Z" style="fill:#fff"></path><path d="M246.93,186.39a3.87,3.87,0,1,1,3.87-3.87A3.88,3.88,0,0,1,246.93,186.39Zm0-6.43a2.56,2.56,0,1,0,2.56,2.56A2.56,2.56,0,0,0,246.93,180Z" style="fill:#BA68C8"></path><path d="M288.11,170.18a7,7,0,1,1-7-7A7,7,0,0,1,288.11,170.18Z" style="fill:#BA68C8"></path><path d="M338,170.18a7,7,0,1,1-7-7A7,7,0,0,1,338,170.18Z" style="fill:#BA68C8"></path><circle cx="365.22" cy="182.52" r="3.21" style="fill:#fff"></circle><path d="M365.22,186.39a3.87,3.87,0,1,1,3.87-3.87A3.87,3.87,0,0,1,365.22,186.39Zm0-6.43a2.56,2.56,0,1,0,2.56,2.56A2.56,2.56,0,0,0,365.22,180Z" style="fill:#BA68C8"></path><path d="M309.29,123.37a3.21,3.21,0,1,1-3.21-3.21A3.21,3.21,0,0,1,309.29,123.37Z" style="fill:#fff"></path><path d="M306.08,127.24a3.87,3.87,0,1,1,3.86-3.87A3.88,3.88,0,0,1,306.08,127.24Zm0-6.42a2.56,2.56,0,1,0,2.55,2.55A2.56,2.56,0,0,0,306.08,120.82Z" style="fill:#BA68C8"></path><path d="M309.29,241.64a3.21,3.21,0,1,1-3.21-3.21A3.21,3.21,0,0,1,309.29,241.64Z" style="fill:#BA68C8"></path><path d="M319.17,168.6a13.1,13.1,0,0,1-26.19,0Z" style="fill:#BA68C8"></path><rect x="399.4" y="123.71" width="88.48" height="8.25" style="fill:#BA68C8"></rect><rect x="399.65" y="131.96" width="88" height="87.8" style="fill:#fff"></rect><path d="M487.89,219.9H399.4V131.81h88.49Zm-88-.29h87.52V132.1H399.89Z" style="fill:#dbdbdb"></path><polygon points="399.87 219.81 399.42 219.71 487.42 131.9 487.88 132.01 399.87 219.81" style="fill:#dbdbdb"></polygon><polygon points="487.42 219.81 399.42 132.01 399.87 131.9 487.88 219.71 487.42 219.81" style="fill:#dbdbdb"></polygon><rect x="399.4" y="230.83" width="56.08" height="4.23" style="fill:#dbdbdb"></rect><rect x="399.4" y="239.62" width="88.25" height="2.36" style="fill:#dbdbdb"></rect><rect x="399.4" y="245.53" width="88.25" height="2.36" style="fill:#dbdbdb"></rect><rect x="399.4" y="251.44" width="88.25" height="2.36" style="fill:#dbdbdb"></rect><rect x="399.4" y="257.35" width="88.25" height="2.36" style="fill:#dbdbdb"></rect><rect x="399.4" y="263.26" width="39.95" height="2.36" style="fill:#dbdbdb"></rect><rect x="399.4" y="275.08" width="88.25" height="2.36" style="fill:#dbdbdb"></rect><rect x="399.4" y="280.99" width="88.25" height="2.36" style="fill:#dbdbdb"></rect><rect x="399.4" y="286.89" width="88.25" height="2.36" style="fill:#dbdbdb"></rect><rect x="107.56" y="122.65" width="52.03" height="195.67" style="fill:#dbdbdb"></rect><rect x="111.57" y="124.32" width="0.43" height="4.55" transform="translate(-56.77 116.12) rotate(-45)" style="fill:#fff"></rect><rect x="109.51" y="126.38" width="4.55" height="0.43" transform="translate(-56.77 116.12) rotate(-45)" style="fill:#fff"></rect><rect x="153.98" y="126.05" width="0.43" height="2.7" transform="translate(-44.92 146.39) rotate(-45.01)" style="fill:#fff"></rect><rect x="152.85" y="125.58" width="2.7" height="0.43" transform="translate(-43.79 145.85) rotate(-44.99)" style="fill:#fff"></rect><rect x="156.09" y="126.05" width="0.43" height="2.7" transform="translate(-44.31 147.83) rotate(-45)" style="fill:#fff"></rect><rect x="154.95" y="125.58" width="2.7" height="0.43" transform="translate(-43.17 147.33) rotate(-44.99)" style="fill:#fff"></rect><path d="M121.94,155.22l-2.24-5.4-4,3.1V135.56l12.13,12.26-5.08.76L125,154Zm-1.88-6.76,2.34,5.65,1.48-.62-2.32-5.59,4.5-.67-9.5-9.6v13.55Z" style="fill:#fff"></path><polygon points="149.63 148.24 151.9 153.72 149.63 154.66 147.34 149.14 143.59 152.05 143.59 136.59 154.41 147.52 149.63 148.24" style="fill:#fff"></polygon><rect x="112.95" y="176" width="17.18" height="1.28" transform="translate(-92.49 163.98) rotate(-52.08)" style="fill:#fff"></rect><polygon points="120.53 171.17 117.95 171.65 117.37 174.37 116.79 171.65 114.21 171.17 116.78 170.54 117.37 167.97 117.96 170.54 120.53 171.17" style="fill:#fff"></polygon><polygon points="126.26 166.86 124.74 167.14 124.4 168.74 124.07 167.14 122.55 166.86 124.06 166.49 124.4 164.98 124.75 166.49 126.26 166.86" style="fill:#fff"></polygon><polygon points="128.05 175.44 127.18 175.6 126.99 176.51 126.8 175.6 125.93 175.44 126.79 175.23 126.99 174.37 127.19 175.23 128.05 175.44" style="fill:#fff"></polygon><rect x="138.04" y="224.51" width="17.18" height="1.28" transform="translate(-121.09 202.49) rotate(-52.09)" style="fill:#fff"></rect><polygon points="149.63 179.02 151.9 184.51 149.63 185.45 147.34 179.92 143.59 182.83 143.59 167.38 154.41 178.31 149.63 179.02" style="fill:#fff"></polygon><path d="M142.54,176.91c-2.23,0-4-.77-4.57-1.95-.89-1.76-.22-5.47,5.32-8.49,4.41-2.41,8.79-1.41,9.87.32a3.55,3.55,0,0,1,.17,3,10.64,10.64,0,0,1-6.08,6.12h0A11.6,11.6,0,0,1,142.54,176.91Zm6.16-11a10.59,10.59,0,0,0-5,1.33c-5,2.71-5.68,6-5,7.37s4.17,2.27,8.18.51h0a10,10,0,0,0,5.61-5.6,2.8,2.8,0,0,0-.08-2.25C152,166.46,150.53,165.88,148.7,165.88Z" style="fill:#fff"></path><path d="M140.13,178a2,2,0,0,1-1.62-.81h0a1.83,1.83,0,0,1-.25-2,2.53,2.53,0,0,1,2.2-1.31,1.91,1.91,0,0,1,1.77,1,2,2,0,0,1-.78,2.7A2.46,2.46,0,0,1,140.13,178Zm-.94-1.32a1.32,1.32,0,0,0,1.81.21,1.15,1.15,0,0,0,.48-1.58,1,1,0,0,0-1-.54,1.73,1.73,0,0,0-1.46.84,1,1,0,0,0,.17,1.07Z" style="fill:#fff"></path><path d="M142.53,180.29l-.51-.68c.26-.19.55-.48.51-.76-.06-.5-1-1-1.45-1.2l.31-.79c.19.07,1.83.75,2,1.87A1.7,1.7,0,0,1,142.53,180.29Z" style="fill:#fff"></path><path d="M116.1,199.12a21.08,21.08,0,0,1,8.36-4.42l2.71,2.7a21,21,0,0,1-4.43,8.37c-4.33-1.22-7.87,2.18-7.87,2.18l-.28-.28,5.5-5.5a1.2,1.2,0,0,0,1.48-.18,1.19,1.19,0,0,0,0-1.69,1.2,1.2,0,0,0-1.87,1.48l-5.5,5.5-.28-.28S117.32,203.45,116.1,199.12Z" style="fill:#fff"></path><rect x="123.5" y="194.35" width="5.65" height="2.38" transform="translate(77.39 423.13) rotate(-135)" style="fill:#fff"></rect><rect x="135.27" y="190.04" width="20.83" height="19.45" style="fill:#263238"></rect><path d="M142.82,199.12a21.08,21.08,0,0,1,8.37-4.42l2.7,2.7a21.08,21.08,0,0,1-4.42,8.37c-4.33-1.22-7.88,2.18-7.88,2.18l-.28-.28,5.5-5.5a1.2,1.2,0,1,0-.39-.39l-5.5,5.5-.28-.28S144,203.45,142.82,199.12Z" style="fill:#fff"></path><rect x="150.23" y="194.35" width="5.65" height="2.38" transform="translate(123.01 442.03) rotate(-135)" style="fill:#fff"></rect><path d="M140.92,207.71a3.34,3.34,0,0,1-2.91-1.44c-.59-1-1-2.78.64-6.13a3.17,3.17,0,0,0,.25-2.9,3.82,3.82,0,0,0-2.64-1.49l.1-.85a4.63,4.63,0,0,1,3.28,1.92,4,4,0,0,1-.22,3.69c-1.44,3-1.17,4.54-.69,5.31a2.53,2.53,0,0,0,2.19,1Z" style="fill:#fff"></path><path d="M126.63,217.25v3.47h-1.16a.48.48,0,0,1-.49-.39c0-.12-.06-.38-.1-.83h-3v10.42l.59.1c.14,0,.24.06.3.06l.12,0a.59.59,0,0,1,.53.63v1.2h-5.8v-1.2a.58.58,0,0,1,.5-.63.7.7,0,0,1,.13,0c.06,0,.16,0,.3-.06l.59-.1V219.48h-3c0,.45-.08.73-.1.85a.44.44,0,0,1-.46.39h-1.18v-3.47h12.2Z" style="fill:#fff"></path><path d="M128.69,260.2h-14.9V245.31h14.9Zm-13.62-1.27h12.34V246.58H115.07Z" style="fill:#fff"></path><path d="M152.17,304.61H139.31V293.1h12.86Zm-11.59-1.28h10.31v-9H140.58Z" style="fill:#fff"></path><path d="M145.1,308h-9v-8.06h9Zm-7.68-1.27h6.41v-5.52h-6.41Z" style="fill:#fff"></path><rect x="145.72" y="296.96" width="4.58" height="0.85" transform="translate(-166.93 191.76) rotate(-45)" style="fill:#fff"></rect><polygon points="150.25 297.69 149.4 297.69 149.4 295.99 147.77 295.99 147.77 295.14 150.25 295.14 150.25 297.69" style="fill:#fff"></polygon><path d="M152.87,260.21H138V245.3h7a5.65,5.65,0,0,1,11.24.76,5.7,5.7,0,0,1-3.3,5.15Zm-13.62-1.28H151.6v-8.59l.41-.16a4.37,4.37,0,0,0-1.49-8.49,4.35,4.35,0,0,0-4.37,4.27v.62h-6.89Z" style="fill:#fff"></path><path d="M147.39,249.48c-2.22-.37-2.53,2-2.57,2.89a2.56,2.56,0,0,1-1.79,2s3.44.95,5.17-.81S148.87,249.73,147.39,249.48Z" style="fill:#fff"></path><path d="M155,242.34l-5.57,7.87a2.38,2.38,0,0,0-1.72-1.32,2.87,2.87,0,0,0-.39,0l4.62-6.51Z" style="fill:#fff"></path><rect x="117.57" y="272.76" width="5.54" height="11.28" transform="translate(232.11 -3.55) rotate(45)" style="fill:#fff"></rect><rect x="123.06" y="271.72" width="5.54" height="2.39" transform="translate(229.83 -9.04) rotate(45)" style="fill:#fff"></rect><polygon points="114.05 284.69 114.36 280.53 115.21 280.59 114.97 283.77 118.15 283.53 118.21 284.38 114.05 284.69" style="fill:#fff"></polygon><path d="M150.07,278.06a3,3,0,1,1,3-3A3,3,0,0,1,150.07,278.06Zm0-4.73a1.73,1.73,0,1,0,1.73,1.73A1.73,1.73,0,0,0,150.07,273.33Z" style="fill:#fff"></path><path d="M136.27,282.77l11.78-6.49,2,1.14s-8.57,5.25-10.09,5.8S136.27,282.77,136.27,282.77Z" style="fill:#fff"></path><path d="M150,284.74a3,3,0,1,1,3-3A3,3,0,0,1,150,284.74Zm0-4.72a1.73,1.73,0,1,0,1.73,1.72A1.73,1.73,0,0,0,150,280Z" style="fill:#fff"></path><path d="M136.23,274,148,280.52l2-1.14s-8.58-5.24-10.1-5.8S136.23,274,136.23,274Z" style="fill:#fff"></path><path d="M113.87,306.07V295l7,5.52Zm1.28-8.42v5.8l3.7-2.9Z" style="fill:#fff"></path><polygon points="128.58 295.19 128.58 305.91 121.76 300.55 128.58 295.19" style="fill:#fff"></polygon><path d="M121.6,306.43h-.43v-1.7h.43Zm0-3.4h-.43v-1.7h.43Zm0-3.4h-.43v-1.71h.43Zm0-3.41h-.43v-1.7h.43Z" style="fill:#fff"></path><rect x="535.27" y="75.85" width="107.16" height="63.58" style="fill:#dbdbdb"></rect><polygon points="540.96 81.55 537.74 78.33 538.04 78.03 541.26 81.25 540.96 81.55" style="fill:#fff"></polygon><polygon points="538.04 81.55 537.74 81.25 540.96 78.03 541.26 78.33 538.04 81.55" style="fill:#fff"></polygon><rect x="636.58" y="79.25" width="0.43" height="2.7" transform="translate(129.45 473.8) rotate(-44.99)" style="fill:#fff"></rect><rect x="635.45" y="78.78" width="2.7" height="0.43" transform="translate(130.66 473.42) rotate(-45)" style="fill:#fff"></rect><rect x="638.69" y="79.25" width="0.43" height="2.7" transform="translate(130.07 475.29) rotate(-44.99)" style="fill:#fff"></rect><rect x="637.55" y="78.78" width="2.7" height="0.43" transform="translate(131.41 475.08) rotate(-45.02)" style="fill:#fff"></rect><rect x="554.21" y="85.97" width="0.43" height="41.78" style="fill:#fff"></rect><rect x="569.62" y="85.97" width="0.43" height="41.78" style="fill:#fff"></rect><path d="M546.59,89.82a5.25,5.25,0,0,0-4.47,2.53,5.51,5.51,0,0,0,4.47,2.54,5.7,5.7,0,0,0,4.53-2.54A5.47,5.47,0,0,0,546.59,89.82Zm0,4.61a2.08,2.08,0,1,1,2.06-2.07A2.08,2.08,0,0,1,546.59,94.43Z" style="fill:#fff"></path><path d="M548.18,92.35a1.6,1.6,0,1,1-1.6-1.6A1.6,1.6,0,0,1,548.18,92.35Z" style="fill:#fff"></path><path d="M546.59,104.35a5.25,5.25,0,0,0-4.47,2.53,5.51,5.51,0,0,0,4.47,2.54,5.7,5.7,0,0,0,4.53-2.54A5.47,5.47,0,0,0,546.59,104.35Zm0,4.61a2.08,2.08,0,1,1,2.06-2.07A2.07,2.07,0,0,1,546.59,109Z" style="fill:#fff"></path><path d="M548.18,106.89a1.6,1.6,0,1,1-1.6-1.6A1.6,1.6,0,0,1,548.18,106.89Z" style="fill:#fff"></path><path d="M546.59,118.24a5.25,5.25,0,0,0-4.47,2.52,5.51,5.51,0,0,0,4.47,2.55,5.7,5.7,0,0,0,4.53-2.55A5.47,5.47,0,0,0,546.59,118.24Zm0,4.6a2.07,2.07,0,1,1,2.06-2.06A2.07,2.07,0,0,1,546.59,122.84Z" style="fill:#fff"></path><path d="M548.18,120.77a1.6,1.6,0,1,1-1.6-1.6A1.6,1.6,0,0,1,548.18,120.77Z" style="fill:#fff"></path><rect x="539.7" y="99.7" width="98.31" height="0.43" style="fill:#fff"></rect><rect x="539.7" y="113.65" width="98.31" height="0.43" style="fill:#fff"></rect><path d="M581.46,95.38h0a.25.25,0,0,1-.25-.25V88.52a.25.25,0,0,1,.25-.25.25.25,0,0,1,.25.25v6.36h3.4a.25.25,0,0,1,0,.5Z" style="fill:#fff"></path><path d="M591,90.65v4.48a.24.24,0,1,1-.48,0v-.74a2.33,2.33,0,0,1-1.87,1,2.49,2.49,0,0,1,0-5,2.33,2.33,0,0,1,1.87,1v-.73a.24.24,0,1,1,.48,0Zm-.48,2.24a1.87,1.87,0,1,0-1.87,2A1.94,1.94,0,0,0,590.48,92.89Z" style="fill:#fff"></path><path d="M593,90.64a.25.25,0,0,1,.24-.24.25.25,0,0,1,.25.24v2.7A1.52,1.52,0,0,0,595,94.87a1.54,1.54,0,0,0,1.55-1.53v-2.7a.17.17,0,0,1,0-.12s0,0,0,0,0,0,0,0a.18.18,0,0,1,.09-.06h.11a.34.34,0,0,1,.12.06.17.17,0,0,1,.06.08.19.19,0,0,1,0,.1V95a2.33,2.33,0,0,1-2.36,2.33,2.54,2.54,0,0,1-1-.23.25.25,0,0,1-.1-.32.26.26,0,0,1,.32-.13,1.7,1.7,0,0,0,.81.2A1.87,1.87,0,0,0,596.53,95v-.32a2.1,2.1,0,0,1-1.55.71,2,2,0,0,1-2-2Z" style="fill:#fff"></path><path d="M598.7,92.9a2.41,2.41,0,1,1,4.81-.18h0v0a.24.24,0,0,1-.25.22h-4.08a2,2,0,0,0,1.93,1.91,1.9,1.9,0,0,0,1.61-.9.23.23,0,0,1,.32-.09.27.27,0,0,1,.08.35,2.38,2.38,0,0,1-2,1.13A2.45,2.45,0,0,1,598.7,92.9Zm.51-.4H603a1.92,1.92,0,0,0-1.87-1.61A2,2,0,0,0,599.21,92.5Z" style="fill:#fff"></path><path d="M605,90.66a.25.25,0,0,1,.25-.25.24.24,0,0,1,.23.25v1.09l.08-.12a2.38,2.38,0,0,1,2-1.22.25.25,0,0,1,0,.49,1.83,1.83,0,0,0-1.45.81,4.61,4.61,0,0,0-.59,1.16.11.11,0,0,0,0,.08v2.18a.24.24,0,0,1-.23.25.25.25,0,0,1-.25-.25Z" style="fill:#fff"></path><path d="M613.29,89l-1,.59a.23.23,0,0,1-.33-.08.23.23,0,0,1,.09-.33l1.37-.84a.25.25,0,0,1,.33.1.24.24,0,0,1,0,.18v6.52a.25.25,0,1,1-.49,0Z" style="fill:#fff"></path><path d="M581.46,110h0a.25.25,0,0,1-.25-.24v-6.62a.25.25,0,0,1,.25-.24.25.25,0,0,1,.25.24v6.36h3.4a.26.26,0,0,1,.25.26.25.25,0,0,1-.25.24Z" style="fill:#fff"></path><path d="M591,105.28v4.49a.24.24,0,0,1-.48,0V109a2.35,2.35,0,0,1-1.87,1,2.49,2.49,0,0,1,0-5,2.32,2.32,0,0,1,1.87,1v-.73a.24.24,0,1,1,.48,0Zm-.48,2.24a1.87,1.87,0,1,0-1.87,2A1.94,1.94,0,0,0,590.48,107.52Z" style="fill:#fff"></path><path d="M593,105.27a.24.24,0,0,1,.24-.23.24.24,0,0,1,.25.23V108A1.52,1.52,0,0,0,595,109.5a1.54,1.54,0,0,0,1.55-1.53v-2.7a.17.17,0,0,1,0-.12s0,0,0,0h0a.18.18,0,0,1,.09-.06h.11l.12,0a.24.24,0,0,1,.06.08.19.19,0,0,1,0,.1v4.34a2.34,2.34,0,0,1-2.36,2.34,2.54,2.54,0,0,1-1-.23.26.26,0,0,1-.1-.33.27.27,0,0,1,.32-.12,1.82,1.82,0,0,0,.81.19,1.87,1.87,0,0,0,1.88-1.85v-.32A2.07,2.07,0,0,1,595,110a2,2,0,0,1-2-2Z" style="fill:#fff"></path><path d="M598.7,107.53a2.41,2.41,0,0,1,4.81-.18h0v0a.24.24,0,0,1-.25.23h-4.08a2,2,0,0,0,1.93,1.9,1.88,1.88,0,0,0,1.61-.9.23.23,0,0,1,.32-.08.26.26,0,0,1,.08.34,2.38,2.38,0,0,1-2,1.13A2.45,2.45,0,0,1,598.7,107.53Zm.51-.39H603a1.92,1.92,0,0,0-1.87-1.61A2,2,0,0,0,599.21,107.14Z" style="fill:#fff"></path><path d="M605,105.29a.24.24,0,0,1,.25-.24.23.23,0,0,1,.23.24v1.1l.08-.12a2.38,2.38,0,0,1,2-1.22.24.24,0,0,1,.24.24.25.25,0,0,1-.24.25,1.81,1.81,0,0,0-1.45.81,4.43,4.43,0,0,0-.59,1.15.12.12,0,0,0,0,.09v2.18a.23.23,0,0,1-.23.24.24.24,0,0,1-.25-.24Z" style="fill:#fff"></path><path d="M612.12,109.57l3.32-3a1.82,1.82,0,0,0,.61-1.36,1.84,1.84,0,0,0-.48-1.22,1.81,1.81,0,0,0-1.35-.59,1.89,1.89,0,0,0-1.24.46l-.34.32a.25.25,0,0,1-.34-.36l.35-.32a2.34,2.34,0,0,1,1.57-.6,2.32,2.32,0,0,1,2.31,2.31,2.34,2.34,0,0,1-.76,1.73l-2.84,2.56h3.36a.25.25,0,0,1,.24.26.24.24,0,0,1-.24.24h-4a.23.23,0,0,1-.18-.07A.28.28,0,0,1,612.12,109.57Z" style="fill:#fff"></path><path d="M581.46,124.64h0a.25.25,0,0,1-.25-.24v-6.61a.25.25,0,0,1,.25-.25.25.25,0,0,1,.25.25v6.36h3.4a.25.25,0,1,1,0,.49Z" style="fill:#fff"></path><path d="M591,119.92v4.48a.24.24,0,0,1-.48,0v-.74a2.33,2.33,0,0,1-1.87,1,2.49,2.49,0,0,1,0-5,2.33,2.33,0,0,1,1.87,1v-.73a.24.24,0,1,1,.48,0Zm-.48,2.24a1.87,1.87,0,1,0-1.87,2A1.94,1.94,0,0,0,590.48,122.16Z" style="fill:#fff"></path><path d="M593,119.91a.24.24,0,0,1,.24-.24.24.24,0,0,1,.25.24v2.69a1.52,1.52,0,0,0,1.52,1.54,1.54,1.54,0,0,0,1.55-1.54v-2.69a.2.2,0,0,1,0-.13s0,0,0,0h0a.18.18,0,0,1,.09-.06h.11l.12,0a.24.24,0,0,1,.06.08.23.23,0,0,1,0,.11v4.34a2.33,2.33,0,0,1-2.36,2.33,2.54,2.54,0,0,1-1-.23.26.26,0,0,1-.1-.33.27.27,0,0,1,.32-.12,1.83,1.83,0,0,0,.81.2,1.88,1.88,0,0,0,1.88-1.85v-.33a2.07,2.07,0,0,1-1.55.71,2,2,0,0,1-2-2Z" style="fill:#fff"></path><path d="M598.7,122.17a2.41,2.41,0,1,1,4.81-.18h0v0a.24.24,0,0,1-.25.22h-4.08a2,2,0,0,0,1.93,1.91,1.89,1.89,0,0,0,1.61-.91.23.23,0,0,1,.32-.08.27.27,0,0,1,.08.35,2.37,2.37,0,0,1-2,1.12A2.44,2.44,0,0,1,598.7,122.17Zm.51-.4H603a1.92,1.92,0,0,0-1.87-1.61A2,2,0,0,0,599.21,121.77Z" style="fill:#fff"></path><path d="M605,119.93a.24.24,0,0,1,.25-.25.24.24,0,0,1,.23.25V121l.08-.12a2.38,2.38,0,0,1,2-1.22.24.24,0,0,1,.24.25.24.24,0,0,1-.24.24,1.81,1.81,0,0,0-1.45.81,4.61,4.61,0,0,0-.59,1.16.11.11,0,0,0,0,.08v2.18a.23.23,0,0,1-.23.24.24.24,0,0,1-.25-.24Z" style="fill:#fff"></path><path d="M616.42,118l-1.83,1.89a2.34,2.34,0,0,1,1.91,2.35,2.34,2.34,0,0,1-.71,1.7,2.38,2.38,0,0,1-1.7.71,2.33,2.33,0,0,1-1.69-.71.23.23,0,0,1,0-.35.24.24,0,0,1,.35,0,1.94,1.94,0,0,0,1.34.55,2,2,0,0,0,1.35-.55,1.88,1.88,0,0,0,.56-1.35,1.91,1.91,0,0,0-1.9-1.9.26.26,0,0,1-.2-.1h0a.25.25,0,0,1,0-.36l1.76-1.82h-2.72a.26.26,0,0,1,0-.51h3.32a.25.25,0,0,1,.25.26.2.2,0,0,1,0,.11A.22.22,0,0,1,616.42,118Z" style="fill:#fff"></path><rect x="571.11" y="100.86" width="3.18" height="12.06" style="fill:#455a64"></rect><rect x="571.11" y="114.74" width="3.18" height="12.06" style="fill:#263238"></rect><rect x="571.11" y="86.32" width="3.18" height="12.06" style="fill:#BA68C8"></rect><rect x="539.7" y="134.3" width="18.68" height="0.43" style="fill:#fff"></rect><rect x="558.93" y="91.61" width="6.47" height="5.43" style="fill:#fff"></rect><path d="M564.62,92.21h-.75V90.78c0-1.57-.56-2.37-1.66-2.37-1.78,0-1.8,2.11-1.8,2.19v1.61h-.75V90.6a2.67,2.67,0,0,1,2.55-2.94c1.55,0,2.41,1.11,2.41,3.12Z" style="fill:#fff"></path><path d="M629.4,95.66a3.31,3.31,0,1,1,3.3-3.31A3.31,3.31,0,0,1,629.4,95.66Zm0-6.19a2.89,2.89,0,1,0,2.88,2.88A2.88,2.88,0,0,0,629.4,89.47Z" style="fill:#fff"></path><path d="M629.4,110.19a3.31,3.31,0,1,1,3.3-3.3A3.31,3.31,0,0,1,629.4,110.19Zm0-6.18a2.88,2.88,0,1,0,2.88,2.88A2.88,2.88,0,0,0,629.4,104Z" style="fill:#fff"></path><path d="M629.4,124.73a3.31,3.31,0,1,1,3.3-3.31A3.31,3.31,0,0,1,629.4,124.73Zm0-6.19a2.88,2.88,0,1,0,2.88,2.88A2.88,2.88,0,0,0,629.4,118.54Z" style="fill:#fff"></path></g><g id="freepik--character-3--inject-13"><rect x="564.33" y="398.96" width="46.92" height="3.45" style="fill:#c7c7c7"></rect><polygon points="607.34 285.18 607.59 303.89 609.17 391.85 609.23 395.8 609.92 447.85 612.58 447.85 613.28 395.8 613.33 391.85 614.91 303.89 615.16 285.18 607.34 285.18" style="fill:#c7c7c7"></polygon><polygon points="615.16 285.18 607.34 285.18 607.59 303.89 614.91 303.89 615.16 285.18" style="fill:#a6a6a6"></polygon><polygon points="560.42 285.18 560.67 303.89 563.01 447.85 565.66 447.85 566.36 395.8 566.41 391.85 568 303.89 568.25 285.18 560.42 285.18" style="fill:#c7c7c7"></polygon><polygon points="560.42 285.18 560.67 303.89 568 303.89 568.25 285.18 560.42 285.18" style="fill:#a6a6a6"></polygon><rect x="588.62" y="398.96" width="46.06" height="3.45" style="fill:#c7c7c7"></rect><polygon points="630.78 285.18 631.03 303.89 632.61 391.85 632.66 395.8 633.36 447.85 636.02 447.85 638.35 303.89 638.6 285.18 630.78 285.18" style="fill:#c7c7c7"></polygon><polygon points="638.6 285.18 630.78 285.18 631.03 303.89 638.35 303.89 638.6 285.18" style="fill:#a6a6a6"></polygon><polygon points="584.71 285.18 584.96 303.89 586.55 391.85 586.6 395.8 587.3 447.85 589.95 447.85 590.65 395.8 590.7 391.85 592.29 303.89 592.54 285.18 584.71 285.18" style="fill:#c7c7c7"></polygon><polygon points="592.54 285.18 584.71 285.18 584.96 303.89 592.29 303.89 592.54 285.18" style="fill:#a6a6a6"></polygon><rect x="556.35" y="266.46" width="85.36" height="20.26" style="fill:#BA68C8"></rect><rect x="574.18" y="266.46" width="67.53" height="20.26" style="fill:#263238;opacity:0.1"></rect><path d="M527,457.92c2.26-.3,57.93-27.49,59.39-29.87.56-.9-2.92-9.24-7.42-19.19-1-2.15-4.86-36.69-4.86-36.69L536.38,386.4,543,426.28s-16.66,20-18,22.73S524.75,458.22,527,457.92Z" style="fill:#ad6359"></path><path d="M586.4,428.05c-1.46,2.38-57.13,29.57-59.39,29.87s-3.27-6.14-2-8.91,18-22.73,18-22.73L541.66,418l36.18-15.54a48.1,48.1,0,0,0,1.14,6.4C583.48,418.81,587,427.15,586.4,428.05Z" style="fill:#ebebeb"></path><path d="M527,457.92c2.26-.3,57.93-27.49,59.39-29.87.56-.9-2.92-9.24-7.42-19.19L543,426.28s-16.66,20-18,22.73S524.75,458.22,527,457.92Z" style="fill:#BA68C8"></path><path d="M526.72,455.3c9.22-4.79,46.85-23.22,56.33-27.26.08,0,.1,0,0,.06-9,4.95-46.82,23.08-56.29,27.35C526.59,455.54,526.52,455.4,526.72,455.3Z" style="fill:#263238"></path><path d="M527.65,445.26a8.35,8.35,0,0,1,6.7-.45,8.06,8.06,0,0,1,4.52,4c0,.06-.08.11-.11.06a9.66,9.66,0,0,0-11-3.46A.06.06,0,0,1,527.65,445.26Z" style="fill:#263238"></path><path d="M539.87,429c3.71-1.88,8.68-2.67,12.5-.75.15.07,0,.28-.1.28a57.78,57.78,0,0,0-12.24,1A.26.26,0,0,1,539.87,429Z" style="fill:#263238"></path><path d="M537.54,431.51c3.71-1.87,8.68-2.67,12.49-.75.15.07,0,.28-.1.28a57.74,57.74,0,0,0-12.23,1A.26.26,0,0,1,537.54,431.51Z" style="fill:#263238"></path><path d="M535.2,434c3.71-1.87,8.69-2.67,12.5-.75.15.08,0,.28-.1.28a57.14,57.14,0,0,0-12.24,1A.27.27,0,0,1,535.2,434Z" style="fill:#263238"></path><path d="M532.87,436.58c3.71-1.88,8.68-2.68,12.5-.76.14.08,0,.29-.1.28a57.14,57.14,0,0,0-12.24,1A.26.26,0,0,1,532.87,436.58Z" style="fill:#263238"></path><path d="M576.34,420.34c4.2-2,7.37,4.48,3.17,6.52S572.14,422.38,576.34,420.34Z" style="fill:#263238"></path><path d="M533.94,426.31c3.28,1.62,7.15,1.76,10.71,2.3a.52.52,0,0,0,.53-.63.12.12,0,0,0,.06-.17,21.79,21.79,0,0,0-8.06-7.89c-2-1.06-5.09-1.43-6.21,1.06S532,425.37,533.94,426.31Zm-1.69-3c-1.61-4.24,3.58-2.91,5-2.07a23.45,23.45,0,0,1,2.59,1.85c1.73,1.38,3.23,3,4.81,4.51-1.73-.38-3.48-.6-5.22-.91C537.35,426.32,533.14,425.64,532.25,423.3Z" style="fill:#263238"></path><path d="M557.34,419c-1.48-2.29-4.52-1.46-6.3-.12a21.86,21.86,0,0,0-6.8,9,.12.12,0,0,0,.09.16.51.51,0,0,0,.62.54c3.43-1.06,7.24-1.78,10.25-3.86C557,423.45,558.74,421.12,557.34,419Zm-7.51,6.9c-1.68.57-3.38,1-5,1.67a65.22,65.22,0,0,1,4.08-5.17,24,24,0,0,1,2.29-2.22c1.27-1,6.21-3.13,5.24,1.31C555.88,423.88,551.83,425.18,549.83,425.85Z" style="fill:#263238"></path><path d="M582,404l-45.17,19.6S524.43,344.23,527.35,312c2-21.89,30.08-51.34,43.62-71,.79-1.14,3.1-14,3.1-14h37.22l-.58,28c-.84,17-39.21,51.68-39.55,61.88C570.77,328.39,582,404,582,404Z" style="fill:#263238"></path><path d="M537.58,412.25c10.3-5.36,38.27-17.15,39.77-17.51.1,0,.17.12.09.17-1.1.76-27.53,13.35-39.79,17.48A.08.08,0,0,1,537.58,412.25Z" style="fill:#37474f"></path><path d="M602,261.69c-.35.68-.73,1.34-1.13,2a81,81,0,0,1-4.76,6.59l-5.4,7c-3.6,4.68-7.15,9.39-10.76,14.06-3.5,4.52-7,9-10.41,13.62a31.61,31.61,0,0,0-3.9,6.63,22.86,22.86,0,0,0-1.6,7.61c-.28,5.54.76,11.18,1.45,16.66q1.08,8.69,2.33,17.36t2.65,17.32c.91,5.66,1.69,11.4,2.92,17,.32,1.45.58,2.91.86,4.36,0,.08.14.06.13,0q-2.64-17.28-5-34.6Q568.11,348.64,567,340c-.72-5.62-1.62-11.28-1.93-16.94a29.47,29.47,0,0,1,.52-8.17,21.85,21.85,0,0,1,3.3-7.17c1.53-2.28,3.27-4.45,5-6.62,1.81-2.33,3.58-4.69,5.38-7q5.4-7,10.78-14c3.43-4.49,7-8.91,10.25-13.53A31,31,0,0,0,604,259.6a30,30,0,0,0,1.63-7.49c.58-5.6.27-11.3.16-16.91,0-1.43-.06-2.86-.1-4.29a.09.09,0,0,0-.18,0c-.27,5.71-.32,11.42-.55,17.13a41.75,41.75,0,0,1-1,8.26,25.18,25.18,0,0,1-2,5.39" style="fill:#37474f"></path><path d="M575.1,330.51c-.3-2.26,11.31-63.12,13.22-65.16.72-.78,9.68.4,20.47,2.13,2.33.37,36.67-5,36.67-5l-3.82,40.14-40.23,4.06s-14.86,21.31-17.2,23.33S575.41,332.77,575.1,330.51Z" style="fill:#ad6359"></path><path d="M588.32,265.36c-1.92,2-13.52,62.88-13.22,65.14s6.78,1.55,9.11-.45,17.21-23.32,17.21-23.32l8.35-.85,5.5-39a45,45,0,0,1-6.48.59C598,265.75,589,264.58,588.32,265.36Z" style="fill:#ebebeb"></path><path d="M575.1,330.51c-.3-2.26,11.31-63.12,13.22-65.16.72-.78,9.68.4,20.47,2.13l-7.38,39.25s-14.86,21.31-17.2,23.33S575.41,332.77,575.1,330.51Z" style="fill:#BA68C8"></path><path d="M577.7,330.1c2.2-10.15,10.1-51.31,11.5-61.51,0-.09,0-.1-.06,0-2.4,10-10,51.24-11.61,61.5C577.5,330.29,577.66,330.31,577.7,330.1Z" style="fill:#263238"></path><path d="M587.15,326.56a8.34,8.34,0,0,0-1.33-6.58,8.07,8.07,0,0,0-5-3.32c-.06,0-.08.1,0,.12a9.65,9.65,0,0,1,6.23,9.75A.07.07,0,0,0,587.15,326.56Z" style="fill:#263238"></path><path d="M599.64,310.49c.84-4.07.3-9.08-2.55-12.25-.11-.12-.29,0-.25.17a57.34,57.34,0,0,1,2.29,12.06A.26.26,0,0,0,599.64,310.49Z" style="fill:#263238"></path><path d="M597.81,313.41c.84-4.07.3-9.08-2.55-12.25-.11-.13-.29,0-.25.17a57.34,57.34,0,0,1,2.29,12.06A.26.26,0,0,0,597.81,313.41Z" style="fill:#263238"></path><path d="M596,316.33c.84-4.07.3-9.08-2.55-12.26-.11-.12-.29,0-.25.17a57.59,57.59,0,0,1,2.29,12.06A.26.26,0,0,0,596,316.33Z" style="fill:#263238"></path><path d="M594.15,319.25c.84-4.08.3-9.08-2.55-12.26-.11-.12-.29,0-.25.17a57.34,57.34,0,0,1,2.29,12.06A.26.26,0,0,0,594.15,319.25Z" style="fill:#263238"></path><path d="M598.4,273c.86-4.58-6.26-5.93-7.13-1.34S597.53,277.62,598.4,273Z" style="fill:#263238"></path><path d="M609.7,317c2.1-1.74.93-4.67-.61-6.28a21.88,21.88,0,0,0-9.73-5.7.1.1,0,0,0-.14.1.51.51,0,0,0-.47.67c1.45,3.29,2.6,7,5,9.74C605.19,317.12,607.7,318.63,609.7,317ZM602,310.32c-.75-1.6-1.42-3.23-2.24-4.8,1.9,1.12,3.83,2.15,5.61,3.45a24.14,24.14,0,0,1,2.47,2c1.18,1.15,3.83,5.8-.69,5.36C604.63,316.11,602.88,312.23,602,310.32Z" style="fill:#263238"></path><path d="M599.78,294.57c-1.22,3.45-.91,7.31-1,10.91a.52.52,0,0,0,.69.45.1.1,0,0,0,.17,0,21.82,21.82,0,0,0,6.91-8.92c.82-2.07.82-5.22-1.78-6.05S600.5,292.56,599.78,294.57Zm2.79-2c4-2.09,3.31,3.22,2.65,4.72a24.4,24.4,0,0,1-1.54,2.79,65.91,65.91,0,0,1-3.92,5.3c.17-1.76.18-3.53.29-5.29C600.17,298,600.35,293.71,602.57,292.55Z" style="fill:#263238"></path><path d="M597.56,227.05h27.13s1.56,10.37,4.12,11.58c7.61,3.59,40.36,8,59.61,18.22C705,265.61,707,286.3,684.5,294.93,653.65,306.77,612,308.81,612,308.81l2.46-45.24s30.44-3.47,53.52-2.89c0,0-23.51,6.45-49.58,2-6-1-12.58-4-18.48-6.17Z" style="fill:#263238"></path><path d="M620.22,304.18c.23-2.55.22-5.13.32-7.69l.3-7.69c.21-5.11,1.41-22.56,1.73-23.9a.08.08,0,0,1,.16,0c.15,1.22-.34,12.63-.49,15.19-.29,5.12-.74,10.22-1.14,15.33-.11,1.46-.26,2.92-.38,4.38s-.31,2.91-.36,4.37C620.35,304.28,620.21,304.27,620.22,304.18Z" style="fill:#37474f"></path><path d="M679.12,260.34a130,130,0,0,0-14.62-.82c1.87-.41,3.77-.74,5.64-1,.11,0,.12-.19,0-.18a35.91,35.91,0,0,0-6.54,1.21c-3.23,0-6.46.11-9.68.28-8.44.43-16.85,1.23-25.26,2.06q-7.15.7-14.32,1.45a.42.42,0,0,0-.4.42c0,1.25.1,2.5.15,3.75a.25.25,0,0,0,.49,0c0-1.13.13-2.25.16-3.38q12.46-1,24.91-2.12c8.41-.73,16.83-1.26,25.27-1.46,4.73-.11,9.45-.12,14.18,0C679.19,260.52,679.22,260.36,679.12,260.34Z" style="fill:#37474f"></path><path d="M680.89,263.41c-7.36,0-14.71.19-22,.71s-14.52,1.2-21.73,2.2q-3,.4-6,.88c-2,.33-4,.75-6,1.1-.08,0-.06.15,0,.14,3.63-.5,7.29-.87,10.93-1.29s7.15-.83,10.74-1.19c7.25-.71,14.51-1.3,21.78-1.73,4.11-.24,8.22-.51,12.34-.66C681,263.56,681,263.41,680.89,263.41Z" style="fill:#37474f"></path><path d="M594.14,253.71a71.89,71.89,0,0,1,11.62,4.74c.15.07.06.3-.09.24-3.91-1.46-7.89-2.84-11.71-4.51A.25.25,0,0,1,594.14,253.71Z" style="fill:#37474f"></path><path d="M591.56,227.28c0-.13.24-.17.24,0,.21,4.58.71,8.6,1.31,12.86.28,2,2.43,12.89,5.8,11.91.56-.16.83-.75.87-1.62a13.94,13.94,0,0,0-.63-3.35c-.49-2.28-.92-4.57-1.23-6.89a63.5,63.5,0,0,1-.53-13,.11.11,0,1,1,.22,0,120.72,120.72,0,0,0,2,17.89c.58,2.84,2.22,7.06-.71,7.66s-5.32-6.5-5.78-8.45A66.78,66.78,0,0,1,591.56,227.28Z" style="fill:#37474f"></path><path d="M598.83,252.32a18,18,0,0,1,.89,2.24,5.22,5.22,0,0,1,.41,1.85c0,.13-.16.15-.23.07a6.75,6.75,0,0,1-.89-1.78c-.29-.69-.6-1.38-.88-2.08A.38.38,0,0,1,598.83,252.32Z" style="fill:#37474f"></path><path d="M615.06,172.16c0,3,1.57,4,1.66,5.65,0,0-6.87,3.24-18.52,3.24s-18.51-3.24-18.51-3.24c.09-1.62,1.66-2.64,1.66-5.65,0-3.48-2.33-3.74-1.78-9,.41-3.93,3.36-4.41,3.83-12.13.48-8,3.51-11.2,5.86-13a13.2,13.2,0,0,1,8.94-3s4.17-.83,8.72,2.69c2.35,1.81,5.61,5.31,6.09,13.29.47,7.72,3.42,8.2,3.83,12.13C617.39,168.42,615.06,168.68,615.06,172.16Z" style="fill:#263238"></path><path d="M583.24,155.32c1-2.21,1-4.83.78-7.23a.09.09,0,1,0-.17,0c0,2.3.07,4.67-.84,6.81-.8,1.85-2.28,3.17-3.42,4.75a8.28,8.28,0,0,0-1.66,5,8,8,0,0,0,.51,2.75,17.31,17.31,0,0,0,1.4,2.49c1.42,2.55-.3,5.27-1.7,7.29,0,0,0,0,0,0,1.15-1.52,2.39-3.2,2.5-5.26a4.6,4.6,0,0,0-.77-2.76,9,9,0,0,1-1.34-2.92,7.76,7.76,0,0,1,1.26-6.19C580.94,158.49,582.41,157.16,583.24,155.32Z" style="fill:#263238"></path><path d="M618,162.91a15,15,0,0,0-2.78-5.7,13.11,13.11,0,0,1-1.51-2.78,17.66,17.66,0,0,1-.81-3.54c-.2-1.31-.37-2.63-.69-3.91a24,24,0,0,0-1.33-3.73c0-.06-.09,0-.07,0a26.83,26.83,0,0,1,1.74,7.22,14.92,14.92,0,0,0,1.9,6.2c1.13,1.81,2.51,3.42,3,5.59s.75,5.17-.42,7.28c-1,1.73-2.82,3.74-1.83,5.93,0,.07.14,0,.12,0-.83-2.5,1.34-4.29,2.26-6.29A10.84,10.84,0,0,0,618,162.91Z" style="fill:#263238"></path><path d="M593.46,183.84c-5.49,8.16-29.71,37.17-40,36.27-7.31-.64-41.23-17.51-46.36-22.17-2.91-2.65,17.75-22.08,22.11-20.13,5.4,2.4,23,16.78,26.49,17.17,1.87.21,14.12-7.86,31.39-18.47C596,171.06,598.2,176.81,593.46,183.84Z" style="fill:#ad6359"></path><path d="M507.1,197.94c-2.77-1.41-14.9-9-17.8-11.9s-10.66-11.74-8.69-14.19,4.46,0,4.46,0-2.69-4.27-.47-6.55,5.94,1.61,5.94,1.61-2.43-4.58-.07-6.7,5.47,2.42,5.47,2.42-2.42-4.09.27-5c3.23-1.11,6.84,6.92,10.28,9.85.78.67,16.81,12.37,16.81,12.37Z" style="fill:#ad6359"></path><path d="M495.67,162.21c2.67,5.9,4.86,8,10.18,11.54a.1.1,0,1,1-.09.17c-5.52-3-8.65-5.22-10.38-11.59C495.29,162,495.54,161.93,495.67,162.21Z" style="fill:#263238"></path><path d="M490.34,166.4c3.3,5.89,5.66,8.21,11,12.3.07.06,0,.19-.1.14-5.54-3.57-8.61-5.9-11.15-12.22C490,166.33,490.18,166.14,490.34,166.4Z" style="fill:#263238"></path><path d="M485.34,172c3.62,5.47,6.09,8.13,11.75,11.43a.12.12,0,0,1-.11.22c-6.1-2.81-9.21-6.11-11.79-11.52C485,171.78,485.11,171.68,485.34,172Z" style="fill:#263238"></path><path d="M529.21,177.81s-4.19-7-6.71-9.6-15.52-9.07-17.06-6.34c-2,3.53,4.78,8.71,8.43,10.82,0,0-4.62,8.15-.56,12.92S529.21,177.81,529.21,177.81Z" style="fill:#ad6359"></path><path d="M505.21,163c.5,4.53,5.47,7,8.86,9.29a.37.37,0,0,1,0,.61c-1.71,3.55-3.09,9.05-1.05,12.67a.09.09,0,0,1-.15.1c-2.72-3.58-1.8-9.09.32-12.86-3.52-2.31-8.39-5-8.06-9.81C505.17,163,505.2,163,505.21,163Z" style="fill:#263238"></path><path d="M561.56,190.75,583.3,202s9.68-12.23,13.42-21c2.86-6.7-.69-8.81-5.2-7.06C576.47,179.73,561.56,190.75,561.56,190.75Z" style="fill:#BA68C8"></path><path d="M582.12,184.37a1.5,1.5,0,1,0,1.5,1.5A1.51,1.51,0,0,0,582.12,184.37Zm0,2.71a1.21,1.21,0,1,1,0-2.42,1.21,1.21,0,0,1,0,2.42Zm-14.53-.47a1.19,1.19,0,0,1-1.15.88h-.16l-.33.22a1.33,1.33,0,0,0,.49.09,1.5,1.5,0,0,0,1.49-1.39Zm29.74-11.7a1.19,1.19,0,0,1-.56.14,1.21,1.21,0,0,1-1.21-1.21,1.75,1.75,0,0,1,0-.33l-.27-.07a1.29,1.29,0,0,0-.06.4,1.51,1.51,0,0,0,1.5,1.51,1.48,1.48,0,0,0,.69-.18A2.1,2.1,0,0,0,597.33,174.91Zm-14.5,21.89a1.51,1.51,0,0,0-1.5,1.51,1.51,1.51,0,0,0,3,0A1.52,1.52,0,0,0,582.83,196.8Zm0,2.71a1.21,1.21,0,1,1,1.21-1.2A1.21,1.21,0,0,1,582.83,199.51Zm8.45-8.84a1.51,1.51,0,0,0-1.5,1.51,1.37,1.37,0,0,0,.16.66c.07-.1.14-.19.2-.29a1.15,1.15,0,0,1-.06-.37,1.19,1.19,0,0,1,1.09-1.2l.19-.3Zm-2.14-11.82a1.51,1.51,0,1,0,1.5,1.51A1.51,1.51,0,0,0,589.14,178.85Zm0,2.71a1.21,1.21,0,1,1,1.21-1.2A1.22,1.22,0,0,1,589.14,181.56Zm-14.94,9.78a1.51,1.51,0,1,0,1.51,1.51A1.51,1.51,0,0,0,574.2,191.34Zm0,2.71a1.2,1.2,0,0,1-1.2-1.2,1.21,1.21,0,1,1,1.2,1.2Z" style="fill:#fff"></path><path d="M584.37,198.09A161.69,161.69,0,0,0,566,188.47s-.12.12-.08.14c4.85,2.9,14.93,8,18.31,9.68C584.33,198.32,584.44,198.12,584.37,198.09Z" style="fill:#263238"></path><path d="M596.73,181c-3.75,8.8-13.43,21-13.43,21l-14.48-7.5,27.43-20.72C597.87,174.72,598.4,177.07,596.73,181Z" style="opacity:0.1"></path><path d="M576.42,211.61l-4,16.68L623,228s-5.3-39-14.1-49.75c-6-7.27-13.44-7.19-18.48-2.64-1.28,1.15-14.7,14.92-16.63,22.08C572.13,204,576.42,211.61,576.42,211.61Z" style="fill:#BA68C8"></path><path d="M584.77,181.67c-1.53,1.64-3.07,3.25-4.53,4.94a26.3,26.3,0,0,1,1.92-2.85s0-.09,0,0a21,21,0,0,0-1.57,2.08c-.31.47-.58,1-.84,1.45-.48.57-1,1.15-1.39,1.74a32.33,32.33,0,0,0-2.61,4,36.29,36.29,0,0,0-1.87,4.3c0,.08.1.13.13.05a31.52,31.52,0,0,1,2.27-4.05c.85-1.35,1.73-2.67,2.66-4,1.87-2.59,3.87-5.13,5.92-7.59C584.83,181.68,584.79,181.65,584.77,181.67Z" style="fill:#263238"></path><path d="M582.4,184.4l-.22.26a1.21,1.21,0,0,1-.06,2.42,1.24,1.24,0,0,1-1.18-.91l-.21.27a1.49,1.49,0,0,0,1.39.93,1.5,1.5,0,0,0,.28-3ZM609,213.72a1.51,1.51,0,1,0,1.49,1.5A1.51,1.51,0,0,0,609,213.72Zm0,2.72a1.22,1.22,0,0,1-1.22-1.22,1.21,1.21,0,0,1,2.42,0A1.22,1.22,0,0,1,609,216.44Zm-16.93,9.22a1.5,1.5,0,0,0-1.5,1.5,1.45,1.45,0,0,0,.41,1h.45a1.18,1.18,0,0,1-.56-1,1.21,1.21,0,1,1,1.85,1h.45a1.46,1.46,0,0,0,.41-1A1.51,1.51,0,0,0,592.06,225.66Zm0-11.32a1.51,1.51,0,0,0,0,3,1.51,1.51,0,1,0,0-3Zm0,2.71a1.21,1.21,0,1,1,1.21-1.21A1.2,1.2,0,0,1,592.06,217.05Zm13.15-38.76a1.51,1.51,0,1,0,1.5,1.5A1.51,1.51,0,0,0,605.21,178.29Zm0,2.71a1.21,1.21,0,1,1,1.21-1.21A1.21,1.21,0,0,1,605.21,181Zm.53,9a1.51,1.51,0,1,0,1.51,1.51A1.51,1.51,0,0,0,605.74,190Zm0,2.72a1.21,1.21,0,1,1,1.21-1.21A1.21,1.21,0,0,1,605.74,192.7Zm-8.33-20.21a9.24,9.24,0,0,0-1.67.27,1.46,1.46,0,0,0-.47,1.08,1.51,1.51,0,1,0,3,0A1.48,1.48,0,0,0,597.41,172.49Zm-.64,2.56a1.21,1.21,0,1,1,1.21-1.21A1.21,1.21,0,0,1,596.77,175.05ZM582.83,196.8a1.51,1.51,0,0,0-1.5,1.51,1.51,1.51,0,0,0,3,0A1.52,1.52,0,0,0,582.83,196.8Zm0,2.71a1.21,1.21,0,1,1,1.21-1.2A1.21,1.21,0,0,1,582.83,199.51Zm7.87,3.8a1.5,1.5,0,0,0,0,3,1.5,1.5,0,1,0,0-3Zm0,2.71a1.21,1.21,0,1,1,1.22-1.22A1.21,1.21,0,0,1,590.7,206Zm8.41,2.8a1.51,1.51,0,1,0,0,3,1.51,1.51,0,0,0,0-3Zm0,2.72a1.21,1.21,0,1,1,1.2-1.21A1.21,1.21,0,0,1,599.11,211.54Zm-17,8.1a1.5,1.5,0,1,0,1.5,1.5A1.51,1.51,0,0,0,582.12,219.64Zm0,2.71a1.21,1.21,0,1,1,0-2.42,1.21,1.21,0,0,1,0,2.42Zm15.63-38a1.5,1.5,0,1,0,1.51,1.5A1.51,1.51,0,0,0,597.75,184.37Zm0,2.71a1.21,1.21,0,1,1,1.2-1.21A1.21,1.21,0,0,1,597.75,187.08Zm-6.47,3.59a1.51,1.51,0,1,0,1.51,1.51A1.51,1.51,0,0,0,591.28,190.67Zm0,2.72a1.21,1.21,0,0,1,0-2.42,1.21,1.21,0,1,1,0,2.42Zm-8.69,15.43a1.51,1.51,0,1,0,1.51,1.51A1.5,1.5,0,0,0,582.59,208.82Zm0,2.72a1.21,1.21,0,1,1,1.22-1.21A1.22,1.22,0,0,1,582.59,211.54Zm-8.66,13.52a1.44,1.44,0,0,0-.77.22l-.11.47a1.15,1.15,0,0,1,.88-.39,1.21,1.21,0,1,1,0,2.41,1.19,1.19,0,0,1-1.15-.87l-.12.46a1.47,1.47,0,0,0,1.27.71,1.51,1.51,0,1,0,0-3Zm33.7-22.1a1.51,1.51,0,1,0,1.5,1.5A1.51,1.51,0,0,0,607.63,203Zm0,2.72a1.22,1.22,0,0,1-1.21-1.22,1.21,1.21,0,0,1,2.41,0A1.21,1.21,0,0,1,607.63,205.68Zm9.09,1.4a1.51,1.51,0,0,0,0,3,1.51,1.51,0,1,0,0-3Zm0,2.72a1.21,1.21,0,0,1-1.2-1.22,1.19,1.19,0,0,1,1.2-1.2,1.21,1.21,0,0,1,1.22,1.2A1.22,1.22,0,0,1,616.72,209.8ZM602.5,220a1.51,1.51,0,1,0,1.5,1.5A1.51,1.51,0,0,0,602.5,220Zm0,2.71a1.21,1.21,0,1,1,0-2.42,1.21,1.21,0,0,1,0,2.42Zm16.62-4.07a1.51,1.51,0,1,0,1.5,1.5A1.51,1.51,0,0,0,619.12,218.68Zm0,2.72a1.22,1.22,0,0,1-1.21-1.22,1.21,1.21,0,1,1,1.21,1.22Zm-30-42.55a1.51,1.51,0,1,0,1.5,1.51A1.51,1.51,0,0,0,589.14,178.85Zm0,2.71a1.21,1.21,0,1,1,1.21-1.2A1.22,1.22,0,0,1,589.14,181.56ZM574.2,203.12a1.2,1.2,0,0,0-.59.14c0,.1,0,.2,0,.3a1.09,1.09,0,0,1,.54-.14,1.21,1.21,0,1,1,0,2.42h-.07l.09.3a1.51,1.51,0,0,0,0-3Zm39-17.13v0a.84.84,0,0,1-.08-.2c-.09-.24-.2-.47-.3-.71a1.57,1.57,0,0,0,0,.37,1.48,1.48,0,0,0,.72,1.27C613.36,186.46,613.26,186.22,613.17,186ZM599.11,196.8a1.52,1.52,0,0,0-1.51,1.51,1.5,1.5,0,0,0,1.51,1.49,1.48,1.48,0,0,0,1.49-1.49A1.5,1.5,0,0,0,599.11,196.8Zm0,2.71a1.21,1.21,0,1,1,1.2-1.2A1.21,1.21,0,0,1,599.11,199.51Zm15.12-4.07a1.51,1.51,0,1,0,1.51,1.51A1.51,1.51,0,0,0,614.23,195.44Zm0,2.71A1.2,1.2,0,0,1,613,197a1.21,1.21,0,1,1,1.2,1.2Zm-3.62,28.06a1.5,1.5,0,0,0-1.46,1.88h.3a1.16,1.16,0,0,1-.06-.38,1.21,1.21,0,1,1,2.42,0,1,1,0,0,1-.06.36h.3a1,1,0,0,0,.05-.36A1.49,1.49,0,0,0,610.61,226.21Z" style="fill:#fff"></path><path d="M584.73,208.28a46.73,46.73,0,0,1,6.79.77c1.12.23,2.21.5,3.3.8.55.15,1.09.29,1.64.41a6.55,6.55,0,0,0,1.76.24s0,.08,0,.09a13.37,13.37,0,0,1-1.67,0,12.46,12.46,0,0,1-1.61-.22c-1.13-.22-2.25-.49-3.38-.72-2.27-.47-4.54-.93-6.85-1.23C584.61,208.46,584.62,208.28,584.73,208.28Z" style="fill:#263238"></path><path d="M579.22,210.57a50.43,50.43,0,0,1,5.62-.55c.94,0,1.88,0,2.82,0l1.34.08c.5,0,1,.14,1.48.17,0,0,0,.09,0,.09-.46,0-.93,0-1.4.06l-1.41,0c-.94,0-1.87.06-2.81.07-1.88,0-3.75.08-5.63.18C579.13,210.73,579.13,210.59,579.22,210.57Z" style="fill:#263238"></path><rect x="497.69" y="130.8" width="41.26" height="145.2" transform="translate(8.02 426.16) rotate(-45.01)" style="fill:#ebebeb"></rect><rect x="461.83" y="152.39" width="31" height="20.08" transform="translate(24.99 385.17) rotate(-45.01)" style="fill:#BA68C8"></rect><rect x="479.05" y="169.6" width="31" height="20.08" transform="translate(17.86 402.39) rotate(-45.01)" style="fill:#BA68C8;opacity:0.8"></rect><rect x="496.27" y="186.81" width="31" height="20.08" transform="translate(10.74 419.61) rotate(-45.01)" style="fill:#BA68C8;opacity:0.6000000000000001"></rect><rect x="513.48" y="204.02" width="31" height="20.08" transform="translate(3.61 436.83) rotate(-45.01)" style="fill:#BA68C8;opacity:0.4"></rect><rect x="530.7" y="221.23" width="31" height="20.08" transform="translate(-3.52 454.05) rotate(-45.01)" style="fill:#BA68C8;opacity:0.2"></rect><g style="opacity:0.1"><rect x="461.83" y="152.39" width="31" height="20.08" transform="translate(24.99 385.17) rotate(-45.01)"></rect><rect x="479.05" y="169.6" width="31" height="20.08" transform="translate(17.86 402.39) rotate(-45.01)" style="opacity:0.8"></rect><rect x="496.27" y="186.81" width="31" height="20.08" transform="translate(10.74 419.61) rotate(-45.01)" style="opacity:0.6000000000000001"></rect><rect x="513.48" y="204.02" width="31" height="20.08" transform="translate(3.61 436.83) rotate(-45.01)" style="opacity:0.4"></rect><rect x="530.7" y="221.23" width="31" height="20.08" transform="translate(-3.52 454.05) rotate(-45.01)" style="opacity:0.2"></rect></g><path d="M565.7,244.76a4.25,4.25,0,1,1-6,0A4.25,4.25,0,0,1,565.7,244.76Z" style="fill:#263238"></path><rect x="525.82" y="114.56" width="41.26" height="145.2" transform="translate(-29.83 147.9) rotate(-15.01)" style="fill:#ebebeb"></rect><rect x="515.94" y="121.14" width="31" height="20.08" transform="translate(-15.84 142.1) rotate(-15.01)" style="fill:#BA68C8"></rect><rect x="522.25" y="144.65" width="31" height="20.08" transform="translate(-21.72 144.54) rotate(-15.01)" style="fill:#BA68C8;opacity:0.8"></rect><rect x="528.55" y="168.16" width="31" height="20.08" transform="translate(-27.59 146.97) rotate(-15.01)" style="fill:#BA68C8;opacity:0.6000000000000001"></rect><rect x="534.85" y="191.67" width="31" height="20.08" transform="translate(-33.46 149.41) rotate(-15.01)" style="fill:#BA68C8;opacity:0.4"></rect><rect x="541.16" y="215.19" width="31" height="20.08" transform="translate(-39.34 151.84) rotate(-15.01)" style="fill:#BA68C8;opacity:0.2"></rect><path d="M566.8,246.67a4.24,4.24,0,1,1-5.2-3A4.23,4.23,0,0,1,566.8,246.67Z" style="fill:#263238"></path><path d="M610,178.49c13.56,11.95,38.26,40.08,33.47,49.13-7.87,14.88-26.65,31.22-34.29,35.56-3.29,1.88-21.87-20.94-19-23.82,3.43-3.46,26.76-19.42,26.6-20.69s-9-17.89-13.78-31.42C597.1,170.47,604.38,173.51,610,178.49Z" style="fill:#ad6359"></path><path d="M602.68,234.6s-11.51-.69-19.06-.78c-4.21-.06-11.44.5-14.55,1.87-4.66,2.06-22.81,13.65-20.1,18.11,2.46,4,16.79-7.89,16.79-7.89S550.23,256.67,554.09,261s18.25-11.32,18.25-11.32-15.71,11.42-11,15.24c3.54,2.89,17.38-10.53,17.38-10.53s-13.43,9.9-9.93,13c3.88,3.46,17.43-8.13,17.43-8.13,10.26,6.46,17.74,5.91,23,3.9C610.46,262.71,602.68,234.6,602.68,234.6Z" style="fill:#ad6359"></path><path d="M570.18,242.37c-12,7.06-15.79,14.2-15.65,14,3.26-4,9.47-9,11.23-10.33s2.72-2.27,4.47-3.63C570.27,242.4,570.22,242.34,570.18,242.37Z" style="fill:#263238"></path><path d="M575.92,248.09a47.43,47.43,0,0,0-13.26,10.35c-.13.17,0,.18.14.05,2.19-1.8,10.9-8.67,13.16-10.34A0,0,0,0,0,575.92,248.09Z" style="fill:#263238"></path><path d="M581.2,252.69a35.27,35.27,0,0,0-10,8.31c-.14.16,0,.18.19,0,3.28-2.83,5.83-5.07,9.92-8.23C581.35,252.76,581.28,252.64,581.2,252.69Z" style="fill:#263238"></path><path d="M632.6,196.42l-23.35,7.4s-7.45-13.7-9.64-23c-1.68-7.1,2.18-8.57,6.33-6.08C619.78,183,632.6,196.42,632.6,196.42Z" style="fill:#BA68C8"></path><path d="M631.17,195a1.21,1.21,0,1,1-1.72-1.68c-.06-.07-.14-.13-.21-.21a1.52,1.52,0,0,0-.49,1.12,1.5,1.5,0,0,0,2.63,1Zm-26-16.69a1.51,1.51,0,1,0,1.5,1.5A1.51,1.51,0,0,0,605.21,178.29Zm0,2.71a1.21,1.21,0,1,1,1.21-1.21A1.21,1.21,0,0,1,605.21,181Zm.53,9a1.51,1.51,0,1,0,1.51,1.51A1.51,1.51,0,0,0,605.74,190Zm0,2.72a1.21,1.21,0,1,1,1.21-1.21A1.21,1.21,0,0,1,605.74,192.7Zm16.09-4.07a1.52,1.52,0,0,0-1.51,1.51,1.51,1.51,0,1,0,1.51-1.51Zm0,2.71a1.21,1.21,0,1,1,1.21-1.2A1.21,1.21,0,0,1,621.83,191.34Zm-7.6-7.41a1.51,1.51,0,1,0,1.51,1.5A1.5,1.5,0,0,0,614.23,183.93Zm0,2.71a1.21,1.21,0,1,1,1.22-1.21A1.21,1.21,0,0,1,614.23,186.64Zm0,8.8a1.51,1.51,0,1,0,1.51,1.51A1.51,1.51,0,0,0,614.23,195.44Zm0,2.71A1.2,1.2,0,0,1,613,197a1.21,1.21,0,1,1,1.2,1.2Z" style="fill:#fff"></path><path d="M608.87,199.77a162.67,162.67,0,0,1,19.71-6.36s.09.14.06.15c-5.28,2-16.08,5.35-19.7,6.43C608.87,200,608.8,199.8,608.87,199.77Z" style="fill:#263238"></path><path d="M609,203.94c-1-1.76-1.76-3.61-2.59-5.43-.33-.46-.67-.92-1-1.4a12.06,12.06,0,0,1-1-2s0-.06.05,0c.19.3.35.62.53.93l.56.91c.19.31.38.62.59.92-.8-1.78-1.56-3.59-2.24-5.43a0,0,0,0,1,.08,0q1.51,2.75,2.82,5.6c.85,1.85,1.75,3.7,2.48,5.61.34-.08.66-.17,1-.23.09,0,.14.11.06.15-.36.18-.72.32-1.08.47A.2.2,0,0,1,609,203.94Z" style="fill:#263238"></path><path d="M600.45,174.91c-.36,1.38-4.16,7.49-8.43,7-2.19-.24-1.64-8-1.64-8l-.07-.57-.91-8,11.28-5.56S600.55,174.51,600.45,174.91Z" style="fill:#ad6359"></path><path d="M600.63,165.29a16.29,16.29,0,0,1-10.32,8.12l-.91-8,11.28-5.57S600.66,162.32,600.63,165.29Z" style="fill:#263238"></path><path d="M579.21,152.36c-2.31,14,5.82,17,8.84,17.48,2.74.45,12.14,1.63,15.89-12.06s-2-19.2-8.25-20.57S581.53,138.35,579.21,152.36Z" style="fill:#ad6359"></path><path d="M581.88,149.49a7.93,7.93,0,0,0,1-.1,1.62,1.62,0,0,0,1-.29.51.51,0,0,0,.06-.62,1.27,1.27,0,0,0-1.2-.42,1.87,1.87,0,0,0-1.22.53A.54.54,0,0,0,581.88,149.49Z" style="fill:#263238"></path><path d="M591.36,150.53a9.18,9.18,0,0,1-.93-.3,1.6,1.6,0,0,1-.9-.49.51.51,0,0,1,.07-.61,1.26,1.26,0,0,1,1.26-.17,1.88,1.88,0,0,1,1.08.77A.54.54,0,0,1,591.36,150.53Z" style="fill:#263238"></path><path d="M589.1,153.89s.07.06.07.1c-.16.95-.18,2.07.65,2.5,0,0,0,.07,0,.06C588.77,156.26,588.8,154.77,589.1,153.89Z" style="fill:#263238"></path><path d="M590.09,153c1.56.09,1.28,3.2-.17,3.12S588.78,152.93,590.09,153Z" style="fill:#263238"></path><path d="M590.68,153.22c.26.2.5.54.82.6s.69-.23,1-.52c0,0,0,0,0,0,0,.6-.33,1.19-1,1.22s-1-.54-1-1.15C590.47,153.3,590.58,153.14,590.68,153.22Z" style="fill:#263238"></path><path d="M583.37,153.21s-.07,0-.08.08c0,1-.26,2.06-1.16,2.31,0,0,0,.06,0,.05C583.21,155.59,583.48,154.13,583.37,153.21Z" style="fill:#263238"></path><path d="M582.6,152.13c-1.54-.24-1.92,2.85-.49,3.08S583.89,152.34,582.6,152.13Z" style="fill:#263238"></path><path d="M581.93,152.26c-.27.13-.55.4-.84.38s-.55-.38-.73-.73c0,0-.05,0-.05,0-.09.59,0,1.23.58,1.41s1-.29,1.17-.87C582.1,152.38,582,152.2,581.93,152.26Z" style="fill:#263238"></path><path d="M588.48,161.45c-.2.25-.39.59-.73.67a2.54,2.54,0,0,1-1.06-.1s-.06,0,0,0a1.3,1.3,0,0,0,1.29.36,1,1,0,0,0,.64-1A.05.05,0,0,0,588.48,161.45Z" style="fill:#263238"></path><path d="M584.44,157.61s-.34,1.42-.41,2.09a3.65,3.65,0,0,0,3.66-.73c.06-.06,0-.14-.09-.11a4.86,4.86,0,0,1-3,.55c0-.19.67-2.41.57-2.43a5.7,5.7,0,0,0-1.58.2c.63-3,1.74-5.82,2.32-8.79a.09.09,0,0,0-.17-.06,48.84,48.84,0,0,0-2.9,9.35C582.71,158.06,584.16,157.7,584.44,157.61Z" style="fill:#263238"></path><path d="M585,159.73a3.61,3.61,0,0,0,1.31,1.2,1.63,1.63,0,0,0,1,.14c.71-.13.78-.76.69-1.31a3.45,3.45,0,0,0-.24-.86A4.58,4.58,0,0,1,585,159.73Z" style="fill:#263238"></path><path d="M586.27,160.93a1.63,1.63,0,0,0,1,.14c.71-.13.78-.76.69-1.31A1.64,1.64,0,0,0,586.27,160.93Z" style="fill:#ff9abb"></path><path d="M603.18,157.32c-2.67.18-3-5.92-3-5.92s-11.16-2.59-11.57-11.82a15.57,15.57,0,0,1-8.34,8s1-10,9.09-11.52c0,0,10.12-3,15.22,5.17S605,157.21,603.18,157.32Z" style="fill:#263238"></path><path d="M588.63,138.89a9.92,9.92,0,0,0,.25,4.23,10.3,10.3,0,0,0,1.91,3.83,9.14,9.14,0,0,0,.71.81l.37.39.41.35c.28.22.55.46.84.67s.61.38.91.57l.46.27.49.22,1,.44c.67.23,1.35.43,2,.61-.63-.32-1.28-.57-1.9-.9l-.9-.51-.46-.25-.42-.3-.84-.6c-.26-.21-.51-.45-.77-.67l-.38-.34-.34-.38a9.72,9.72,0,0,1-.67-.77,13,13,0,0,1-2.66-7.67Z" style="fill:#263238"></path><path d="M589.85,159.43a4.75,4.75,0,0,1-3.27-5.84h0a4.73,4.73,0,1,1,4.43,6A5.25,5.25,0,0,1,589.85,159.43Zm-2.66-5.67a4.1,4.1,0,1,0,5.06-2.83,4.49,4.49,0,0,0-1-.15A4.1,4.1,0,0,0,587.19,153.76Z" style="fill:#BA68C8"></path><path d="M580,158c-1.92-.28-3.18-2.61-2.81-5.19a5.58,5.58,0,0,1,1.46-3.13,3.12,3.12,0,0,1,2.69-1,3.16,3.16,0,0,1,2.3,1.77,5.72,5.72,0,0,1,.52,3.42c-.35,2.44-2,4.25-3.85,4.2Zm-.9-7.88a5,5,0,0,0-1.29,2.78c-.32,2.24.7,4.24,2.28,4.47s3.12-1.41,3.44-3.65a5,5,0,0,0-.45-3,2.53,2.53,0,0,0-1.83-1.43l-.24,0A2.61,2.61,0,0,0,579.07,150.1Z" style="fill:#BA68C8"></path><path d="M586.66,154.15l.47-.42c-.62-.7-2.15-1.73-3.47-.68l.4.5C585.24,152.6,586.6,154.09,586.66,154.15Z" style="fill:#BA68C8"></path><path d="M607.35,158.36l.6-.21c-.1-.28-1-2.74-2.35-3.16s-9.78-.82-10.14-.84l0,.63c2.44.12,9,.5,10,.81S607.11,157.68,607.35,158.36Z" style="fill:#BA68C8"></path><path d="M601.53,156.69s3.44-4.18,5.36-2.92-.9,7.49-3.33,8.18a2.4,2.4,0,0,1-3.1-1.54Z" style="fill:#ad6359"></path><path d="M606,155.54s.05.05,0,.06a6.06,6.06,0,0,0-3.42,3.54,1.33,1.33,0,0,1,2-.2s0,.09-.06.08a1.47,1.47,0,0,0-1.66.39,7.17,7.17,0,0,0-.87,1.25c-.09.14-.35,0-.28-.12v0C601.89,158.39,603.76,155.57,606,155.54Z" style="fill:#263238"></path><path d="M603.34,161.4a.61.61,0,1,1-1.15-.41.62.62,0,0,1,.78-.37A.63.63,0,0,1,603.34,161.4Z" style="fill:#455a64"></path><path d="M603,161.3a.28.28,0,0,1-.36.17.29.29,0,0,1-.18-.37.29.29,0,0,1,.54.2Z" style="fill:#263238"></path><path d="M604.46,160.74a.43.43,0,1,1-.26-.55A.43.43,0,0,1,604.46,160.74Z" style="fill:#455a64"></path></g><g id="freepik--character-2--inject-13"><path d="M502.9,451c0,2.39-6.82,2.6-9.55.87a66.13,66.13,0,0,1-6.17-5.81c-6.39-6.49-15.2-15.94-15.2-15.94l-7.19,2.66-34.84,9L418.12,403.6s17-5.85,33.06-11c2.47-.8,4.91-1.56,7.28-2.31l.44-.14c10.79-3.32,19.72-5.79,20.57-5.1C481.76,386.87,502.88,448.55,502.9,451Z" style="fill:#f7a9a0"></path><path d="M502.9,450.94c0,2.4-6.82,2.61-9.55.89a65,65,0,0,1-6.16-5.83c-6.41-6.47-15.22-15.93-15.22-15.93l-7.18,2.66-1.16.3-13-40.29.51-.17,7.29-2.29a4.43,4.43,0,0,1,.44-.14c10.79-3.33,19.72-5.81,20.57-5.11C481.76,386.87,502.88,448.55,502.9,450.94Z" style="fill:#ebebeb"></path><path d="M503.45,451.86c0-2.44-20.71-65.51-23-67.4-.86-.74-10.23,1.74-21.46,5.07l-.35.11,12.92,40.83.68-.24s18.73,20.59,21.5,22.41S503.44,454.31,503.45,451.86Z" style="fill:#BA68C8"></path><path d="M500.77,452C497,441.41,482.86,398.52,480,387.81c0-.08,0-.1.07,0,4,10.37,17.75,53.37,20.92,64.11C501,452.12,500.85,452.18,500.77,452Z" style="fill:#263238"></path><path d="M473.13,435c-2.15-3.92-3.19-9.25-1.26-13.43.07-.16.3,0,.3.1a61.92,61.92,0,0,0,1.49,13.14A.28.28,0,0,1,473.13,435Z" style="fill:#263238"></path><path d="M475.94,437.38c-2.15-3.92-3.19-9.25-1.26-13.43.07-.16.3-.05.31.1a61.19,61.19,0,0,0,1.48,13.14A.28.28,0,0,1,475.94,437.38Z" style="fill:#263238"></path><path d="M478.76,439.81c-2.16-3.93-3.2-9.26-1.27-13.43.08-.17.31-.06.31.09a61.29,61.29,0,0,0,1.48,13.15A.28.28,0,0,1,478.76,439.81Z" style="fill:#263238"></path><path d="M471.14,439.57c1.33-3.72,1-7.88,1.14-11.75a.54.54,0,0,0-.73-.49.12.12,0,0,0-.19,0,23.37,23.37,0,0,0-7.46,9.59c-.9,2.23-.91,5.62,1.9,6.52C468.45,444.25,470.36,441.74,471.14,439.57Zm-3,2.17c-4.35,2.25-3.55-3.47-2.83-5.09a23.15,23.15,0,0,1,1.67-3,67.79,67.79,0,0,1,4.23-5.7c-.19,1.9-.21,3.79-.33,5.7C470.72,435.92,470.52,440.5,468.12,441.74Z" style="fill:#263238"></path><path d="M460.4,415.41c-2.28,1.87-1,5,.64,6.77a23.47,23.47,0,0,0,10.47,6.17.12.12,0,0,0,.15-.11.56.56,0,0,0,.51-.73c-1.56-3.54-2.79-7.53-5.39-10.5C465.26,415.28,462.55,413.65,460.4,415.41Zm8.3,7.21c.81,1.72,1.53,3.48,2.4,5.18-2-1.21-4.12-2.33-6-3.74a26.58,26.58,0,0,1-2.66-2.18c-1.27-1.24-4.11-6.26.76-5.78C465.86,416.37,467.74,420.56,468.7,422.62Z" style="fill:#263238"></path><path d="M503.44,451.86c0,2.45-7,2.59-9.73.78s-21.5-22.41-21.5-22.41l-.68.24L461.32,398.2l24.48-.54C492.68,416.8,503.46,450.1,503.44,451.86Z" style="opacity:0.1"></path><path d="M458.12,439.18s-75.2,11.95-102.11,5.19c-12.87-3.24-21.14-20.66-14-33.08,6.67-11.59,43.24-21.32,53.82-27.68,3.33-2,3.59-10.78,3.59-10.78L426,374.28S434.4,390,429.9,397a2.63,2.63,0,0,1-.26.35l12.28-3.74Z" style="fill:#455a64"></path><path d="M443.1,418c-2.52-6.61-5.33-13.1-7.9-19.7-.05-.12-.25-.07-.2.06,2.39,6.63,4.57,13.34,7.08,19.93S447.36,431.44,450,438c.06.17.34.1.27-.08C447.88,431.3,445.6,424.63,443.1,418Z" style="fill:#263238"></path><path d="M429.8,397.66c-1.9.93-3.73,2-5.59,3.08s-3.66,2-5.53,2.95c-3.76,1.91-7.61,3.67-11.49,5.33a190.66,190.66,0,0,1-24.06,8.47c-4.57,1.26-9.19,2.48-13.86,3.31-.1,0-.06.18,0,.16,3.4-.57,6.79-1.13,10.17-1.84-1.83,1-3.63,2-5.46,3a.08.08,0,0,0,.08.14c2-1,4-2,6-3a.18.18,0,0,0,.07-.26l1.73-.38c4.17-1,8.32-2.14,12.4-3.47a151,151,0,0,0,23.42-9.9c2.11-1.13,4.21-2.28,6.28-3.48a56,56,0,0,0,6-3.84C430.12,397.8,430,397.58,429.8,397.66Z" style="fill:#263238"></path><path d="M530.7,462c0,2.39-6.82,2.61-9.55.88A65.33,65.33,0,0,1,515,457c-6.39-6.48-15.21-15.93-15.21-15.93l-7.18,2.66-33.82,9.05-12.85-38.18s17-5.85,33.06-11l7.28-2.3.44-.14c10.79-3.33,19.72-5.79,20.57-5.1C509.56,397.9,530.68,459.58,530.7,462Z" style="fill:#f7a9a0"></path><path d="M530.7,462c0,2.39-6.82,2.61-9.55.88A68.3,68.3,0,0,1,515,457c-6.39-6.48-15.21-15.94-15.21-15.94l-7.18,2.67-.95.26-13.58-40.12.92-.3,7.28-2.3c.15-.05.3-.09.44-.15,10.8-3.32,19.71-5.78,20.57-5.09C509.56,397.9,530.68,459.58,530.7,462Z" style="fill:#ebebeb"></path><path d="M531.28,462.56c0-2.45-21.6-65.22-23.95-67.08-.87-.73-10.2,1.89-21.39,5.37l-.34.11,13.47,40.65.69-.25s19,20.33,21.8,22.11S531.31,465,531.28,462.56Z" style="fill:#BA68C8"></path><path d="M528.6,462.69c-3.9-10.49-18.63-53.18-21.69-63.85,0-.09,0-.11.07,0,4.09,10.31,18.48,53.12,21.8,63.81C528.85,462.85,528.69,462.91,528.6,462.69Z" style="fill:#263238"></path><path d="M500.74,446.08c-2.21-3.9-3.32-9.21-1.45-13.41.07-.16.3-.06.31.09a61.14,61.14,0,0,0,1.66,13.12A.28.28,0,0,1,500.74,446.08Z" style="fill:#263238"></path><path d="M503.58,448.46c-2.21-3.89-3.32-9.21-1.45-13.41.08-.16.31-.06.31.09a62.35,62.35,0,0,0,1.66,13.12A.28.28,0,0,1,503.58,448.46Z" style="fill:#263238"></path><path d="M506.43,450.85c-2.21-3.9-3.32-9.21-1.45-13.42.07-.16.3-.05.31.1A61.22,61.22,0,0,0,507,450.65.28.28,0,0,1,506.43,450.85Z" style="fill:#263238"></path><path d="M498.81,450.71c1.28-3.73.89-7.89,1-11.76a.55.55,0,0,0-.74-.48.12.12,0,0,0-.19,0,23.56,23.56,0,0,0-7.33,9.69c-.86,2.24-.83,5.64,2,6.5C496.18,455.43,498.06,452.89,498.81,450.71Zm-3,2.22c-4.31,2.3-3.6-3.43-2.9-5.06a26.54,26.54,0,0,1,1.62-3c1.24-2,2.74-3.86,4.16-5.76-.16,1.9-.16,3.8-.25,5.71C498.35,447.07,498.2,451.65,495.82,452.93Z" style="fill:#263238"></path><path d="M487.74,426.71c-2.25,1.9-.95,5,.73,6.75a23.5,23.5,0,0,0,10.55,6,.11.11,0,0,0,.15-.12.54.54,0,0,0,.5-.72c-1.61-3.53-2.89-7.5-5.53-10.43C492.59,426.51,489.87,424.91,487.74,426.71Zm8.4,7.09c.83,1.71,1.58,3.46,2.47,5.14a69.37,69.37,0,0,1-6.08-3.65,25.25,25.25,0,0,1-2.69-2.14c-1.28-1.22-4.19-6.21.68-5.79C493.21,427.59,495.15,431.75,496.14,433.8Z" style="fill:#263238"></path><path d="M408.55,373.28l45.66,2.42s8,25.28,3.49,32.33-47.23,14.65-47.23,14.65l59.25-18,16.2,45.57s-71.26,10.52-108.24,4.18c-13.89-2.38-21.41-21.23-12.27-34.71,9.62-14.17,42.25-32.23,42.25-32.23Z" style="fill:#455a64"></path><path d="M468.23,404.43c-18.23,6.87-36.59,13.38-55.29,18.87l-7.8,2.25c-2.7.76-5.39,1.67-8.14,2.25-.13,0-.08.24.05.2,2.38-.71,4.84-1.17,7.25-1.78s4.72-1.21,7.07-1.85l3-.85-.63.37c-.95.55-1.9,1.09-2.84,1.66-1.93,1.17-3.75,2.6-5.77,3.62-.12.06,0,.26.1.19,1.93-1.18,4.07-2,6.05-3.12,1-.54,1.9-1.1,2.83-1.68a18.24,18.24,0,0,0,2.51-1.67c3-.84,5.94-1.7,8.9-2.6q14-4.28,27.68-9.36,7.65-2.85,15.17-6C468.67,404.79,468.5,404.33,468.23,404.43Z" style="fill:#263238"></path><path d="M471.94,428.76c-2.51-6.62-5.32-13.11-7.89-19.7-.05-.12-.25-.07-.2.06,2.39,6.63,4.56,13.34,7.07,19.92s5.29,13.12,7.95,19.68c.07.16.34.09.28-.08C476.73,442,474.44,435.35,471.94,428.76Z" style="fill:#263238"></path><path d="M406.81,387.88a124.29,124.29,0,0,0-15.06,8.57c-4.81,3.08-9.48,6.37-14,9.9q-3.39,2.67-6.59,5.59a46.49,46.49,0,0,0-5.67,6,22.25,22.25,0,0,0-4.73,13.65,23.31,23.31,0,0,0,1.29,7.73,27.92,27.92,0,0,0,3.78,6.82c.06.08.18,0,.12-.11a17.87,17.87,0,0,1-3.14-6.49A23.55,23.55,0,0,1,366,419.57c3.12-4.46,7.49-8,11.66-11.47a166.58,166.58,0,0,1,13.42-9.93c2.6-1.73,5.25-3.41,7.91-5.05s5.37-3.22,8-4.95A.16.16,0,0,0,406.81,387.88Z" style="fill:#263238"></path><path d="M419.94,390.62a53.55,53.55,0,0,0-11.5-3c-3.86-.7-7.74-1.17-11.64-1.49-.11,0-.11.14,0,.16,3.93.62,7.86,1.39,11.75,2.25s7.52,1.91,11.33,2.48C420.1,391,420.12,390.69,419.94,390.62Z" style="fill:#263238"></path><path d="M450.92,393.28a56.82,56.82,0,0,1-7.22-1.16,12,12,0,0,1-5.57-2.21c-3.07-2.65-4.1-7-4.52-10.86,0-.09-.17-.08-.16,0,.26,4.19.13,9,3.58,12a11,11,0,0,0,6.06,2.35,37.85,37.85,0,0,0,7.82.05C451,393.45,451,393.28,450.92,393.28Z" style="fill:#263238"></path><path d="M455.49,400.19a48.5,48.5,0,0,0-.8-7.21c-.4-2.44-.92-4.87-1.53-7.27-.68-2.73-1.5-5.42-2.38-8.1,0-.09-.18-.06-.15,0,1.2,4.51,2.27,9.06,3.11,13.65.41,2.27.77,4.56,1.06,6.85a14,14,0,0,1-.41,6.63,11.61,11.61,0,0,1-4,5.43s0,.05,0,0A12,12,0,0,0,455.49,400.19Z" style="fill:#263238"></path><path d="M462.37,414.25c-3.13.59-6.22,1.45-9.31,2.22s-6.2,1.55-9.29,2.35c-6.18,1.6-12.34,3.28-18.5,4.95-3.5,1-7,2-10.47,3-.1,0-.06.19,0,.16q18.63-4.43,37.09-9.55c3.5-1,7-1.84,10.46-3C462.46,414.33,462.44,414.23,462.37,414.25Z" style="fill:#263238"></path><path d="M425.74,315c-14.29-1.43-35.66-7.49-45.44-14.18-4.22-2.88-15.42-21.52-19.79-32.61-1.63-4.14,23-10.62,25.29-6.32,1.54,2.92,6.83,21.38,8.68,23.21,3.4,3.38,22.24,12.77,33.11,20.25C433.66,309.47,434.62,315.84,425.74,315Z" style="fill:#f7a9a0"></path><path d="M412.14,294.54l-14.81,18.83s25.91,4.83,33.93,4.09c9-.82,6.63-5.26.05-10.82S412.14,294.54,412.14,294.54Z" style="fill:#BA68C8"></path><path d="M412.14,294.54l-14.81,18.83s25.91,4.83,33.93,4.09c9-.82,6.63-5.26.05-10.82S412.14,294.54,412.14,294.54Z" style="opacity:0.1"></path><path d="M415,297.88c-1.56,2.66-7.37,9.95-8.32,11.17-.5.64-2.6,3.11-3.09,3.76-.07.08-.18,0-.12-.12.94-1.22,1.76-2.55,2.69-3.79s6.57-8.88,8.74-11.09A.06.06,0,0,1,415,297.88Z" style="fill:#263238"></path><path d="M309.15,246.71c-2.75-1.18-5.23-2.72-4.73-4l0-.05c.6-1.26,3.43-.52,6.18.66Z" style="fill:#263238"></path><path d="M321.36,268.54c-2.87-1.23-11-16.28-13.09-22.21a3.09,3.09,0,0,1,1.41-3.41c5.68-2.51,22.29-7,25.17-5.78,2,.84,8.07,6,14.67,10.68,8.59,6.2,128.39,61.32,129.39,62.62s-.1,4.9-.92,6.8-2.68,5.22-4.32,5.39S349.6,273.8,339.2,271.83C331.24,270.28,323.31,269.38,321.36,268.54Z" style="fill:#37474f"></path><path d="M321.34,268.53a2,2,0,0,1-.79-.6,82,82,0,0,1,5.26-18,53.75,53.75,0,0,1,7.68-13,2.75,2.75,0,0,1,1.35.16,9.87,9.87,0,0,1,1.23.68C333,241.32,326,251,322.83,269A7.47,7.47,0,0,1,321.34,268.53Z" style="fill:#a6a6a6"></path><rect x="357.75" y="245.55" width="7.04" height="43.09" rx="0.73" transform="translate(749.34 40.69) rotate(113.26)" style="fill:#263238"></rect><rect x="353.74" y="251.06" width="4.11" height="27.36" rx="0.43" transform="translate(739.51 42.39) rotate(113.26)" style="fill:#a6a6a6"></rect><rect x="350.02" y="262.54" width="4.1" height="1.21" transform="translate(-28.75 482.63) rotate(-66.73)" style="fill:#263238"></rect><path d="M458.21,386.85l-65.1-2.27c0,1.28,5.42-50.86,23.39-81,1.22-2.06,11.53-3.95,15.9.36C451.53,322.84,458.18,387.68,458.21,386.85Z" style="fill:#BA68C8"></path><path d="M457.84,384.07l-64.35-2.24c0-.24.05-.51.09-.79l64.17,2.25Q457.79,383.7,457.84,384.07Zm-.74-5.47-62.84-2.2c0,.27-.07.54-.12.79l63.07,2.2C457.17,379.13,457.14,378.87,457.1,378.6Zm-.7-4.69L395,371.76l-.12.79,61.64,2.15Zm-.77-4.69-59.82-2.09c-.05.26-.09.52-.14.77L455.76,370C455.73,369.75,455.68,369.48,455.63,369.22Zm-.81-4.69-58.13-2c-.05.27-.11.53-.17.79l58.43,2C454.91,365.06,454.86,364.8,454.82,364.53Zm-.9-4.7-56.3-2c-.06.27-.11.52-.16.79l56.62,2C454,360.36,454,360.1,453.92,359.83Zm-1-4.7-54.32-1.89c-.07.26-.12.51-.18.77l54.68,1.91Zm-1-4.71-52.21-1.82c-.07.27-.14.53-.2.79l52.59,1.83C452.06,351,452,350.7,451.93,350.42Zm-1.12-4.69L400.88,344c-.07.26-.14.52-.2.78L451,346.51C451,346.25,450.88,346,450.81,345.73ZM449.6,341l-47.47-1.65-.21.78,47.89,1.67C449.74,341.54,449.66,341.28,449.6,341Zm-1.34-4.71-44.78-1.56c-.08.26-.17.53-.24.78l45.26,1.58C448.43,336.83,448.35,336.57,448.26,336.3Zm-1.45-4.71-41.88-1.47c-.08.26-.17.52-.26.78l42.39,1.49C447,332.12,446.9,331.86,446.81,331.59Zm-1.61-4.71-38.7-1.37c-.09.26-.18.52-.26.78l39.24,1.38C445.39,327.4,445.29,327.14,445.2,326.88Zm-1.83-4.74-35.14-1.23c-.11.27-.21.52-.3.78l35.77,1.25C443.6,322.67,443.48,322.41,443.37,322.14Zm-2.08-4.74-31.19-1.09c-.12.25-.22.52-.34.78l31.89,1.11Zm-2.47-4.75-26.65-.93-.36.77,27.45,1C439.12,313.18,439,312.91,438.82,312.65Zm-3.06-4.77-21.27-.74c-.14.25-.28.5-.41.76l22.25.78Zm-4.45-4.82-13.52-.48a3.81,3.81,0,0,0-1.11.75l15.67.56A5.58,5.58,0,0,0,431.31,303.06Z" style="opacity:0.1"></path><path d="M419.09,311.75c3,1,9.79-2,12.41-6.24.17-.29-.11-3.45-.28-7.31-.09-2.34-.14-4.94,0-7.33,0-.49-15.14,2.82-15.14,2.82a38.32,38.32,0,0,1,.94,9.23,5,5,0,0,1-.15,1,.57.57,0,0,0,0,.16C416.42,305.9,415.86,310.66,419.09,311.75Z" style="fill:#f7a9a0"></path><path d="M416.85,303.89a1.11,1.11,0,0,1,0,.17,11.25,11.25,0,0,0,1.53.16c8.8.28,11.72-10.61,12.32-13.37-2.67.23-14.61,2.84-14.61,2.84a38.11,38.11,0,0,1,.95,9.24A4.81,4.81,0,0,1,416.85,303.89Z" style="fill:#263238"></path><path d="M437.89,276.79c-.41,5.53-8.55,18.83-13.3,20.65-6.9,2.66-15.43-.13-17-7.79-1.51-7.42,9.41-24.55,14.46-25.93C429.51,261.69,438.48,268.61,437.89,276.79Z" style="fill:#f7a9a0"></path><path d="M420.62,280s.05.08,0,.12c-.57.88-1.08,2-.44,2.78,0,0,0,.06,0,0C419.25,282.16,419.94,280.7,420.62,280Z" style="fill:#263238"></path><path d="M422,279.51c1.51.76-.13,3.73-1.53,3S420.73,278.86,422,279.51Z" style="fill:#263238"></path><path d="M415.22,277.16s-.09,0-.11,0c-.48.93-1.19,1.92-2.19,1.77,0,0-.05,0,0,0C414,279.45,414.92,278.13,415.22,277.16Z" style="fill:#263238"></path><path d="M414.93,275.75c-1.41-.93-3.17,2-1.86,2.83S416.12,276.53,414.93,275.75Z" style="fill:#263238"></path><path d="M423.91,278.8c-.34-.33-.61-.69-.92-1a2.28,2.28,0,0,1-.74-1.24.72.72,0,0,1,.52-.71,1.81,1.81,0,0,1,1.66.71,2.64,2.64,0,0,1,.76,1.72A.76.76,0,0,1,423.91,278.8Z" style="fill:#263238"></path><path d="M414.61,273.62A12.74,12.74,0,0,0,416,274a2.23,2.23,0,0,0,1.44.09.72.72,0,0,0,.39-.78,1.77,1.77,0,0,0-1.39-1.15,2.55,2.55,0,0,0-1.88.1A.76.76,0,0,0,414.61,273.62Z" style="fill:#263238"></path><path d="M416.75,289a1.6,1.6,0,0,1-1.07.12,2.91,2.91,0,0,1-.86-.78,0,0,0,0,0-.07,0,1.44,1.44,0,0,0,.89,1.15,1.14,1.14,0,0,0,1.18-.42S416.8,288.94,416.75,289Z" style="fill:#263238"></path><path d="M417.31,285.67a3.61,3.61,0,0,1-2.86.24,4.15,4.15,0,0,1-1.15-.58.78.78,0,0,1-.2-.14l-.19-.14a.26.26,0,0,1-.07-.31h0l.07-.09h0l0-.08c.37-.72,1-1.76,1-1.76-.33,0-2-.15-1.75-.51a54,54,0,0,1,6.46-8.79c.07-.09.22,0,.15.12-1.69,2.91-3.88,5.51-5.63,8.41a6,6,0,0,1,1.73.37c.08.08-1.32,2-1.46,2.31l0,0a5,5,0,0,0,3.8.79C417.37,285.52,417.4,285.63,417.31,285.67Z" style="fill:#263238"></path><path d="M413.91,285.21a4.24,4.24,0,0,0,.85,2,1.87,1.87,0,0,0,1,.62c.84.22,1.23-.45,1.42-1.1a4.41,4.41,0,0,0,.15-1.06A5.5,5.5,0,0,1,413.91,285.21Z" style="fill:#263238"></path><path d="M414.76,287.18a1.87,1.87,0,0,0,1,.62c.84.22,1.23-.45,1.42-1.1A2,2,0,0,0,414.76,287.18Z" style="fill:#ff99ba"></path><path d="M430.72,282.42c-.1-3.32,3.18-7.83,2.09-9.65-2.35-3.92-10.74-.36-15.33-1.75s-5-4.64-3.13-8,5.7-4.83,10.91-4a19.57,19.57,0,0,1,11.48,6.75s-.56-2.14,0-2.57,2.23,2,2.66,2.91a6.88,6.88,0,0,1,.43,2.47A7.41,7.41,0,0,1,442,269a4.39,4.39,0,0,1,2.27,2c0,.29-1.68,0-2.83-.29,0,0,1.25,3.45.46,5.83s-8,12.62-9,12.47C431.7,288.76,430.75,283.78,430.72,282.42Z" style="fill:#263238"></path><path d="M441,270.23s-.1,0-.07,0a8,8,0,0,1,1.35,4.13,9.86,9.86,0,0,1-1.47,4.95c-1.67,2.94-4.09,5.32-6.32,7.81-.07.08.05.19.12.12a34.69,34.69,0,0,0,6.82-8.41C442.87,276.17,443.23,272.66,441,270.23Z" style="fill:#263238"></path><path d="M433.34,271.66a11.34,11.34,0,0,0-4.1-1,16.29,16.29,0,0,0-4,.64,16,16,0,0,1-8.89-.27s-.05,0,0,.06a14.11,14.11,0,0,0,8.13.71,37.43,37.43,0,0,1,4.15-.79,14.87,14.87,0,0,1,4.62.86A.13.13,0,0,0,433.34,271.66Z" style="fill:#263238"></path><path d="M434.4,263.64a22.16,22.16,0,0,0-5.11-3.63,17.43,17.43,0,0,0-5.68-2c-3.44-.48-7.11.68-8.92,3.82a7.59,7.59,0,0,0-.91,5.33.1.1,0,0,0,.2,0,7.74,7.74,0,0,1,4.36-8.19c3.41-1.51,7.25-.52,10.45,1a32.11,32.11,0,0,1,5.59,3.64S434.41,263.65,434.4,263.64Z" style="fill:#263238"></path><path d="M429.7,287.21s5.09-3.27,6.7-1.28-3.52,7.66-6.34,7.57a2.68,2.68,0,0,1-2.78-2.7Z" style="fill:#f7a9a0"></path><path d="M434.89,287.52s0,.07,0,.07c-2,0-3.55,1.21-4.85,2.6a1.47,1.47,0,0,1,2.2.47s0,.1-.08.07a1.66,1.66,0,0,0-1.9-.16,8,8,0,0,0-1.37,1c-.14.12-.38-.07-.25-.22l0,0C429.5,289.14,432.45,286.78,434.89,287.52Z" style="fill:#263238"></path><path d="M422.79,321.44c-14.73,5.39-45,17.47-55.72,13-14.1-5.81-25.42-23.73-29.42-30.52-1.75-3,17.25-15.71,20.75-14.59s19.65,20.66,21.89,22.24,26.39-2.66,39.7-2.73C436.78,308.8,435.26,316.88,422.79,321.44Z" style="fill:#f7a9a0"></path><path d="M349.22,282.2c1.52.87,2,.08.83-2.81s-8.2-13.35-4.34-15.49,13.57,12.75,15.13,17.71,2.35,13.53,2.35,13.53C360.72,292.62,354.14,287.08,349.22,282.2Z" style="fill:#f7a9a0"></path><path d="M342.75,311.2c-6.71-7.35-15.5-16.1-17.81-27.08a5.56,5.56,0,0,1,.36-3.63c-1.12-4.9.86-6.91.86-6.91.35-4.89,2.66-6.66,2.66-6.66s-1.26-5.77,2.11-7.11c3.76-1.51,4.79,6.89,8.18,11.17,7.77,9.8,21.56,21.56,24.08,24.16Z" style="fill:#f7a9a0"></path><path d="M340,287a80.82,80.82,0,0,1-6.32-9,80.38,80.38,0,0,1-4.78-11,.09.09,0,0,0-.18.06,42.53,42.53,0,0,0,11.14,20C340,287.2,340.15,287.12,340,287Z" style="fill:#263238"></path><path d="M334.8,292.52c-2-3-5.51-8.21-8.53-19,0,0-.07,0-.06,0a38.2,38.2,0,0,0,8.45,19.06C334.8,292.79,334.94,292.72,334.8,292.52Z" style="fill:#263238"></path><path d="M331.93,295.45c-3.22-5.18-4.6-8.86-6.6-14.94,0,0-.07,0-.06,0,1.54,7.15,2.91,9.57,6.5,15.06C331.9,295.78,332.06,295.65,331.93,295.45Z" style="fill:#263238"></path><path d="M401.71,308.67l-2.86,23.79s24.64-9.35,31.11-14.14c7.28-5.4,2.93-7.94-5.58-9.28S401.71,308.67,401.71,308.67Z" style="fill:#BA68C8"></path><path d="M401.71,308.67l-2.86,23.79s24.64-9.35,31.11-14.14c7.28-5.4,2.93-7.94-5.58-9.28S401.71,308.67,401.71,308.67Z" style="opacity:0.1"></path><path d="M405.91,310c0,3.08-1.11,12.33-1.29,13.86-.1.81-.61,4-.7,4.82,0,.1-.16.06-.15,0,.16-1.54.17-3.09.32-4.64s1-11,1.7-14A.06.06,0,0,1,405.91,310Z" style="fill:#263238"></path><path d="M412,307.94c1.26-.17,2.51-.33,3.77-.46,0,0,0,0,0,0-.92.16-1.83.3-2.76.43,1.86,0,3.72.1,5.56.24,0,0,0,.05,0,.05-2.81.19-5.62.22-8.43.34s-5.51.19-8.26.26c-.15.53-.29,1.06-.42,1.6a.08.08,0,0,1-.16,0c0-.6.09-1.2.1-1.81a.28.28,0,0,1,.25-.29C405,308.05,408.51,307.92,412,307.94Z" style="fill:#263238"></path><path d="M388,263.92c-2.56-3.7-4.5-10.44-7.18-12.44a3.85,3.85,0,0,0-4.58-.18s.23-3.7-2.5-5.12c-1.41-.73-3.81.87-3.81.87s0-3-2.45-4.08c-2-.89-4.1.85-4.1.85s-1.28-2.88-3.61-3.13c-4.71-.51-14.09,15.73-9.55,21.69,2.11,2.78,4.19-1.31,4.19-1.31s-1.57,6.6,1.73,8.62,5.67-3.46,5.67-3.46-1.46,6.42,2.18,8.16,5.21-4.06,5.21-4.06.37,5,3.45,5.72c5.1,1.16,3.61-8.81,6.52-11.89l7,1.43Z" style="fill:#f7a9a0"></path><path d="M384.8,257.72c2.73,3.29,9.5,1.47,12.56,4.25,4.14,3.75-3.58,6.4-11.13,3.62l-5.49-3.2Z" style="fill:#f7a9a0"></path><path d="M363,244A0,0,0,1,0,363,244a32.44,32.44,0,0,0-8.66,17.3c0,.21.29.35.37.12A66.86,66.86,0,0,1,363,244Z" style="fill:#263238"></path><path d="M370,247c0-.06-.05-.13-.11-.07-4.49,4.75-8.14,12.05-8.27,19.46,0,.26.24.49.27.2C362.34,261.62,366.52,251.92,370,247Z" style="fill:#263238"></path><path d="M369.4,270.87c.41-7.1,3.05-13.35,6.69-19.39.05-.08-.07-.14-.13-.08-2.58,2.47-4.5,6.55-5.72,9.86a18.85,18.85,0,0,0-1.09,9.6C369.17,271,369.39,271,369.4,270.87Z" style="fill:#263238"></path></g><g id="freepik--character-1--inject-13"><path d="M216.51,454.31c-2.22.72-65.59-.1-68-1.67-.92-.58-1.34-9.82-1.52-21v-.35c0-2.3-.07-4.67-.07-7.08,0-.33,0-.66,0-1-.08-16.13.17-32.87.17-32.87l42.39.42-1.27,32.57,0,1.29-.26,6.74,0,.69s24.11,11.16,26.56,13.16S218.73,453.6,216.51,454.31Z" style="fill:#eb9481"></path><path d="M197.47,436.39c-.17,0-.25-.09-.26-.14Z" style="fill:#BA68C8"></path><path d="M216.51,454.31c-2.22.71-65.59-.1-68-1.67-.82-.51-1.25-7.87-1.46-17.35,11.61,2.42,56.61,11.52,57.84,7.68.49-1.52-3.36-4.13-5.79-5.61,6.65,3.17,14,6.8,15.31,7.86C216.85,447.21,218.74,453.6,216.51,454.31Z" style="fill:#BA68C8"></path><path d="M134.08,207.81s9.51,107.08,11.06,115.25c.36,1.86.58,12,.73,25,.33,28.38.13,79.58.13,79.58h44.67s-1.33-88.7-3.3-105-14.62-114.79-14.62-114.79Z" style="fill:#37474f"></path><path d="M188.65,419.84c-7-.14-5-.2-11.94-.27-3.41,0-25.83-.22-29,.3a.08.08,0,0,0,0,.15c3.18.52,25.6.33,29,.3,7-.07,5-.13,11.94-.27A.11.11,0,0,0,188.65,419.84Z" style="fill:#263238"></path><path d="M154.49,369.14l-.15-19.44c0-6.27,0-12.55-.33-18.82-.61-12.7-3.18-25.18-5-37.73s-3.36-25.16-4.75-37.77c-1.55-14.15-2.92-28.32-4.37-42.48,0-.1-.16-.1-.16,0,2.11,25.29,4.46,50.57,8,75.7q1.31,9.38,2.85,18.72c1,6.3,2.08,12.61,2.58,19s.56,12.5.63,18.75q.09,9.72.19,19.43c.14,14.38.28,36.51.42,50.9,0,.27.43.26.43,0C154.68,402.55,154.59,382,154.49,369.14Z" style="fill:#263238"></path><path d="M124.66,207.81s18.93,107.08,20.48,115.25c.36,1.86.58,12,.73,25v0l21.28-140.28Z" style="fill:#263238"></path><path d="M110.88,457.91c-2.31-.36-58.48-29.71-59.9-32.19-.56-.93,3.24-9.36,8.12-19.42l.16-.32c1-2.07,21.06-35.89,21.06-35.89l34.54,20.28L95.71,424.52l-.34.6s16.47,20.85,17.76,23.74S113.18,458.29,110.88,457.91Z" style="fill:#eb9481"></path><path d="M110.87,457.91c-2.31-.36-58.46-29.71-59.89-32.19-.48-.79,2.22-7.07,6.06-15.14,8.05,6.09,46.92,35.28,49.76,32.25.6-.65.15-2.16-.64-3.78,3.41,4.5,6.45,8.63,7,9.81C114.39,451.74,113.18,458.28,110.87,457.91Z" style="fill:#BA68C8"></path><path d="M100.67,423.27,59.74,398s47.35-67.75,47.58-73.77c.33-8.95,4.63-45.88,8.23-75.78,0,0-6.83-16.19,6-40.64h51.29s-3.44,23.27-9.32,38A68.11,68.11,0,0,0,152.06,251s-5.1,66.67-5.29,75C146.39,342.43,100.67,423.27,100.67,423.27Z" style="fill:#37474f"></path><path d="M103.18,413.82c-5.91-3.7-4.16-2.72-10.11-6.36-2.91-1.78-22-13.46-25-14.64-.06,0-.13.07-.07.12,2.46,2.09,21.8,13.43,24.74,15.15,6,3.53,4.33,2.45,10.38,5.9A.1.1,0,0,0,103.18,413.82Z" style="fill:#263238"></path><path d="M165.41,244.79A84.74,84.74,0,0,0,152.06,251a.15.15,0,0,0,.13.27c4.49-1.93,9.08-3.78,13.46-5.95A.3.3,0,0,0,165.41,244.79Z" style="fill:#263238"></path><path d="M159.13,237.36c.44-2.68.8-5.36,1-8.07a73.66,73.66,0,0,0-.16-15.14.13.13,0,0,0-.26,0,140.5,140.5,0,0,1-1.22,20.91c-.51,3.32-2.18,8.34,1.3,8.85s5.84-7.88,6.27-10.17a76.42,76.42,0,0,0,.75-19.81c0-.16-.28-.19-.28,0,0,5.34-.31,10-.76,15-.21,2.31-2.07,15.11-6.09,14.18-.67-.15-1-.82-1.12-1.83a16.6,16.6,0,0,1,.54-3.93" style="fill:#263238"></path><path d="M159.82,243.47a22.33,22.33,0,0,0-.9,2.65,6.07,6.07,0,0,0-.38,2.18c0,.14.21.15.28.06a7.6,7.6,0,0,0,.93-2.12c.31-.82.63-1.64.91-2.47A.45.45,0,0,0,159.82,243.47Z" style="fill:#263238"></path><path d="M127.53,211a46.89,46.89,0,0,0-3.85,8.44,51.73,51.73,0,0,0-2.28,9c-.29,1.52-.39,3.06-.56,4.59s-.18,3.09-.1,4.63a47.94,47.94,0,0,0,1.08,9.17v.1q-1.77,19.4-3.68,38.78t-3.82,38.78l-.12,1.21-.07.6a1.93,1.93,0,0,1-.12.66,19.6,19.6,0,0,1-1.18,2.25c-.82,1.41-1.67,2.8-2.52,4.18q-2.55,4.16-5.17,8.26c-3.48,5.48-7,10.92-10.56,16.36-7.08,10.89-14.28,21.7-21.49,32.5L94,357.65l10.39-16.46q2.59-4.12,5.14-8.27c.84-1.38,1.68-2.77,2.49-4.17.38-.68.82-1.44,1.08-2.05a1.47,1.47,0,0,0,.1-.53l.06-.61.12-1.21q1.84-19.38,3.82-38.75t4-38.73V247a48.44,48.44,0,0,1-1-9.29c-.07-1.56.09-3.12.16-4.67s.34-3.1.66-4.63a51.73,51.73,0,0,1,2.48-9A46.78,46.78,0,0,1,127.53,211Z" style="fill:#263238"></path><path d="M151.57,181.25s-1.45.57-3.63,1.2c.14-.8.29-1.59.44-2.39.43-2.43.85-4.85,1.23-7.27a0,0,0,1,0-.09,0q-.9,3.65-1.64,7.34c-.16.83-.33,1.67-.48,2.51-.67.18-1.39.37-2.16.55l.21-1c.36-1.61.7-3.21,1.05-4.81.67-3.15,1.25-6.32,1.92-9.48a.06.06,0,0,0-.12,0c-.73,3.14-1.55,6.26-2.28,9.4L145,181.86c-.11.48-.23,1-.34,1.43-1.09.24-2.23.45-3.4.6.05-.24.11-.48.16-.71.3-1.23.59-2.47.88-3.7.56-2.48,1-5,1.5-7.47a.05.05,0,1,0-.1,0q-.93,3.69-1.82,7.38c-.29,1.24-.59,2.47-.89,3.7-.07.29-.15.59-.23.88a20,20,0,0,1-6.58-.2l-.12,0a19.61,19.61,0,0,1-5.7-2.7c.92-3.66,1.67-7.37,2.55-11,0-.11-.13-.15-.15,0-.91,3.6-1.95,7.18-2.83,10.79a40.26,40.26,0,0,1-4-3.17c.22-1,.44-2,.65-3,.64-2.84,1.26-5.68,1.91-8.51,0-.05-.07-.07-.08,0-.74,2.81-1.5,5.62-2.25,8.43l-.72,2.64-.91-.85c1.16-5.39,2.21-10.82,3.58-16.16a0,0,0,0,0-.07,0c-1.35,5.24-2.81,10.45-4,15.73-1.41-1.36-2.27-2.35-2.27-2.35s7.9-52.6,17.06-61c7.55-7,15.43-3.3,15.43-3.3l.15,0s8.68.37,12.17,10C168.77,130.92,151.57,181.25,151.57,181.25Z" style="fill:#263238"></path><path d="M152.26,161.43c7.64,4.11,43,15,55.53,14.5,11.7-.43,37.39-14.25,38.6-18,1.16-3.55-5.37-25.42-9.21-24.31S210.47,151.32,205.44,152c-3,.4-31.25-.52-45.73,0C146.61,152.43,141.76,155.77,152.26,161.43Z" style="fill:#eb9481"></path><path d="M173.29,171.45l11.41-21s-26.27-.41-34,1.65c-8.73,2.32-5.64,6.28,1.75,10.65S173.29,171.45,173.29,171.45Z" style="fill:#BA68C8"></path><path d="M157.62,152a1.8,1.8,0,1,1-3.6,0,1.33,1.33,0,0,1,.07-.45c1-.14,2.14-.26,3.33-.36A1.7,1.7,0,0,1,157.62,152Zm10.76-1.37s0,0,0,0a1.8,1.8,0,1,0,3,1.37,1.76,1.76,0,0,0-.72-1.43s0,0,0,0Zm15.86-.12h-2a1.78,1.78,0,0,0-.82,1.5,1.8,1.8,0,0,0,1.5,1.78l1.62-3A1.19,1.19,0,0,0,184.24,150.46ZM149.5,160.9c.28.19.54.39.84.56A1.69,1.69,0,0,0,149.5,160.9Zm13.18-.09a1.8,1.8,0,1,0,1.8,1.8A1.81,1.81,0,0,0,162.68,160.81Zm13.7,0a1.8,1.8,0,1,0,1.8,1.8A1.81,1.81,0,0,0,176.38,160.81Z" style="fill:#fff"></path><path d="M179.37,151.39c-.51.67-4.17,7.15-4.93,8.58s-3.95,7.23-4.62,8.77c0,.06.06.12.1.06.94-1.38,4.17-7.23,5-8.66s4.29-7.94,4.57-8.7C179.49,151.37,179.4,151.35,179.37,151.39Z" style="fill:#263238"></path><path d="M176.85,164.91l-3.56,6.54s-13.48-4.31-20.87-8.68c-6.16-3.65-9.33-7-5.16-9.36Z" style="opacity:0.1"></path><path d="M171.82,198.41l1.55,12.09L121,208.85s2.64-38.63,17.74-53.2c7.56-7.28,15.86-6.21,20.85-.51,1.26,1.45,16.12,20.86,17.33,29.06C177.93,191.43,171.82,198.41,171.82,198.41Z" style="fill:#BA68C8"></path><path d="M143.92,152a1.81,1.81,0,0,1-1.8,1.81,1.7,1.7,0,0,1-.86-.23A16.45,16.45,0,0,1,143.92,152Zm10.22-.63a1.68,1.68,0,0,0-.12.63,1.81,1.81,0,0,0,1.8,1.81,1.74,1.74,0,0,0,1.44-.74A12.65,12.65,0,0,0,154.14,151.32Zm-25,19.94c-.45,1.11-.87,2.24-1.26,3.37a1.56,1.56,0,0,0,.57.1,1.8,1.8,0,0,0,1.8-1.81A1.78,1.78,0,0,0,129.1,171.26Zm13-.14a1.81,1.81,0,1,0,1.8,1.8A1.8,1.8,0,0,0,142.12,171.12Zm13.7,0a1.81,1.81,0,1,0,1.8,1.8A1.81,1.81,0,0,0,155.82,171.12Zm13.71,0a1.81,1.81,0,1,0,1.8,1.8A1.8,1.8,0,0,0,169.53,171.12Zm-34.27-10.31a1.72,1.72,0,0,0-1,.31l0,0c-.26.38-.5.75-.74,1.15v0a1.53,1.53,0,0,0,0,.3,1.8,1.8,0,1,0,1.8-1.8Zm13.71,0a1.8,1.8,0,1,0,1.8,1.8A1.81,1.81,0,0,0,149,160.81Zm13.71,0a1.8,1.8,0,1,0,1.8,1.8A1.81,1.81,0,0,0,162.68,160.81Zm-34.27,31.28a1.81,1.81,0,1,0,1.8,1.8A1.81,1.81,0,0,0,128.41,192.09Zm13.71,0a1.81,1.81,0,1,0,1.8,1.8A1.8,1.8,0,0,0,142.12,192.09Zm13.7,0a1.81,1.81,0,1,0,1.8,1.8A1.81,1.81,0,0,0,155.82,192.09Zm13.71,0a1.81,1.81,0,1,0,1.8,1.8A1.8,1.8,0,0,0,169.53,192.09Zm-34.26-10.31a1.8,1.8,0,1,0,1.8,1.8A1.81,1.81,0,0,0,135.27,181.78Zm13.7,0a1.8,1.8,0,1,0,1.8,1.8A1.81,1.81,0,0,0,149,181.78Zm13.71,0a1.8,1.8,0,1,0,1.8,1.8A1.81,1.81,0,0,0,162.68,181.78Zm14.2,2.42a14.29,14.29,0,0,0-.62-2.41,1.8,1.8,0,0,0,.12,3.59,1.73,1.73,0,0,0,.6-.11C177,184.92,176.93,184.56,176.88,184.2Zm-55.29,18.55c-.18,1.4-.31,2.6-.41,3.56h0a1.58,1.58,0,0,0,.38,0,1.81,1.81,0,0,0,0-3.61Zm13.68,0a1.8,1.8,0,1,0,1.8,1.8A1.81,1.81,0,0,0,135.27,202.75Zm13.7,0a1.8,1.8,0,1,0,1.8,1.8A1.81,1.81,0,0,0,149,202.75Zm13.71,0a1.8,1.8,0,1,0,1.8,1.8A1.81,1.81,0,0,0,162.68,202.75Z" style="fill:#fff"></path><path d="M163.13,194.31a56.9,56.9,0,0,0-8.32,1.19c-1.36.32-2.69.7-4,1.11-.66.2-1.33.38-2,.56a9.21,9.21,0,0,1-2.15.36.05.05,0,0,0,0,.1,17.71,17.71,0,0,0,2.06,0,16.19,16.19,0,0,0,2-.33c1.38-.31,2.75-.69,4.13-1,2.78-.65,5.55-1.31,8.37-1.76A.12.12,0,0,0,163.13,194.31Z" style="fill:#263238"></path><path d="M170,196.93a61.73,61.73,0,0,0-6.93-.48c-1.15,0-2.3.05-3.46.14q-.82.06-1.65.15c-.61.06-1.2.21-1.81.27-.06,0-.07.1,0,.1.57,0,1.15,0,1.73,0h5.19c2.31,0,4.62,0,6.93,0A.1.1,0,0,0,170,196.93Z" style="fill:#263238"></path><path d="M144.75,153c.27,1,5.4,7.58,10.11,7.21,1.54-.12,1.25-8.52,1.25-8.52l.12-.63,1.68-8.75-10.42-6.24-1.5-.82s-.3,2.42-.64,5.45c0,.14,0,.28,0,.43s-.05.33-.07.49c-.06.45-.11.91-.16,1.37s-.07.69-.1,1.06-.06.73-.1,1.1A58,58,0,0,0,144.75,153Z" style="fill:#eb9481"></path><path d="M157.91,142.3l-1.62,8.41a19.15,19.15,0,0,1-11-9.17l.1-.86c.35-3,.65-5.44.65-5.44l1.5.81Z" style="fill:#263238"></path><path d="M168.58,128.1c2.17,15.49-6.86,18.54-10.2,19-3,.43-13.42,1.48-17.18-13.71S144,112.3,150.84,111,166.41,112.61,168.58,128.1Z" style="fill:#eb9481"></path><path d="M166,126a9.94,9.94,0,0,1-1.08-.13,1.73,1.73,0,0,1-1.06-.35.54.54,0,0,1-.06-.67,1.37,1.37,0,0,1,1.33-.44,2,2,0,0,1,1.33.61A.59.59,0,0,1,166,126Z" style="fill:#263238"></path><path d="M155.38,126.61a9.37,9.37,0,0,0,1-.31,1.68,1.68,0,0,0,1-.52.54.54,0,0,0-.05-.67,1.38,1.38,0,0,0-1.39-.21,2,2,0,0,0-1.2.82A.59.59,0,0,0,155.38,126.61Z" style="fill:#263238"></path><path d="M157.86,129.51s-.07.06-.07.11c.15,1,.14,2.29-.78,2.74,0,0,0,.07,0,.06C158.18,132.13,158.17,130.49,157.86,129.51Z" style="fill:#263238"></path><path d="M156.8,128.51c-1.72.05-1.48,3.48.11,3.43S158.24,128.46,156.8,128.51Z" style="fill:#263238"></path><path d="M156.14,128.74c-.29.21-.56.57-.92.64s-.75-.27-1.05-.6c0,0-.06,0-.06,0,0,.66.34,1.32,1,1.37s1.07-.57,1.19-1.24C156.37,128.82,156.25,128.65,156.14,128.74Z" style="fill:#263238"></path><path d="M163.81,129s.09,0,.09.09c0,1.06.29,2.27,1.28,2.55a0,0,0,0,1,0,.06C164,131.6,163.69,130,163.81,129Z" style="fill:#263238"></path><path d="M164.67,127.78c1.69-.26,2.1,3.15.53,3.4S163.24,128,164.67,127.78Z" style="fill:#263238"></path><path d="M165.41,127.92c.29.15.59.45.92.43s.61-.42.8-.8c0,0,.05,0,.06,0,.1.65,0,1.35-.65,1.55s-1-.32-1.28-.95C165.22,128.06,165.29,127.86,165.41,127.92Z" style="fill:#263238"></path><path d="M159.25,138.19c.29.21.59.51,1,.49a2.75,2.75,0,0,0,1.1-.43,0,0,0,0,1,.05.05,1.41,1.41,0,0,1-1.25.76,1.13,1.13,0,0,1-1-.81C159.13,138.19,159.21,138.16,159.25,138.19Z" style="fill:#263238"></path><path d="M158.52,135.4a3.53,3.53,0,0,0,2.58,1.19,4.24,4.24,0,0,0,1.27-.14l.24-.06.22-.07a.29.29,0,0,0,.17-.26h0l0-.1h0l0-.09c-.1-.8-.37-2-.37-2,.32.1,1.9.53,1.81.12a53,53,0,0,0-3-10.39.09.09,0,0,0-.18,0c.58,3.29,1.74,6.46,2.38,9.76a6.19,6.19,0,0,0-1.74-.25c-.1,0,.56,2.3.57,2.66a0,0,0,0,1,0,0,4.91,4.91,0,0,1-3.8-.56C158.51,135.25,158.44,135.33,158.52,135.4Z" style="fill:#263238"></path><path d="M141.36,132.51c3.7-.15,3.38-6,3.38-6s4.17-.59,4.14-7.38a10.27,10.27,0,0,0,8,4.53c1.21.12-3-2.8-3-2.8s5.06,4.13,13.95,2c.63-.15-1.2-9.56-8.41-12.43s-13.47-.72-17.6,4a8.54,8.54,0,0,0-4.19,6.89C137.28,126.22,139.92,132.57,141.36,132.51Z" style="fill:#263238"></path><path d="M143.83,134.24s-3.67-4.7-5.82-3.37.79,8.27,3.44,9.1a2.65,2.65,0,0,0,3.47-1.61Z" style="fill:#eb9481"></path><path d="M138.91,132.84a0,0,0,0,0,0,.07c1.86.64,2.9,2.28,3.67,4a1.47,1.47,0,0,0-2.21-.29s0,.11.06.1a1.63,1.63,0,0,1,1.82.47,7.74,7.74,0,0,1,.93,1.4c.09.16.38.06.31-.13l0,0C143.39,136.1,141.41,132.94,138.91,132.84Z" style="fill:#263238"></path><path d="M143.21,139.16a.78.78,0,0,1-.73.82.77.77,0,0,1-.81-.73.76.76,0,0,1,.72-.81A.78.78,0,0,1,143.21,139.16Z" style="fill:#fff"></path><polygon points="145.62 128.88 139.06 128.86 139.21 127.12 145.68 127.91 145.62 128.88" style="fill:#BA68C8"></polygon><polygon points="145.89 127.23 139.44 126.04 139.9 124.36 146.12 126.28 145.89 127.23" style="fill:#BA68C8"></polygon><rect x="193.89" y="135.16" width="87.99" height="95.84" transform="translate(431.37 412.59) rotate(-167.71)" style="fill:#fff"></rect><path d="M184.7,220.54l86,18.57-.19.12,20.3-93.66.2.3-86-18.8.2-.13Zm0,0,20.23-93.68,0-.16.17,0,86,18.65.25.05-.06.25L270.83,239.3l0,.16-.16,0Z" style="fill:#dbdbdb"></path><rect x="198.33" y="140" width="79.11" height="86.17" transform="matrix(-0.98, -0.21, 0.21, -0.98, 431.37, 412.59)" style="fill:#BA68C8"></rect><rect x="198.33" y="140" width="79.11" height="86.17" transform="matrix(-0.98, -0.21, 0.21, -0.98, 431.37, 412.59)" style="fill:#fff;opacity:0.6000000000000001"></rect><polygon points="221.62 194.56 273.41 205.83 253.16 174.28 221.62 194.56" style="fill:#BA68C8"></polygon><polygon points="221.62 194.56 273.41 205.83 253.16 174.28 221.62 194.56" style="fill:#fff;opacity:0.2"></polygon><polygon points="196.11 189.03 242.04 199.03 222.75 177.15 196.11 189.03" style="fill:#BA68C8"></polygon><rect x="192.11" y="197.08" width="79.11" height="29.14" transform="translate(50.34 -44.45) rotate(12.29)" style="fill:#BA68C8"></rect><path d="M227.92,158.24a7.25,7.25,0,1,1-5.54-8.62A7.25,7.25,0,0,1,227.92,158.24Z" style="fill:#fff;opacity:0.6000000000000001"></path><path d="M139.34,167c.68,8.3,6.73,46.12,17,56.1,6.28,6.12,39.72,7.89,48,7.9,3.59,0,5-23.87,2.17-26.43s-33.93-2.66-36.55-3.84c0,0-12.38-23-19-35.28C144.69,153.89,138.07,151.51,139.34,167Z" style="fill:#eb9481"></path><path d="M228.52,207.12c4.48-.23,10.2-4.24,11.34-1.1,1,2.8-3.21,5.19-3.21,5.19s5.64-1.16,5.88,2.16-4.93,5-4.93,5,4.65-1.17,4.65,2.15-4.14,5.56-4.14,5.56,1.56.58.51,2.93c-1.51,3.36-9.25,5.29-13.53,5.34s-20-2.95-22.37-3.45l-.54-27.46s7.57-3.59,11.63-4.95,18.68-2.1,19.11,1.52-9.9,4-12.41,4.6-2.79,1.33-1.43,1.92C220,206.92,226.53,207.22,228.52,207.12Z" style="fill:#eb9481"></path><path d="M236.4,211.22c-6.13,2.92-9.32,3.13-16,2.34-.13,0-.18.17,0,.2,6.43,1.37,10.46,1.68,16.15-2.25C236.83,211.32,236.69,211.08,236.4,211.22Z" style="fill:#263238"></path><path d="M237.83,218.18c-6.63,2.47-10.09,2.74-17.1,2.42-.09,0-.11.16,0,.17,6.85.89,10.88,1.11,17.18-2.23C238.18,218.39,238.13,218.07,237.83,218.18Z" style="fill:#263238"></path><path d="M238,226.05c-6.59,1.93-10.36,2.38-17.13,1.2a.13.13,0,0,0-.06.25c6.79,1.87,11.5,1.34,17.23-1.24C238.45,226.08,238.44,225.93,238,226.05Z" style="fill:#263238"></path><path d="M161.35,180.84l-19.11,14.34s-4.22-25.93-3.31-33.91c1-9,5.39-6.49,10.79.19S161.35,180.84,161.35,180.84Z" style="fill:#BA68C8"></path><path d="M142.12,171.12a1.81,1.81,0,1,0,1.8,1.8A1.8,1.8,0,0,0,142.12,171.12Zm14,0a1.12,1.12,0,0,0-.32,0,1.81,1.81,0,0,0,0,3.61,1.77,1.77,0,0,0,1.68-1.18C157.07,172.78,156.61,172,156.14,171.16Zm-6.42-9.7c-.17-.21-.34-.42-.52-.62a.61.61,0,0,0-.23,0,1.8,1.8,0,0,0,0,3.6,1.78,1.78,0,0,0,1.78-1.62C150.4,162.32,150.06,161.88,149.72,161.46Zm-7.6,30.63a1.42,1.42,0,0,0-.36,0c.29,1.9.48,3.05.48,3.05l1.68-1.26v0A1.81,1.81,0,0,0,142.12,192.09ZM149,181.78a1.8,1.8,0,1,0,1.8,1.8A1.81,1.81,0,0,0,149,181.78Z" style="fill:#fff"></path><path d="M142.38,189.77c.59-.6,6.47-5.16,7.77-6.12s6.58-5,8-5.84c.07,0,.14,0,.08.09-1.23,1.13-6.54,5.17-7.84,6.18s-7.23,5.39-7.95,5.79C142.38,189.9,142.34,189.81,142.38,189.77Z" style="fill:#263238"></path><path d="M159.83,182c.54-.48,1.42-1.18,1.42-1.18-1.2-2.5-8.4-14.6-10.08-17.55,0,0,0-.08.07,0q1.59,2.42,3.15,4.83c-.1-.22-.19-.44-.28-.67-.34-.8-.65-1.6-1-2.39,0-.06.06-.12.09-.06a20.5,20.5,0,0,1,1.18,2.34c.23.57.42,1.15.61,1.74.59.93,1.18,1.85,1.75,2.8,1.73,2.91,3.64,5.87,5.15,8.9a12.93,12.93,0,0,1-2,1.42C159.81,182.15,159.75,182,159.83,182Z" style="fill:#263238"></path><path d="M144.09,193.8c-.57.52-1.17,1-1.75,1.51l-.19.16-.07-.25a76.08,76.08,0,0,1-1.75-9.32c-.2-1.57-.38-3.14-.47-4.72s-.19-3.15-.18-4.74c.27,1.56.48,3.13.71,4.69l.67,4.67,1.34,9.35-.26-.1C142.79,194.63,143.43,194.2,144.09,193.8Z" style="fill:#263238"></path><path d="M140.26,182.39a4.22,4.22,0,0,1-1-1.67,4.66,4.66,0,0,1-.22-.95,3.58,3.58,0,0,1,0-1,10.28,10.28,0,0,1,.72,1.77A18.7,18.7,0,0,1,140.26,182.39Z" style="fill:#263238"></path><path d="M240.78,122.68A4,4,0,0,1,244.9,125s1.81-3.37,5-3.14c1.63.12,2.87,2.83,2.87,2.83s1.57-2.63,4.37-2.25c2.24.3,3.15,3,3.15,3s2.68-1.83,4.86-.79c4.42,2.1,3.85,21.46-3.36,24.24-3.37,1.3-3-3.42-3-3.42s-2.21,6.65-6.2,6.63-3.11-6.11-3.11-6.11-2.2,6.42-6.34,6c-4.31-.45-2.38-6.4-2.38-6.4s-3,4.22-6.13,3.16c-5.11-1.74,2.13-10.85,1.24-15.13l-7.88-2S237.34,123,240.78,122.68Z" style="fill:#eb9481"></path><path d="M260.47,125.81c0-.07.09-.08.1,0a33.58,33.58,0,0,1-1.76,19.91c-.09.2-.45.14-.4-.1A68.37,68.37,0,0,0,260.47,125.81Z" style="fill:#263238"></path><path d="M252.8,124.6c0-.07.12-.08.13,0,1.37,6.61.62,15-3.28,21.59-.13.23-.48.3-.34,0C251.57,141.64,253.15,130.85,252.8,124.6Z" style="fill:#263238"></path><path d="M240.34,145.94c3.49-6.46,4.56-13.39,4.63-20.67,0-.09.14-.08.16,0,.93,3.57.4,8.2-.32,11.77a19.28,19.28,0,0,1-4.25,9C240.48,146.17,240.26,146.08,240.34,145.94Z" style="fill:#263238"></path></g></svg>