<svg xmlns="http://www.w3.org/2000/svg" viewBox="0 0 500 500"><g id="freepik--background-complete--inject-70"><rect y="382.4" width="500" height="0.25" style="fill:#ebebeb"></rect><rect x="416.78" y="398.49" width="33.12" height="0.25" style="fill:#ebebeb"></rect><rect x="239.64" y="395.44" width="30.22" height="0.25" style="fill:#ebebeb"></rect><rect x="345.89" y="389.21" width="69.89" height="0.25" style="fill:#ebebeb"></rect><rect x="52.46" y="390.89" width="167.14" height="0.25" style="fill:#ebebeb"></rect><rect x="228.5" y="390.89" width="6.33" height="0.25" style="fill:#ebebeb"></rect><path d="M237,337.8H43.91a5.71,5.71,0,0,1-5.7-5.71V60.66A5.71,5.71,0,0,1,43.91,55H237a5.71,5.71,0,0,1,5.71,5.71V332.09A5.71,5.71,0,0,1,237,337.8ZM43.91,55.2a5.46,5.46,0,0,0-5.45,5.46V332.09a5.46,5.46,0,0,0,5.45,5.46H237a5.47,5.47,0,0,0,5.46-5.46V60.66A5.47,5.47,0,0,0,237,55.2Z" style="fill:#ebebeb"></path><path d="M453.31,337.8H260.21a5.72,5.72,0,0,1-5.71-5.71V60.66A5.72,5.72,0,0,1,260.21,55h193.1A5.71,5.71,0,0,1,459,60.66V332.09A5.71,5.71,0,0,1,453.31,337.8ZM260.21,55.2a5.47,5.47,0,0,0-5.46,5.46V332.09a5.47,5.47,0,0,0,5.46,5.46h193.1a5.47,5.47,0,0,0,5.46-5.46V60.66a5.47,5.47,0,0,0-5.46-5.46Z" style="fill:#ebebeb"></path><rect x="172.78" y="72.58" width="231.24" height="148.67" transform="translate(576.79 293.83) rotate(180)" style="fill:#f0f0f0"></rect><rect x="170.7" y="72.58" width="2.08" height="148.67" style="fill:#e6e6e6"></rect><rect x="220.06" y="37.3" width="136.67" height="219.24" transform="translate(435.31 -141.48) rotate(90)" style="fill:#fafafa"></rect><rect x="244.81" y="254.25" width="29.05" height="128.15" style="fill:#e6e6e6"></rect><polygon points="264.63 382.4 273.86 382.4 273.86 364.71 254.96 364.71 264.63 382.4" style="fill:#fafafa"></polygon><rect x="50.57" y="254.25" width="29.05" height="128.15" style="fill:#e6e6e6"></rect><rect x="71.58" y="254.25" width="202.28" height="122.06" style="fill:#fafafa"></rect><polygon points="80.8 382.4 71.58 382.4 71.58 364.71 90.47 364.71 80.8 382.4" style="fill:#fafafa"></polygon><rect x="78.73" y="299.74" width="187.97" height="30.55" style="fill:#f0f0f0"></rect><rect x="78.73" y="336.81" width="187.97" height="30.55" style="fill:#f0f0f0"></rect><path d="M92.55,297.09H252.88a0,0,0,0,1,0,0V299a4,4,0,0,1-4,4H96.56a4,4,0,0,1-4-4v-1.91A0,0,0,0,1,92.55,297.09Z" style="fill:#fafafa"></path><rect x="78.73" y="262.66" width="187.97" height="30.55" style="fill:#f0f0f0"></rect><path d="M92.55,260H252.88a0,0,0,0,1,0,0v1.91a4,4,0,0,1-4,4H96.56a4,4,0,0,1-4-4V260a0,0,0,0,1,0,0Z" style="fill:#fafafa"></path><path d="M92.55,334.16H252.88a0,0,0,0,1,0,0v1.91a4,4,0,0,1-4,4H96.56a4,4,0,0,1-4-4v-1.91A0,0,0,0,1,92.55,334.16Z" style="fill:#fafafa"></path><path d="M400.11,255.93c8.14-13.05,33.3-48.68,75.2-67.4.59-.26.11-.91-.53-.71a60.89,60.89,0,0,0-6.23,2.37c-.52.23-1.12-.21-.77-.57a98.68,98.68,0,0,1,10.42-9.12c.46-.35-.2-.88-.76-.6a56.3,56.3,0,0,0-11.16,7.26c-.45.38-1.29,0-.93-.46,1.09-1.3,2.31-2.68,3.66-4.1.38-.39-.38-.84-.87-.51a43.47,43.47,0,0,0-14.76,16.36l-.06,0A86.08,86.08,0,0,1,464,180.25c.31-.41-.48-.81-.92-.46a55.9,55.9,0,0,0-8.16,7.66c-.37.42-1.29.08-1-.38s.72-1.14,1.11-1.71-.52-.78-1-.44a58.4,58.4,0,0,0-9.91,10.24c-.34.44-1.27.15-1-.32a124.21,124.21,0,0,1,7.09-12.49c.28-.42-.53-.79-.95-.43-14.45,12.1-19.12,29.13-20.32,34.74h0a135.8,135.8,0,0,1,9.95-31.24c.21-.44-.65-.74-1-.35A58.23,58.23,0,0,0,428,199.16c-.23.47-1.24.27-1.09-.22.67-2.12,1.43-4.28,2.29-6.44.18-.45-.68-.72-1-.33a67.71,67.71,0,0,0-12.29,21c-.18.49-1.24.32-1.1-.18a69.77,69.77,0,0,1,3.16-9.28c.18-.43-.63-.71-1-.35a37.26,37.26,0,0,0-9.07,13.82c-.19.48-1.2.34-1.12-.16.44-2.48,1-5,1.72-7.63.12-.44-.72-.67-1.05-.28a38.24,38.24,0,0,0-8.2,17.88c-.09.5-1.13.45-1.13-.05a75.35,75.35,0,0,1,.85-11.12c.07-.45-.8-.63-1.08-.22-10.95,15.62-3.66,38-3.52,38.39h0l.7,1.69C395.76,257.39,399.1,257.55,400.11,255.93Z" style="fill:#f5f5f5"></path><path d="M381.24,256.68c-6.25-8-25.11-29.62-52.82-37.48-.39-.12-.15-.62.27-.56a34.25,34.25,0,0,1,4.08.88c.34.1.67-.28.42-.48a58.53,58.53,0,0,0-7.29-5c-.32-.19,0-.63.41-.5a32.36,32.36,0,0,1,7.59,3.66c.32.21.8-.18.54-.43-.8-.77-1.68-1.57-2.65-2.39-.27-.22.16-.63.5-.46a27.14,27.14,0,0,1,10.65,9.53l0,0a56.9,56.9,0,0,0-8.27-11.32c-.23-.25.22-.62.53-.44A34,34,0,0,1,341,216c.27.25.81-.1.59-.38s-.55-.7-.84-1.05.25-.61.55-.42a36.47,36.47,0,0,1,7.09,5.88c.24.26.8-.05.61-.35a83.81,83.81,0,0,0-5.54-7.77c-.21-.26.25-.61.55-.42,10.07,6.62,14.52,17.82,15.78,21.56h0a97.26,97.26,0,0,0-9-20.4c-.16-.28.34-.59.6-.36a37.53,37.53,0,0,1,7.36,8.54c.19.3.79,0,.65-.28-.61-1.38-1.27-2.78-2-4.18-.15-.28.35-.57.61-.34a44.89,44.89,0,0,1,9.53,13c.17.32.81.08.68-.26a51.31,51.31,0,0,0-2.81-6c-.15-.27.32-.57.59-.36a24.33,24.33,0,0,1,6.89,8.45c.16.31.78.09.68-.24-.5-1.66-1.08-3.37-1.76-5.07-.12-.29.38-.55.62-.32a26.16,26.16,0,0,1,6.72,11.37c.11.33.75.17.7-.18a58.24,58.24,0,0,0-1.54-7.58c-.08-.3.44-.53.65-.29,8.22,9.48,5.73,25.81,5.68,26.12h0l-.27,1.25A1.92,1.92,0,0,1,381.24,256.68Z" style="fill:#fafafa"></path><path d="M379.62,243c-6.9-10.64-28.15-39.65-62.85-54.65-.49-.21-.11-.74.42-.58a48.92,48.92,0,0,1,5.15,1.88c.44.19.92-.18.62-.47a81.67,81.67,0,0,0-8.7-7.39c-.38-.29.15-.72.61-.5a46.56,46.56,0,0,1,9.29,5.86c.37.31,1,0,.75-.38-.92-1.06-1.94-2.18-3.07-3.33-.32-.33.29-.7.7-.43a36.15,36.15,0,0,1,12.39,13.29l.05,0a71.39,71.39,0,0,0-9-14.88c-.26-.33.37-.66.75-.38a47.21,47.21,0,0,1,6.82,6.21c.31.34,1.06.06.82-.32s-.61-.92-.94-1.39.41-.65.77-.37a48.29,48.29,0,0,1,8.31,8.31c.28.36,1,.11.85-.27a107.79,107.79,0,0,0-6-10.18c-.24-.35.41-.65.77-.36,12.06,9.8,16.19,23.72,17.26,28.32h0a112.19,112.19,0,0,0-8.7-25.54c-.17-.36.52-.61.83-.3a48.24,48.24,0,0,1,8.27,11.46c.2.39,1,.22.89-.19-.59-1.73-1.25-3.49-2-5.26-.15-.36.55-.59.84-.27a56.15,56.15,0,0,1,10.44,17.11c.16.41,1,.26.91-.15a59.37,59.37,0,0,0-2.76-7.58c-.15-.36.5-.6.82-.3a31,31,0,0,1,7.69,11.25c.15.39,1,.27.91-.13-.41-2-.91-4.13-1.54-6.25-.11-.36.58-.55.85-.24a31.67,31.67,0,0,1,7,14.6c.08.41.94.36.93,0a62.35,62.35,0,0,0-.89-9.12c-.07-.37.64-.52.88-.19,9.25,12.73,3.66,31.12,3.55,31.46v0l-.54,1.39C383.21,244.17,380.48,244.33,379.62,243Z" style="fill:#e6e6e6"></path><path d="M409.41,245.13c6.27-5.17,24.74-19,47.55-23.48.32-.06.23-.4-.11-.37a29.38,29.38,0,0,0-3.3.47c-.29.05-.48-.21-.24-.33a62.13,62.13,0,0,1,6.54-3.16c.28-.12.08-.42-.23-.35a35.24,35.24,0,0,0-6.52,2.23c-.28.13-.58-.14-.34-.3.76-.48,1.58-1,2.48-1.51.25-.15,0-.42-.3-.32a27.81,27.81,0,0,0-9.94,6h0a55.94,55.94,0,0,1,8.43-7.3c.22-.16-.06-.41-.33-.3a35.63,35.63,0,0,0-5.22,2.71c-.26.16-.61-.09-.39-.27s.55-.45.84-.68-.08-.4-.35-.29a37.73,37.73,0,0,0-6.53,3.72c-.24.16-.61-.06-.41-.25,1.64-1.6,3.55-3.31,5.68-5,.21-.17-.09-.41-.35-.29A41.14,41.14,0,0,0,430.25,230h0a84.09,84.09,0,0,1,10.66-13.3c.18-.19-.15-.4-.39-.26a37.77,37.77,0,0,0-7.23,5.48c-.2.19-.62,0-.45-.21.72-.9,1.48-1.81,2.3-2.72.17-.19-.17-.39-.41-.25a43.69,43.69,0,0,0-9.72,8.4c-.18.21-.63,0-.47-.19a45.74,45.74,0,0,1,3.26-3.93c.17-.18-.15-.39-.39-.26a24,24,0,0,0-6.85,5.43c-.18.2-.62,0-.48-.18.69-1.09,1.45-2.2,2.28-3.32.14-.19-.2-.37-.43-.23a24.09,24.09,0,0,0-7.24,7.38c-.14.21-.61.09-.51-.14a43.9,43.9,0,0,1,2.56-5c.12-.2-.24-.36-.44-.2-8.07,6.07-9.11,17-9.12,17.2h0l0,.84C407.14,245.38,408.63,245.77,409.41,245.13Z" style="fill:#e6e6e6"></path><path d="M402,250.85c-1.4-12.17-3-46.25,17.77-72.38.29-.37-.44-.72-.81-.38a32,32,0,0,0-3.33,3.56c-.26.33-1,.17-.91-.2a53.72,53.72,0,0,1,2.59-9.87c.14-.4-.65-.6-.91-.23a29.16,29.16,0,0,0-4.23,8.67c-.12.42-1,.35-1-.08.07-1.29.2-2.68.4-4.13.06-.41-.78-.53-.95-.14a26.18,26.18,0,0,0-1.68,16.57l0,0a61.78,61.78,0,0,1-2.52-16.81c0-.4-.82-.47-1-.08a31,31,0,0,0-1.72,8.11c0,.43-.93.43-1,0s-.11-1.07-.16-1.61-.84-.44-1,0A33.4,33.4,0,0,0,400,192.42c0,.42-.88.47-1,.05A90.36,90.36,0,0,1,397.2,181c0-.4-.85-.44-1-.05-3.91,13.27,2.4,27.44,4.74,32h0a121.13,121.13,0,0,1-10.54-26.4c-.1-.4-.91-.37-1,0a38.06,38.06,0,0,0,.75,13.41c.09.43-.78.56-1,.15-.72-1.79-1.39-3.63-2-5.51-.13-.39-.93-.35-1,0-.62,6.41.83,13.29,2.86,19.35.15.43-.75.6-.94.18a62.88,62.88,0,0,1-3-7.89c-.11-.38-.88-.36-1,0a25.21,25.21,0,0,0,1.14,13c.14.42-.71.61-.93.21-1.1-2-2.16-4.09-3.11-6.25-.17-.37-.93-.29-1,.09-.32,5.58,1.54,11,4.15,15.84.21.4-.6.66-.89.28a83.68,83.68,0,0,1-5.78-8.63c-.21-.35-1-.24-.94.15.77,14.92,19.16,29.66,19.51,29.94h0l1.5,1.08C399.52,253.2,402.12,252.36,402,250.85Z" style="fill:#e0e0e0"></path><path d="M421.92,235.43a9.33,9.33,0,0,1,9.32,9.74c-1.24,27.24-7.41,36.66-37.77,36.66s-36.53-9.42-37.76-36.66a9.32,9.32,0,0,1,9.32-9.74Z" style="fill:#ebebeb"></path><path d="M80.19,238.25c-3.74-8.05-15.29-30.05-34.53-41.6a.25.25,0,0,1,.25-.43,21.55,21.55,0,0,1,2.86,1.46.26.26,0,0,0,.35-.36,53.57,53.57,0,0,0-4.78-5.63c-.21-.21.09-.54.34-.37a26.44,26.44,0,0,1,5.13,4.49c.21.23.59,0,.43-.29-.5-.8-1.06-1.65-1.68-2.53-.18-.24.17-.52.4-.31a26.12,26.12,0,0,1,6.77,10.1l0,0a60.43,60.43,0,0,0-4.88-11.26c-.15-.25.21-.5.42-.28A31,31,0,0,1,55,196c.17.27.6.05.47-.23L55,194.69c-.13-.25.23-.48.43-.26A33.66,33.66,0,0,1,60,200.74c.15.27.58.1.47-.19-.89-2.41-2-5-3.25-7.71a.26.26,0,0,1,.43-.27c6.64,7.47,8.78,18,9.33,21.45h0a106.14,106.14,0,0,0-4.57-19.28.26.26,0,0,1,.46-.22,37.8,37.8,0,0,1,4.49,8.69c.11.29.58.17.51-.13-.31-1.31-.66-2.64-1.05-4-.09-.27.31-.44.47-.2a46.86,46.86,0,0,1,5.64,13c.09.3.57.2.51-.11A57.31,57.31,0,0,0,72,206c-.09-.26.28-.44.46-.21a24.71,24.71,0,0,1,4.16,8.52.27.27,0,0,0,.52-.09c-.21-1.53-.46-3.11-.79-4.71a.26.26,0,0,1,.48-.18,28,28,0,0,1,3.76,11,.26.26,0,0,0,.52,0,60.42,60.42,0,0,0-.38-6.87.26.26,0,0,1,.49-.13c5,9.64,1.68,23.43,1.62,23.69h0l-.31,1A1.26,1.26,0,0,1,80.19,238.25Z" style="fill:#f5f5f5"></path><path d="M90,238.59c2.24-5.51,9.2-20.52,21.19-28a.18.18,0,0,0-.16-.31,12.32,12.32,0,0,0-1.79.93c-.15.1-.33-.1-.23-.25a33.5,33.5,0,0,1,2.94-3.79c.13-.15-.06-.38-.22-.27a15.86,15.86,0,0,0-3.18,3c-.12.16-.37,0-.27-.21.3-.54.64-1.12,1-1.71.11-.17-.12-.37-.25-.23a16.78,16.78,0,0,0-4.13,6.85h0a41,41,0,0,1,2.92-7.71c.08-.17-.15-.35-.28-.21a19.54,19.54,0,0,0-2.29,3.19c-.1.18-.37,0-.3-.17l.31-.73c.07-.17-.16-.34-.28-.19a21.48,21.48,0,0,0-2.78,4.27c-.09.19-.37.05-.31-.15.53-1.65,1.17-3.45,1.94-5.28.08-.18-.16-.35-.28-.2-4.08,5-5.27,12.29-5.56,14.69h0a76.64,76.64,0,0,1,2.6-13.32c.05-.19-.2-.32-.3-.16a25.33,25.33,0,0,0-2.71,5.93c-.06.2-.36.1-.32-.11.18-.9.38-1.82.61-2.74,0-.19-.21-.32-.31-.15a32.08,32.08,0,0,0-3.36,8.87c-.05.22-.36.13-.33-.09.21-1.27.48-2.6.83-4,0-.18-.19-.31-.29-.16A16.81,16.81,0,0,0,91.88,222c0,.2-.34.13-.32-.08.1-1.06.24-2.16.43-3.27,0-.18-.22-.29-.31-.13a19.65,19.65,0,0,0-2.21,7.59.17.17,0,0,1-.33,0,45.59,45.59,0,0,1,.14-4.78c0-.19-.24-.28-.31-.11-3,6.59-.71,16.29-.67,16.47h0l.21.74A.78.78,0,0,0,90,238.59Z" style="fill:#f5f5f5"></path><path d="M89.6,230.28c3.17-6.57,12.92-24.48,28.85-33.73a.2.2,0,0,0-.19-.36,18.94,18.94,0,0,0-2.36,1.16.21.21,0,0,1-.29-.29,43.1,43.1,0,0,1,4-4.56.21.21,0,0,0-.28-.31,21.76,21.76,0,0,0-4.27,3.62c-.17.19-.48,0-.34-.24.42-.66.89-1.35,1.41-2a.22.22,0,0,0-.33-.27,21.48,21.48,0,0,0-5.68,8.21l0,0a50,50,0,0,1,4.15-9.18c.13-.21-.17-.41-.34-.24a25.83,25.83,0,0,0-3.13,3.83c-.14.22-.49,0-.38-.19s.28-.58.43-.86a.21.21,0,0,0-.35-.23,27.62,27.62,0,0,0-3.82,5.13.21.21,0,0,1-.39-.17c.76-2,1.68-4.11,2.77-6.28a.21.21,0,0,0-.35-.23c-5.54,6.05-7.43,14.65-7.93,17.49h0a86.75,86.75,0,0,1,4-15.76.22.22,0,0,0-.38-.19,31.53,31.53,0,0,0-3.79,7.08.21.21,0,0,1-.41-.12c.27-1.07.57-2.15.91-3.25a.21.21,0,0,0-.38-.17,38.49,38.49,0,0,0-4.8,10.57.21.21,0,0,1-.41-.1,44.3,44.3,0,0,1,1.26-4.68.21.21,0,0,0-.38-.18,20.35,20.35,0,0,0-3.52,6.94.21.21,0,0,1-.42-.08c.18-1.25.42-2.55.71-3.85a.22.22,0,0,0-.4-.15,23,23,0,0,0-3.23,9,.21.21,0,0,1-.42,0,50.36,50.36,0,0,1,.4-5.63.21.21,0,0,0-.4-.12c-4.25,7.86-1.68,19.21-1.63,19.42h0l.25.86A1,1,0,0,0,89.6,230.28Z" style="fill:#e6e6e6"></path><path d="M75.92,231.59c-2.88-3.19-11.36-11.73-21.83-14.5-.15,0-.1-.24,0-.23a12.69,12.69,0,0,1,1.52.3.12.12,0,0,0,.11-.21,25.71,25.71,0,0,0-3-1.95.12.12,0,0,1,.11-.21,13.45,13.45,0,0,1,3,1.37c.13.08.27-.08.16-.18-.35-.3-.73-.62-1.14-.94-.12-.09,0-.26.14-.19a12.9,12.9,0,0,1,4.56,3.73h0a30.33,30.33,0,0,0-3.87-4.5.12.12,0,0,1,.15-.19,16.3,16.3,0,0,1,2.4,1.67c.11.1.28-.05.18-.16l-.39-.42c-.1-.1,0-.25.16-.18a17,17,0,0,1,3,2.29c.11.1.28,0,.19-.15-.76-1-1.63-2.05-2.61-3.1-.1-.1,0-.25.16-.18,4.12,2.55,6.63,7.07,7.38,8.58h0a52.62,52.62,0,0,0-4.9-8.21.12.12,0,0,1,.18-.16A18.92,18.92,0,0,1,65,217.25c.09.12.29,0,.21-.12-.33-.56-.68-1.12-1.06-1.68a.13.13,0,0,1,.19-.16,23.3,23.3,0,0,1,4.46,5.19c.09.12.29,0,.22-.12-.44-.79-.93-1.61-1.5-2.43-.08-.11.07-.24.18-.16a12.62,12.62,0,0,1,3.15,3.35A.12.12,0,0,0,71,221c-.32-.67-.67-1.36-1-2-.07-.11.09-.23.19-.14a13.72,13.72,0,0,1,3.33,4.55c.07.14.28.06.23-.08a30.11,30.11,0,0,0-1.17-3.08.12.12,0,0,1,.2-.13c3.71,3.75,4.18,10.49,4.19,10.61h0v.52A.6.6,0,0,1,75.92,231.59Z" style="fill:#e6e6e6"></path><path d="M79.35,235.12c.64-7.52,1.38-28.55-8.16-44.68-.14-.23.2-.44.37-.23a18.32,18.32,0,0,1,1.53,2.2.22.22,0,0,0,.41-.13,42.84,42.84,0,0,0-1.18-6.09c-.07-.24.3-.37.42-.14a21.45,21.45,0,0,1,1.94,5.35.22.22,0,0,0,.44-.05q0-1.2-.18-2.55a.23.23,0,0,1,.44-.09,21.44,21.44,0,0,1,.77,10.23v0a50.1,50.1,0,0,0,1.15-10.37.22.22,0,0,1,.44,0,25.35,25.35,0,0,1,.79,5,.23.23,0,0,0,.45,0c0-.33.05-.66.07-1a.23.23,0,0,1,.45,0,27.33,27.33,0,0,1,.71,6.52.23.23,0,0,0,.45,0c.36-2.16.68-4.56.85-7.07a.23.23,0,0,1,.45,0c1.79,8.19-1.11,16.93-2.18,19.76h0a90.11,90.11,0,0,0,4.84-16.29.22.22,0,0,1,.44,0,31.66,31.66,0,0,1-.34,8.28c0,.26.36.34.43.09.33-1.11.64-2.24.92-3.4a.22.22,0,0,1,.44,0,39.12,39.12,0,0,1-1.31,11.94c-.07.27.34.37.43.12A49.3,49.3,0,0,0,87,207.66a.23.23,0,0,1,.44,0,20.54,20.54,0,0,1-.52,8,.22.22,0,0,0,.43.12c.5-1.23,1-2.52,1.43-3.85a.23.23,0,0,1,.44.05,23.75,23.75,0,0,1-1.91,9.78c-.1.24.28.41.41.17a53.81,53.81,0,0,0,2.65-5.32.22.22,0,0,1,.43.09c-.35,9.21-8.79,18.31-9,18.48h0l-.68.66A1.06,1.06,0,0,1,79.35,235.12Z" style="fill:#e0e0e0"></path><path d="M66.12,225.6a5.75,5.75,0,0,0-5.75,6c.76,16.81,4.57,22.62,23.31,22.62s22.54-5.81,23.3-22.62a5.75,5.75,0,0,0-5.75-6Z" style="fill:#ebebeb"></path><rect x="321.99" y="281.83" width="123.25" height="5.1" transform="translate(767.22 568.75) rotate(180)" style="fill:#f5f5f5"></rect><rect x="296.17" y="281.83" width="25.82" height="5.1" style="fill:#e0e0e0"></rect><polygon points="309.08 286.93 310.16 286.93 322.65 382.4 321.57 382.4 309.08 286.93" style="fill:#e0e0e0"></polygon><polygon points="309.08 286.93 308 286.93 295.51 382.4 296.59 382.4 309.08 286.93" style="fill:#e0e0e0"></polygon><polygon points="432.33 286.93 433.41 286.93 445.89 382.4 444.81 382.4 432.33 286.93" style="fill:#e0e0e0"></polygon><polygon points="432.33 286.93 431.25 286.93 418.76 382.4 419.84 382.4 432.33 286.93" style="fill:#e0e0e0"></polygon></g><g id="freepik--Shadow--inject-70"><ellipse id="freepik--path--inject-70" cx="250" cy="416.24" rx="193.89" ry="11.32" style="fill:#f5f5f5"></ellipse></g><g id="freepik--Character--inject-70"><path d="M397.65,143.67c-2.5-3.34-10.39-6.25-14.46-1.33-5.43,6.57,1.14,9.06-1.45,15.07s-1.66,8.76-.25,11.6-.83,3.17-1,8,4.75,6,8.67,5.17c-2.17-2.26,1.75-2.51,5.33-5.67S405.15,150.25,397.65,143.67Z" style="fill:#263238"></path><path d="M392.91,412a39.86,39.86,0,0,0-8.64,1.87,37.49,37.49,0,0,1-9.09,2.16c-3.44.45-3.29,3.68,2.75,3.68s9.93-.63,12.39-.63,4,.08,4.2-1.58S395,411.69,392.91,412Z" style="fill:#263238"></path><path d="M379.14,238.23s2.83,62.23,3.37,87.43c.57,26.22,4.57,87.44,4.57,87.44h6.61s6.81-50.88,3.68-87.44c4.73-28.07,7.92-87.43,7.92-87.43Z" style="fill:#ffc3bd"></path><path d="M387.08,412.5c-3.48,1.76-7.39,2.43-8.92,3.22s15.53-1.05,15.53-2.62Z" style="fill:#ffc3bd"></path><path d="M436.23,408.53c-1.82,1.2-2.67.69-4.28,2.54s-3.28,4.61-6.23,5.53c-2.4.75-2.53,3.17,1.81,3.07s9.43-3.4,10.85-4.44,2.13-1.57,1.42-3.08S437.49,407.71,436.23,408.53Z" style="fill:#263238"></path><path d="M431.89,411.5c0,.74-2.71,3.52-1,3.22,3.07-.55,6.93-4,6.35-5.37Z" style="fill:#ffc3bd"></path><path d="M387.91,238.23s15.76,65.17,22.2,89.54c6.77,25.59,21,82.11,21.83,83.84l5.26-2.26s-3.6-63.07-12.66-85.8c0-28.46-11.84-85.32-11.84-85.32Z" style="fill:#ffc3bd"></path><path d="M381.89,199.42c-.3,2.92-.76,5.66-1.25,8.47s-1.13,5.56-1.81,8.33a75.69,75.69,0,0,1-5.92,16.38l-.06.12a3.65,3.65,0,0,1-1,1.23,7.81,7.81,0,0,1-3.12,1.34,9.2,9.2,0,0,1-2.79.1,16.09,16.09,0,0,1-4.32-1.16,35.43,35.43,0,0,1-6.65-3.77c-2-1.43-3.88-2.94-5.69-4.5s-3.51-3.21-5.17-5a2.1,2.1,0,0,1,2.74-3.16l0,0c1.84,1.28,3.74,2.59,5.65,3.79s3.83,2.4,5.77,3.42a33.43,33.43,0,0,0,5.75,2.53,8.31,8.31,0,0,0,2.44.45,2.29,2.29,0,0,0,.67-.08c.11,0,.08-.08,0-.06l-1.1,1.34a65.64,65.64,0,0,0,2.64-7.26c.75-2.52,1.39-5.09,2-7.69s1.08-5.25,1.55-7.89.88-5.35,1.23-7.91v-.07a4.23,4.23,0,0,1,8.39,1Z" style="fill:#ffc3bd"></path><path d="M377.69,188.2c-9.55,4-7.95,17.66-7.95,17.66a68.34,68.34,0,0,0,14.87,7.5C389.11,206,388.54,183.67,377.69,188.2Z" style="fill:#263238"></path><path d="M346.43,222.66l-8.34.39,5.12-6.67s5.24.8,6.39,4Z" style="fill:#ffc3bd"></path><polygon points="332.43 219.03 337.01 213.68 343.2 216.38 338.09 223.05 332.43 219.03" style="fill:#ffc3bd"></polygon><path d="M374.21,197.7c-.34,6,.24,19.1,4.45,45h35.09c-.5-12.15.05-23.51,4.77-45.58a8.53,8.53,0,0,0-7.26-10.26c-2.24-.28-4.63-.52-6.86-.63a107.54,107.54,0,0,0-15.24,0c-3.29.3-5.36.63-8,1.05C376.18,188.06,374.46,193.22,374.21,197.7Z" style="fill:#407BFF"></path><path d="M389.16,186.23H404.4A182.42,182.42,0,0,1,389,198.31,10.34,10.34,0,0,1,389.16,186.23Z" style="fill:#fff"></path><path d="M402.89,169.07c-1,4.9-1.92,13.89,1.51,17.16,0,0-7.11,7.52-14.94,9.35-4.88-3-.3-9.35-.3-9.35,5.46-1.31,5.32-5.36,4.37-9.17Z" style="fill:#ffc3bd"></path><path d="M399.07,172.33l-5.53,4.72a17.29,17.29,0,0,1,.47,2.71c2.08-.31,4.95-2.6,5.18-4.79A7.22,7.22,0,0,0,399.07,172.33Z" style="opacity:0.2"></path><path d="M408.06,160.07c-1.92,8-2.57,11.39-7.37,14.81-7.23,5.14-16.6,1-17.1-7.36-.45-7.55,2.77-19.32,11.23-21.13A11.19,11.19,0,0,1,408.06,160.07Z" style="fill:#ffc3bd"></path><path d="M409.18,164.62a6.1,6.1,0,0,1-3.25,3.23c-1.95.78-3.16-.91-2.81-2.87.32-1.76,1.71-4.3,3.76-4.25A2.7,2.7,0,0,1,409.18,164.62Z" style="fill:#ffc3bd"></path><path d="M419.54,131c-.08-4.83-5.75-4.6-5.75-4.6s1.92-1.65-3.53-4.82-10.47.84-7.87,4.09c-5.33-.59-4.93,6.66-1.1,7.25,0,0-3.16,4.41,3,7.58l7,4.27c8.75-1.23,6.17-7.52,6.17-7.52S419.63,135.83,419.54,131Z" style="fill:#263238"></path><path d="M400.38,139.38c-1.46-2.38,2.83-3.75,7.79-1.88s7.66,9,3.08,9.42C403,142.13,400.38,139.38,400.38,139.38Z" style="fill:#407BFF"></path><path d="M392.7,142.75c-9.36,3.25,2.42,11.43,9.76,12.5-5,3.82,0,8.51-2.77,11.88s-1.35,9.54,6,6.87,12-13.35,9.37-17.5-.13-5.65-3.28-12.08C408.39,137.5,383,132.33,392.7,142.75Z" style="fill:#263238"></path><path d="M394,160.16c-.11.66-.55,1.13-1,1.05s-.69-.67-.57-1.33.56-1.12,1-1S394.07,159.5,394,160.16Z" style="fill:#263238"></path><path d="M386.53,158.85c-.11.65-.55,1.12-1,1.05s-.69-.67-.57-1.33.56-1.13,1-1S386.65,158.19,386.53,158.85Z" style="fill:#263238"></path><path d="M386.15,157.59l-1.5-.73S385.25,158.23,386.15,157.59Z" style="fill:#263238"></path><path d="M388.3,160.32a17.94,17.94,0,0,1-3.09,3.78,2.89,2.89,0,0,0,2.27.85Z" style="fill:#ed847e"></path><path d="M391.4,168a6.38,6.38,0,0,1-1.12-.1.19.19,0,0,1-.16-.22.2.2,0,0,1,.23-.16,5.31,5.31,0,0,0,4.6-1.28.19.19,0,0,1,.28.26A5.43,5.43,0,0,1,391.4,168Z" style="fill:#263238"></path><path d="M397.22,157.17A.39.39,0,0,1,397,157a3.12,3.12,0,0,0-2.54-1.25.39.39,0,0,1-.43-.35.4.4,0,0,1,.36-.43,3.92,3.92,0,0,1,3.22,1.55.39.39,0,0,1-.06.55A.4.4,0,0,1,397.22,157.17Z" style="fill:#263238"></path><path d="M385.15,154.74a.39.39,0,0,1,0-.72,3.89,3.89,0,0,1,3.57,0,.39.39,0,0,1-.4.68,3.08,3.08,0,0,0-2.83,0A.35.35,0,0,1,385.15,154.74Z" style="fill:#263238"></path><path d="M393.57,158.9l-1.5-.73S392.67,159.54,393.57,158.9Z" style="fill:#263238"></path><path d="M378.66,242.7l1.44,87.47,46.47-8.34c1.8-45.74-6.08-69.44-12.82-79.13Z" style="fill:#263238"></path><polygon points="393.47 295.25 399.01 277.21 394.21 263.57 393.47 295.25" style="opacity:0.2"></polygon><path d="M419.42,193.81c1,2.13,1.84,4.18,2.68,6.3s1.64,4.22,2.37,6.37a106.58,106.58,0,0,1,3.77,13.24c.21,1.17.48,2.29.62,3.49l.25,1.77.15,1.83.07.92a8,8,0,0,1-.09,1.6,8.1,8.1,0,0,1-1,2.78,12.45,12.45,0,0,1-3.09,3.43,26.07,26.07,0,0,1-6.59,3.55,39.83,39.83,0,0,1-6.79,1.92,2.11,2.11,0,0,1-1.38-3.94l.1,0c1.84-1,3.75-2,5.49-3.15a24.4,24.4,0,0,0,4.59-3.56,4.93,4.93,0,0,0,1.15-1.64.55.55,0,0,0,0-.36s0,0,0-.05l-.1-.74a54.34,54.34,0,0,0-1.19-6c-1.06-4.06-2.41-8.15-3.9-12.2s-3.13-8.12-4.8-12l0,0a4.23,4.23,0,0,1,7.71-3.46Z" style="fill:#ffc3bd"></path><path d="M411.89,187c10.14,1.42,13,14.64,13,14.64a59.16,59.16,0,0,1-11,11.39C407.16,206.92,400.38,185.36,411.89,187Z" style="fill:#263238"></path><path d="M411.37,236.72l-8.91.59,5.83,6.05s5.13-1.38,5.91-4.72Z" style="fill:#ffc3bd"></path><path d="M399.57,242l2.51,3.54a1.54,1.54,0,0,0,2,.45l5.46-3.06-7.1-5.61L399.75,240A1.55,1.55,0,0,0,399.57,242Z" style="fill:#ffc3bd"></path></g><g id="freepik--Dashboard--inject-70"><path d="M352.3,114.13a14.61,14.61,0,0,0-14.37-13.49v-1a15.63,15.63,0,0,1,15.37,14.43Z" style="fill:#407BFF"></path><rect x="353.11" y="123.33" width="1" height="6.57" transform="matrix(1, -0.06, 0.06, 1, -7.4, 22.96)" style="fill:#407BFF"></rect><path d="M348.94,274.19H85.74A12.11,12.11,0,0,1,73.87,263L64.3,114.3a10.37,10.37,0,0,1,10.44-11.16H337.93a12.11,12.11,0,0,1,11.88,11.16L359.38,263A10.37,10.37,0,0,1,348.94,274.19Z" style="fill:#407BFF"></path><path d="M345.08,268.51H130.39a10,10,0,0,1-9.76-9.17L112.7,136.07a8.52,8.52,0,0,1,8.58-9.17H336a9.94,9.94,0,0,1,9.76,9.17l7.93,123.27A8.51,8.51,0,0,1,345.08,268.51Z" style="fill:#fff"></path><path d="M145.3,117.81H115a3.82,3.82,0,0,1-3.74-3.51h0a3.27,3.27,0,0,1,3.29-3.52h30.26a3.81,3.81,0,0,1,3.74,3.52h0A3.26,3.26,0,0,1,145.3,117.81Z" style="fill:#fff"></path><path d="M185.59,117.81H165.5a3.8,3.8,0,0,1-3.73-3.51h0a3.26,3.26,0,0,1,3.28-3.52h20.09a3.8,3.8,0,0,1,3.73,3.52h0A3.25,3.25,0,0,1,185.59,117.81Z" style="fill:#fff"></path><path d="M225.87,117.81H205.79a3.82,3.82,0,0,1-3.74-3.51h0a3.27,3.27,0,0,1,3.29-3.52h20.08a3.82,3.82,0,0,1,3.74,3.52h0A3.27,3.27,0,0,1,225.87,117.81Z" style="fill:#fff"></path><path d="M77.71,265.21h-.07a2.25,2.25,0,0,1-2.21-2.09L65.85,114.21a1.92,1.92,0,0,1,2-2.08h.06a2.25,2.25,0,0,1,2.22,2.08l9.58,148.91A1.94,1.94,0,0,1,77.71,265.21Z" style="fill:#fff;opacity:0.2"></path><path d="M328.52,119.61a5.73,5.73,0,0,1-5.64-5.28,5,5,0,0,1,5-5.35,5.73,5.73,0,0,1,5.63,5.28h0a5,5,0,0,1-1.33,3.79A5,5,0,0,1,328.52,119.61Zm-.63-9.7a4,4,0,0,0-4.08,4.35,4.79,4.79,0,0,0,4.71,4.42,4,4,0,0,0,4.07-4.35h0A4.77,4.77,0,0,0,327.89,109.91Z" style="fill:#fff"></path><path d="M314.34,119.61a5.73,5.73,0,0,1-5.63-5.28,5,5,0,0,1,5-5.35,5.73,5.73,0,0,1,5.63,5.28h0a5,5,0,0,1-5,5.35Zm-.62-9.7a4,4,0,0,0-4.08,4.35,4.79,4.79,0,0,0,4.7,4.42,4,4,0,0,0,4.08-4.35h0A4.79,4.79,0,0,0,313.72,109.91Z" style="fill:#fff"></path><path d="M99.78,111.71a3.1,3.1,0,0,1,3,2.83l9.67,150.33a2.5,2.5,0,0,1-2.53,2.71H91.3a3.1,3.1,0,0,1-3-2.83L78.62,114.42a2.5,2.5,0,0,1,2.53-2.71H99.78m0-.93H81.15a3.44,3.44,0,0,0-3.46,3.7l9.67,150.33a4,4,0,0,0,3.94,3.7h18.63a3.43,3.43,0,0,0,3.46-3.7l-9.67-150.33a4,4,0,0,0-3.94-3.7Z" style="fill:#fff;opacity:0.2"></path><path d="M168.48,197.7H132.71a4.82,4.82,0,0,1-4.73-4.43l-2.86-44.47a4.14,4.14,0,0,1,4.16-4.44H165a4.83,4.83,0,0,1,4.73,4.44l2.86,44.47A4.12,4.12,0,0,1,168.48,197.7Z" style="fill:#407BFF;opacity:0.30000000000000004"></path><path d="M152.42,163c.81,0,1.61,0,2.43,0h.33l-.27-4.21c-.43,0-.89-.11-1.34-.13-.84,0-1.67-.08-2.5-.06a5.76,5.76,0,0,0-3.45,1.09,4.85,4.85,0,0,0-1.89,3.51,13.67,13.67,0,0,0,0,1.81c0,1,.12,1.89.18,2.84l0,.35h-4l.31,4.71h4l.75,11.61h4.92l-.77-11.6h4c.11-1.56.21-3.11.32-4.72h-4.65s-.14-2.34-.18-3.35C150.52,163.47,151.31,163.05,152.42,163Z" style="fill:#fff;fill-rule:evenodd"></path><path d="M223.54,197.7H187.77a4.82,4.82,0,0,1-4.73-4.43l-2.86-44.47a4.14,4.14,0,0,1,4.16-4.44H220.1a4.83,4.83,0,0,1,4.73,4.44l2.86,44.47A4.11,4.11,0,0,1,223.54,197.7Z" style="fill:#407BFF;opacity:0.30000000000000004"></path><path d="M199.91,175.57a4.92,4.92,0,0,1-4.41-3.13,4.37,4.37,0,0,0,1.94-.06l.06,0a4.88,4.88,0,0,1-3.07-2.07,4.69,4.69,0,0,1-.81-2.4,4.64,4.64,0,0,0,2,.55,4.92,4.92,0,0,1-2-2.74,4.35,4.35,0,0,1,.27-3.27,13.9,13.9,0,0,0,9.62,4.72c0-.18-.08-.34-.11-.5a4.23,4.23,0,0,1,.47-2.95,4,4,0,0,1,2.93-2,4.63,4.63,0,0,1,4,1.26.24.24,0,0,0,.25.07,8.35,8.35,0,0,0,2.56-1l.06,0h0A4.24,4.24,0,0,1,212,164.4a8.31,8.31,0,0,0,2.47-.68l0,0c-.16.23-.31.46-.47.68a8.13,8.13,0,0,1-1.54,1.56.13.13,0,0,0-.07.14,12.17,12.17,0,0,1,0,2,12.44,12.44,0,0,1-.9,4,11.82,11.82,0,0,1-2.21,3.56,11.18,11.18,0,0,1-6,3.46,13.89,13.89,0,0,1-2.5.3,13.46,13.46,0,0,1-7.34-1.94l-.12-.07a8.9,8.9,0,0,0,4.48-.62A8.32,8.32,0,0,0,199.91,175.57Z" style="fill:#fff;fill-rule:evenodd"></path><path d="M278.6,197.7H242.83a4.82,4.82,0,0,1-4.73-4.43l-2.86-44.47a4.14,4.14,0,0,1,4.16-4.44h35.76a4.82,4.82,0,0,1,4.73,4.44l2.86,44.47A4.11,4.11,0,0,1,278.6,197.7Z" style="fill:#407BFF;opacity:0.9"></path><path d="M270.22,164.64a6.79,6.79,0,0,0-2.17-4,7,7,0,0,0-4.45-1.76,85.09,85.09,0,0,0-11.69.13,5.49,5.49,0,0,0-4.82,4.59c-.44,2,.27,11.29.73,13.28A6.52,6.52,0,0,0,252.9,182c1.9.48,11.06.42,13.1.08a5.5,5.5,0,0,0,4.87-4.73C271.28,175.29,270.53,166.5,270.22,164.64Zm-1.42,11.81a3.7,3.7,0,0,1-3.53,3.58c-1.9.21-10.41.32-12.21-.17a4.24,4.24,0,0,1-3.16-3.35,80.1,80.1,0,0,1-.77-11.93,3.69,3.69,0,0,1,3.52-3.56,83.85,83.85,0,0,1,11.65,0,4.34,4.34,0,0,1,3.8,3.77A84,84,0,0,1,268.8,176.45Zm-10.22-12a5.62,5.62,0,0,0-5.68,6.06,6.56,6.56,0,0,0,6.45,6.07,5.62,5.62,0,0,0,5.68-6.06A6.56,6.56,0,0,0,258.58,164.46Zm.6,10a4.23,4.23,0,0,1-4.14-3.95,3.63,3.63,0,0,1,3.7-3.89,4.24,4.24,0,0,1,4.14,4A3.63,3.63,0,0,1,259.18,174.44Zm7.1-10.21a1.32,1.32,0,0,1-1.33,1.42,1.54,1.54,0,0,1-1.51-1.42,1.32,1.32,0,0,1,1.33-1.42A1.53,1.53,0,0,1,266.28,164.23Z" style="fill:#fff"></path><path d="M333.66,197.7H297.89a4.8,4.8,0,0,1-4.72-4.43L290.3,148.8a4.14,4.14,0,0,1,4.16-4.44h35.76A4.82,4.82,0,0,1,335,148.8l2.86,44.47A4.11,4.11,0,0,1,333.66,197.7Z" style="fill:#407BFF;opacity:0.30000000000000004"></path><path d="M305.23,179.7a3.22,3.22,0,0,1-2.07-1.89c-1-2.32-1.87-12-.37-13.95a2.92,2.92,0,0,1,2-1.13c4.36-.47,17.91-.41,19.5.16a3.29,3.29,0,0,1,2,1.84c1.08,2.4,1.67,11.14.74,13.45a2.71,2.71,0,0,1-1.28,1.39C324.26,180.42,307.43,180.41,305.23,179.7Zm6.67-4.55,7.63-4.09-8.16-4.12C311.55,169.68,311.72,172.4,311.9,175.15Z" style="fill:#fff;fill-rule:evenodd"></path><path d="M276.57,210.26a6.87,6.87,0,0,1,6.75,6.34l2.37,36.81a5.86,5.86,0,0,1-1.55,4.4,5.8,5.8,0,0,1-4.27,1.82H139.52a6.86,6.86,0,0,1-6.74-6.34l-2.37-36.81a5.76,5.76,0,0,1,5.82-6.22H276.57m0-.93H136.23a6.7,6.7,0,0,0-6.75,7.21l2.37,36.81a7.82,7.82,0,0,0,7.67,7.21H279.87a6.7,6.7,0,0,0,6.74-7.21l-2.36-36.81a7.83,7.83,0,0,0-7.68-7.21Z" style="fill:#407BFF"></path><g style="opacity:0.2"><rect x="156.06" y="209.74" width="0.8" height="50.41" transform="translate(-14.76 10.53) rotate(-3.68)" style="fill:#407BFF"></rect><rect x="181.85" y="209.74" width="0.8" height="50.41" transform="translate(-14.71 12.18) rotate(-3.68)" style="fill:#407BFF"></rect><rect x="207.65" y="209.74" width="0.8" height="50.41" transform="translate(-14.65 13.84) rotate(-3.68)" style="fill:#407BFF"></rect><rect x="233.44" y="209.74" width="0.8" height="50.41" transform="translate(-14.6 15.5) rotate(-3.68)" style="fill:#407BFF"></rect><rect x="259.24" y="209.74" width="0.8" height="50.41" transform="translate(-14.55 17.15) rotate(-3.68)" style="fill:#407BFF"></rect></g><path d="M143,249.69a9.13,9.13,0,0,1-5.65-2.41c-.76-.65-1.48-1.34-2.19-2a27.29,27.29,0,0,0-3.66-3.12l.52-.78a30.23,30.23,0,0,1,3.79,3.22c.69.67,1.4,1.35,2.14,2,1.79,1.51,4.46,2.8,6.61,1.9s2.83-3.45,3.09-4.91c.12-.71.21-1.44.28-2.15a17.18,17.18,0,0,1,.9-4.43,7.52,7.52,0,0,1,5.06-4.62,7,7,0,0,1,6.8,2.06,14.41,14.41,0,0,1,2.32,4.28c.87,2.17,1.69,4.21,3.66,4.81a3.09,3.09,0,0,0,2.57-.35,7.38,7.38,0,0,0,3-4.78,37.18,37.18,0,0,0,.55-5.7,30.85,30.85,0,0,1,.9-7.15,10.29,10.29,0,0,1,5-6.21,6.28,6.28,0,0,1,5.11-.34c2.87,1.07,4.4,3.94,5,5.55a32.87,32.87,0,0,1,1.24,4c.26,1,.53,2,.88,3a21.13,21.13,0,0,0,5.66,8.58,6.48,6.48,0,0,0,2.25,1.48c2.81.9,5.22-2,6.42-3.86,1.41-2.17,3.57-5.47,6.92-5.22,2.37.16,4.25,2.1,5.4,3.69.36.49.69,1,1,1.51a15.3,15.3,0,0,0,2.78,3.45c1.47,1.24,3.76,1.83,5.06.65a5.09,5.09,0,0,0,1.24-2.91l.27-1.45c.62-3.49,1.27-7.1,3.57-9.76,1.26-1.46,3.37-2.37,5-1.3a4.85,4.85,0,0,1,1.6,2.21c.27.6.53,1.19.79,1.79a32.15,32.15,0,0,0,3.77,7c1.78,2.28,4.85,4.59,8.12,4.19a13.52,13.52,0,0,0,3.15-.94c1.68-.66,3.41-1.34,5.29-.84a9.51,9.51,0,0,1,4,2.76c.41.4.83.8,1.26,1.17a5.44,5.44,0,0,0,3.64,1.42,1.89,1.89,0,0,0,1.33-.65,4.34,4.34,0,0,0,.63-2.67c.16-4,.67-8.49,3.32-11.86,2.48-3.16,7.39-4.83,11.32-2.17l-.53.77c-3.47-2.36-7.84-.85-10.06,2-2.48,3.16-3,7.49-3.12,11.31a5.18,5.18,0,0,1-.85,3.24,2.78,2.78,0,0,1-2,1,6.32,6.32,0,0,1-4.31-1.63c-.45-.38-.88-.8-1.31-1.22a8.9,8.9,0,0,0-3.61-2.53c-1.59-.41-3.11.18-4.73.81a13.93,13.93,0,0,1-3.37,1c-3.67.43-7-2.06-9-4.54a32.4,32.4,0,0,1-3.89-7.23l-.78-1.77a4.15,4.15,0,0,0-1.27-1.83c-1.29-.86-3,.21-3.76,1.14-2.13,2.47-2.76,6-3.36,9.31-.09.49-.17,1-.27,1.46a5.94,5.94,0,0,1-1.52,3.44c-1.68,1.51-4.52.86-6.29-.64a16.69,16.69,0,0,1-3-3.65c-.33-.5-.65-1-1-1.47-1-1.43-2.7-3.17-4.72-3.31-2.6-.17-4.42,2.27-6.07,4.8-2.31,3.54-5,5-7.48,4.23a7.32,7.32,0,0,1-2.6-1.67,22.17,22.17,0,0,1-5.91-9c-.36-1-.63-2.07-.9-3.08a31.69,31.69,0,0,0-1.2-3.85c-.6-1.47-2-4.09-4.51-5a5.37,5.37,0,0,0-4.37.3,9.5,9.5,0,0,0-4.49,5.64,30.23,30.23,0,0,0-.86,6.93,38.38,38.38,0,0,1-.57,5.85A8.35,8.35,0,0,1,169.7,244a4.06,4.06,0,0,1-3.32.44c-2.39-.72-3.34-3.08-4.26-5.35a13.92,13.92,0,0,0-2.14-4,6.06,6.06,0,0,0-5.88-1.77,6.61,6.61,0,0,0-4.43,4.06,16.06,16.06,0,0,0-.83,4.19c-.08.72-.17,1.48-.29,2.21-.51,2.85-1.8,4.84-3.65,5.61A4.94,4.94,0,0,1,143,249.69Z" style="fill:#407BFF"></path><path d="M332.86,255h-26.8a7.21,7.21,0,0,1-7.07-6.64l-1.72-26.8a6.17,6.17,0,0,1,6.21-6.64h26.8a7.21,7.21,0,0,1,7.07,6.64l1.72,26.8A6.17,6.17,0,0,1,332.86,255Z" style="fill:#407BFF"></path><path d="M319.24,226.56l2.19,3.94a1,1,0,0,0,.73.5l4.43.64a1,1,0,0,1,.57,1.68l-2.86,3a1,1,0,0,0-.26.93l1,4.12a1,1,0,0,1-1.43,1.12l-3.88-2a1,1,0,0,0-.93,0l-3.72,2a1,1,0,0,1-1.47-1l.46-4.35a1,1,0,0,0-.31-.84l-3.3-3a1,1,0,0,1,.54-1.73l4.08-.6a1,1,0,0,0,.77-.59l1.61-3.76A1,1,0,0,1,319.24,226.56Z" style="fill:#fff"></path></g></svg>