<!--?xml version="1.0" standalone="no"?-->
              <svg id="sw-js-blob-svg" viewBox="0 0 100 100" xmlns="http://www.w3.org/2000/svg" version="1.1">
                    <defs> 
                        <linearGradient id="sw-gradient" x1="0" x2="1" y1="1" y2="0">
                            <stop id="stop1" stop-color="rgba(55, 93.8, 248, 0.12)" offset="0%"></stop>
                            <stop id="stop2" stop-color="rgba(93.516, 123.701, 239.561, 0.12)" offset="100%"></stop>
                        </linearGradient>
                    </defs>
                <path fill="url(#sw-gradient)" d="M25,-30.2C30.1,-25.5,30.4,-15.4,32.3,-5.5C34.3,4.4,37.9,14.2,35.3,22C32.7,29.7,23.9,35.5,14.6,38C5.4,40.4,-4.3,39.4,-12.2,35.7C-20.1,31.9,-26.2,25.3,-32.1,17.4C-37.9,9.5,-43.5,0.4,-43.1,-8.6C-42.7,-17.6,-36.3,-26.6,-28.1,-30.8C-19.9,-35,-10,-34.4,0,-34.4C9.9,-34.4,19.9,-35,25,-30.2Z" width="100%" height="100%" transform="translate(50 50)" stroke-width="0" style="transition: all 0.3s ease 0s;"></path>
              </svg>