<!--?xml version="1.0" standalone="no"?-->
              <svg id="sw-js-blob-svg" viewBox="0 0 100 100" xmlns="http://www.w3.org/2000/svg" version="1.1">
                    <defs> 
                        <linearGradient id="sw-gradient" x1="0" x2="1" y1="1" y2="0">
                            <stop id="stop1" stop-color="rgba(55, 93.8, 248, 0.12)" offset="0%"></stop>
                            <stop id="stop2" stop-color="rgba(93.516, 123.701, 239.561, 0.36)" offset="100%"></stop>
                        </linearGradient>
                    </defs>
                <path fill="url(#sw-gradient)" d="M27.8,-32.1C35.3,-26.9,39.9,-17.4,41,-7.7C42.1,1.9,39.7,11.7,34.6,19.4C29.5,27.1,21.7,32.7,13.4,35C5.1,37.3,-3.9,36.2,-13.2,33.8C-22.6,31.5,-32.4,27.9,-36.7,20.9C-41.1,14,-40,3.6,-37.6,-6.1C-35.2,-15.7,-31.6,-24.5,-25.1,-29.8C-18.6,-35.2,-9.3,-37,0.4,-37.5C10.2,-38,20.4,-37.2,27.8,-32.1Z" width="100%" height="100%" transform="translate(50 50)" stroke-width="0" style="transition: all 0.3s ease 0s;"></path>
              </svg>