<svg version="1.2" xmlns="http://www.w3.org/2000/svg" viewBox="0 0 500 500" width="500" height="500">
	<title>strategy-content1-svg</title>
	<style>
		.s0 { fill: #ebebeb } 
		.s1 { fill: #e6e6e6 } 
		.s2 { fill: #f0f0f0 } 
		.s3 { fill: #fafafa } 
		.s4 { fill: #f5f5f5 } 
		.s5 { fill: #ffffff } 
		.s6 { fill: #407bff } 
		.s7 { opacity: .2;fill: #000000 } 
		.s8 { fill: #ffb573 } 
		.s9 { fill: #263238 } 
		.s10 { opacity: .3;fill: #000000 } 
		.s11 { fill: #ed893e } 
	</style>
	<g id="freepik--background-complete--inject-67">
		<path id="Layer" class="s0" d="m0 382.4h500v0.3h-500z"/>
		<path id="Layer" class="s0" d="m414.4 391.9h33.1v0.3h-33.1z"/>
		<path id="Layer" class="s0" d="m320.2 389.2h26.4v0.3h-26.4z"/>
		<path id="Layer" class="s0" d="m364.1 397.8h45.9v0.3h-45.9z"/>
		<path id="Layer" class="s0" d="m50.1 399.5h21.6v0.3h-21.6z"/>
		<path id="Layer" class="s0" d="m76.6 399.5h31.9v0.3h-31.9z"/>
		<path id="Layer" class="s0" d="m167.7 395.3h55.1v0.3h-55.1z"/>
		<path id="Layer" fill-rule="evenodd" class="s0" d="m260.8 337.4q-1-0.5-1.8-1.3-0.8-0.8-1.3-1.8-0.4-1.1-0.4-2.2v-271.4q0-1.1 0.4-2.2 0.5-1 1.3-1.8 0.8-0.8 1.8-1.3 1.1-0.4 2.2-0.4h193.1q1.1 0 2.2 0.4 1 0.5 1.8 1.3 0.8 0.8 1.2 1.8 0.5 1 0.5 2.2v271.4q0 1.1-0.4 2.2-0.5 1-1.3 1.8-0.8 0.8-1.8 1.3-1.1 0.4-2.2 0.4h-193.1q-1.1 0-2.2-0.4zm2.2-282.2q-1.1 0-2.1 0.4-1 0.4-1.8 1.2-0.7 0.8-1.1 1.8-0.5 1-0.5 2.1v271.4q0 1.1 0.5 2.1 0.4 1 1.1 1.7 0.8 0.8 1.8 1.2 1 0.4 2.1 0.4l193.1 0.1q1.1-0.1 2.1-0.5 1-0.4 1.7-1.2 0.8-0.7 1.2-1.7 0.4-1 0.4-2.1v-271.4q0-1.1-0.4-2.1-0.4-1-1.2-1.8-0.7-0.8-1.7-1.2-1-0.4-2.1-0.4z"/>
		<path id="Layer" fill-rule="evenodd" class="s0" d="m44.5 337.4q-1-0.5-1.8-1.3-0.8-0.8-1.3-1.8-0.4-1.1-0.4-2.2v-271.4q0-1.2 0.4-2.2 0.5-1 1.3-1.8 0.8-0.8 1.8-1.3 1.1-0.4 2.2-0.4h193.1q1.1 0 2.2 0.4 1 0.5 1.8 1.3 0.8 0.8 1.2 1.8 0.5 1 0.5 2.2v271.4q0 1.1-0.4 2.2-0.5 1-1.3 1.8-0.8 0.8-1.8 1.3-1.1 0.4-2.2 0.4h-193.1q-1.1 0-2.2-0.4zm2.2-282.2q-1.1 0-2.1 0.4-1 0.4-1.8 1.2-0.7 0.8-1.2 1.8-0.4 1-0.4 2.1v271.4q0 1.1 0.4 2.1 0.5 1 1.2 1.7 0.8 0.8 1.8 1.2 1 0.4 2.1 0.4h193.1q1.1 0 2.1-0.4 1-0.4 1.7-1.2 0.8-0.7 1.2-1.7 0.4-1 0.5-2.1v-271.4q-0.1-1.1-0.5-2.1-0.4-1-1.2-1.8-0.7-0.8-1.7-1.2-1-0.4-2.1-0.4z"/>
		<path id="Layer" class="s1" d="m106.7 266.6c2.7-7.7 24 2.8 32.6 15.6 5.7 8.6 9.2 17.7 10.9 30-0.2-14-0.5-29-0.7-43.2-1.7-3.5-5.7-11.7-8.6-18.1-9.5-21.6-32.3-29.6-40.1-43.2-10.3-17.8-10.2-44.5-1.5-54.2 7.6-8.3 32.8 48.3 35.7 54.6 9.7 21.8 12.6 38 14.4 53.6-0.2-13.3-0.4-25.5-0.6-35-0.5-30.7-1.2-40.6-1.5-43.6-1-1.5-2.3-3.3-3-4.2-6.1-7.8-19.6-17.2-26.4-28.6-9.8-16.7-8.2-36.6-1.3-44 7.2-7.8 20 10.6 26.8 28.8 6.8 18.2 3.9 35.6 5.8 50.7 0.4 3 0.8 14.2 1.2 29.8 2.1-16.8 6.2-28 13.8-38.5 9.4-12.9 17.5-28.6 25.2-26.6 7.7 2 3.5 22.8-2.6 37.4-5.4 13-32.2 26-36.2 36.4 0.5 21.2 0.9 48 1.2 72.9 2.1-12.9 0.7-14 9.3-33.7 5.2-11.7 26.3-26.2 28.8-18.1 2.5 7.9-1.3 23.3-9.3 34-6.4 8.6-20.7 8.6-24 13.9-0.7 1.3-3.3 6-4.7 8.8 0.3 30.5 0.5 57.4 0.3 66.5l-1.4 0.1c0.1-2.3-0.1-17.8-0.4-38.4-3.4-10.9-26.8-17.2-34-28.6-7.5-11.9-12.9-25.8-9.7-35.1z"/>
		<path id="Layer" class="s1" d="m128.6 382.4h44.8q0.9 0 1.7-0.3 0.8-0.3 1.5-0.9 0.7-0.5 1.2-1.3 0.4-0.8 0.6-1.6l3.2-15.7h-61.2l3.2 15.7q0.1 0.9 0.6 1.6 0.5 0.8 1.2 1.4 0.7 0.5 1.5 0.8 0.8 0.3 1.7 0.3z"/>
		<path id="Layer" class="s2" d="m119.1 368.7h63.8q0.6 0 1.1-0.2 0.5-0.2 0.9-0.6 0.4-0.3 0.7-0.8 0.2-0.5 0.3-1.1l1.3-11.6q0.1-0.6-0.1-1.2-0.2-0.6-0.6-1.1-0.5-0.5-1.1-0.7-0.5-0.3-1.2-0.3h-66.4q-0.6 0-1.2 0.3-0.6 0.2-1 0.7-0.5 0.5-0.6 1.1-0.2 0.6-0.2 1.2l1.3 11.6q0.1 0.6 0.4 1 0.2 0.5 0.6 0.9 0.4 0.4 1 0.6 0.5 0.2 1 0.2z"/>
		<path id="Layer" class="s2" d="m282 275.3c0.5 0 1 0 1.6 0 11 0.9 19.8 11.3 20.5 24.2q0 1.1 0 2.1 0 1.1-0.1 2.1-0.1 1.1-0.2 2.2-0.2 1-0.4 2-0.9 4.2-1.6 8.4-0.7 4.2-1.1 8.4-0.5 4.3-0.6 8.5-0.2 4.3-0.2 8.5v33.2c0 2.4-1.7 4.3-3.7 4.3h-115.7v-104z"/>
		<path id="Layer" class="s3" d="m158.4 301.2c0-14.9 10.7-26.9 23.7-25.9 11 0.9 19.8 11.3 20.5 24.2q0 1.1 0 2.1 0 1.1-0.1 2.2-0.1 1-0.2 2.1-0.2 1-0.4 2.1-0.9 4.1-1.6 8.3-0.7 4.2-1.1 8.4-0.5 4.3-0.7 8.5-0.2 4.3-0.1 8.5v33.2c0 2.4-1.7 4.3-3.7 4.3h-28.4c-2 0-3.7-1.9-3.7-4.3v-35.1q0-4-0.2-8-0.2-4-0.6-7.9-0.4-4-1.1-7.9-0.6-4-1.5-7.9-0.2-0.8-0.4-1.7-0.1-0.8-0.2-1.7-0.1-0.9-0.2-1.8 0-0.8 0-1.7z"/>
		<path id="Layer" class="s4" d="m211 320.5h119.7v58.7h-119.7z"/>
		<path id="Layer" class="s1" d="m379.3 250h-127.5c-2.4 0-4.7 0.5-6.9 1.4-2.2 0.9-4.2 2.2-5.9 3.9-1.7 1.7-3 3.7-3.9 5.9-0.9 2.2-1.4 4.5-1.4 6.9v62.3h163.7v-62.3c0-2.4-0.5-4.7-1.4-6.9-0.9-2.2-2.3-4.2-3.9-5.9-1.7-1.7-3.7-3-5.9-3.9-2.2-0.9-4.6-1.4-6.9-1.4z"/>
		<path id="Layer" class="s4" d="m366.1 250h-119c-2.3 0-4.7 0.5-6.8 1.4-2.2 0.9-4.2 2.2-5.8 3.8-1.7 1.7-3 3.7-3.9 5.8-0.9 2.2-1.4 4.5-1.4 6.9v62.5h154.7v-62.5c0-2.4-0.4-4.7-1.3-6.9-0.9-2.1-2.2-4.1-3.9-5.8-1.7-1.6-3.6-2.9-5.8-3.8-2.2-0.9-4.5-1.4-6.8-1.4z"/>
		<path id="Layer" class="s0" d="m325.8 318.3h-114.8q-0.8 0-1.5 0.3-0.7 0.3-1.3 0.9-0.5 0.5-0.8 1.2-0.3 0.7-0.3 1.5v6.3q0 0.8 0.3 1.5 0.3 0.7 0.8 1.2 0.6 0.6 1.3 0.9 0.7 0.3 1.5 0.3h114.8q0.2 0 0.4-0.1 0.2-0.1 0.4-0.3 0.1-0.1 0.2-0.3 0.1-0.3 0.1-0.5v-11.7q0-0.2-0.1-0.5-0.1-0.2-0.2-0.3-0.2-0.2-0.4-0.3-0.2-0.1-0.4-0.1z"/>
		<path id="Layer" class="s1" d="m406.4 379.2h-227v0.3q0 0.6 0.2 1.1 0.2 0.5 0.6 0.9 0.4 0.5 1 0.7 0.5 0.2 1.1 0.2h221.2q0.6 0 1.1-0.2 0.6-0.2 1-0.7 0.4-0.4 0.6-0.9 0.2-0.5 0.2-1.1z"/>
		<path id="Layer" class="s2" d="m405.3 275.3c0.5 0 1 0 1.6 0 11 0.9 19.8 11.3 20.5 24.2q0.1 1.1 0 2.1 0 1.1-0.1 2.1-0.1 1.1-0.2 2.2-0.2 1-0.4 2-0.9 4.2-1.6 8.4-0.7 4.2-1.1 8.4-0.4 4.3-0.6 8.5-0.2 4.3-0.2 8.5v33.2c0 2.4-1.6 4.3-3.7 4.3h-89.8v-104z"/>
		<path id="Layer" class="s3" d="m307.6 301.2c0-14.9 10.7-26.9 23.6-25.9 11 0.9 19.9 11.3 20.6 24.2q0 1.1 0 2.1 0 1.1-0.1 2.2-0.1 1-0.3 2.1-0.2 1.1-0.4 2.1-0.9 4.2-1.6 8.4-0.7 4.2-1.1 8.4-0.4 4.2-0.6 8.5-0.2 4.2-0.2 8.5v33.1c0 2.4-1.6 4.4-3.7 4.4h-28.3c-2 0-3.8-2-3.8-4.4v-35.1q0.1-4-0.1-8-0.2-4-0.6-7.9-0.5-4-1.1-7.9-0.7-4-1.6-7.9-0.2-0.8-0.3-1.7-0.2-0.8-0.3-1.7 0-0.9-0.1-1.8 0-0.8 0-1.7z"/>
		<path id="Layer" class="s1" d="m353.7 93.5h80.3v88.1h-80.3z"/>
		<path id="Layer" class="s4" d="m346.8 93.5h86.1v88.1h-86.1z"/>
		<path id="Layer" class="s5" d="m352.3 99v77.1h75.1v-77.1z"/>
		<path id="Layer" class="s4" d="m401.1 165c2.2-2.1 3.8-4.7 5-7.4 1.2-2.8 1.7-5.8 1.7-8.8 0-3-0.5-6-1.7-8.8-1.2-2.7-2.8-5.3-5-7.4l-22.5-22.5c-2.1 2.1-3.8 4.7-4.9 7.4-1.2 2.8-1.8 5.8-1.8 8.8 0 3 0.6 6 1.8 8.8 1.1 2.8 2.8 5.3 4.9 7.4z"/>
		<path id="Layer" class="s1" d="m285.6 153.8h47.5v53.7h-47.6z"/>
		<path id="Layer" class="s4" d="m278.7 153.8h53.2v53.7h-53.2z"/>
		<path id="Layer" class="s5" d="m284.2 159.3h42.2v42.7h-42.2z"/>
		<path id="Layer" class="s4" d="m296.6 176.8c-2.1 2.2-2.1 5.6 0 7.7l4.9 4.8c2.1 2.1 5.5 2.1 7.6 0l4.9-4.8c2.1-2.1 2.1-5.5 0-7.7l-4.9-4.8c-2.1-2.1-5.5-2.1-7.6 0z"/>
	</g>
	<g id="freepik--Shadow--inject-67">
		<path id="freepik--path--inject-67" class="s4" d="m250 404.9c107.2 0 193.9 5.1 193.9 11.3 0 6.3-86.7 11.4-193.9 11.4-107.2 0-193.9-5.1-193.9-11.4 0-6.2 86.7-11.3 193.9-11.3z"/>
	</g>
	<g id="freepik--chess-pawn--inject-67">
		<path id="Layer" class="s6" d="m332.9 391.9h-62.1v24.3h59.6q0.5 0 0.9-0.2 0.5-0.2 0.9-0.5 0.3-0.4 0.5-0.8 0.2-0.5 0.2-1c0 0 0-21.8 0-21.8z"/>
		<path id="Layer" class="s6" d="m270.8 391.9h62.1l-21.2-12.2h-33.9l-7.1 12.2z"/>
		<path id="Layer" class="s6" d="m250.6 416.2h20.2v-24.3h-22.7v21.8q0 0.5 0.1 1 0.2 0.4 0.6 0.8 0.4 0.3 0.8 0.5 0.5 0.2 1 0.2z"/>
		<path id="Layer" class="s7" d="m250.6 416.2h20.2v-24.3h-22.7v21.8q0 0.5 0.1 1 0.2 0.4 0.6 0.8 0.4 0.3 0.8 0.5 0.5 0.2 1 0.2z"/>
		<path id="Layer" class="s6" d="m270.8 391.9h-22.8l21.3-12.2h8.5l-7.1 12.2z"/>
		<path id="Layer" class="s7" d="m270.8 391.9h-22.8l21.3-12.2h8.5l-7.1 12.2z"/>
		<path id="Layer" class="s6" d="m308.1 203.8l1.4-14.1 5.3-12.2-12.3 4.4-10.3 7.9-4.9 5.7 10.6 11.4 10.2-3.1z"/>
		<path id="Layer" class="s7" d="m308.1 203.8l1.4-14.1 5.3-12.2-12.3 4.4-10.3 7.9-4.9 5.7 10.6 11.4 10.2-3.1z"/>
		<path id="Layer" class="s6" d="m299.8 193.9l-3.6-16.4-34.6 7.2-16.5 21.3-4.1 30.2 3.3 26.8 8 18.9 19.4-72.1 28.1-15.9z"/>
		<path id="Layer" class="s7" d="m299.3 198l-6.8-11.4 0.2-8.4-19.4 4.1-14 16.5-6.1 23.1 3.9 31.5 8.6-26.1 33.6-29.3z"/>
		<path id="Layer" class="s6" d="m311.7 379.7l20-15.1 8.7-23-7.5-24.3-22.8-19-6.3-42.2 5.5-17.1-43.6-37.3-15 90.3-2.6 62 21.2 25.7h42.4z"/>
		<path id="Layer" class="s7" d="m336.3 352.5l-4.6 12.1-4.5 3.4-15.1 6 13.5-10 10.7-11.5z"/>
		<path id="Layer" class="s7" d="m303.8 256.1l2.2 14.4-18.9-4.7-10.8-12.2-1.2-12.1 28.7 14.6z"/>
		<path id="Layer" class="s6" d="m270 240.8l19.3 20.2 25.3 3.9 15-5.9 12.5 3.1 14.3-2.5 7.3 0.3 9.3-4.2 3.8-7.6-3-14.3-6-5.4-4.7-1-31.5-19.1-4.8-7.5-32.6-10.1-28.5 11 4.3 39.1z"/>
		<path id="Layer" class="s7" d="m375.1 251.5l-10.5 1.5-8.2 6.6 7.3 0.3 9.3-4.2 2.1-4.2z"/>
		<path id="Layer" class="s7" d="m359.3 240.8l-5.7-2.6-8.2 4.4 9.6 0.4 4.3-2.2z"/>
		<path id="Layer" class="s7" d="m250.7 292l6.2 17.2 4.2 43.1 19.3 22.7 11.9-0.7 19.4 5.4h-42.4l-21.2-25.7 2.6-62z"/>
		<path id="Layer" class="s6" d="m294.5 204.1l-4.9-17.5 1.2-14.6-11.5 8.4-9.5 15.9-2.5 8.1 17.5 7.3 9.7-7.6z"/>
		<path id="Layer" class="s7" d="m290.5 195.9l-7.3 4.8-5.1-4.8 1.5-8.2 8.5-7.1-1.5 7.1 3.9 8.2z"/>
		<path id="Layer" class="s7" d="m329.6 205.1l-16.4 2.7-11.5 0.7 12.1 4.1 17.8-4.3-2-3.2z"/>
	</g>
	<g id="freepik--Character--inject-67">
		<path id="Layer" class="s8" d="m224.9 401.4l-7.3 2.6-8.1-16.4 7.4-2.6 8 16.4z"/>
		<path id="Layer" class="s7" d="m209.5 387.6l4.1 8.5 7.4-2.7-4.1-8.4-7.4 2.6z"/>
		<path id="Layer" class="s9" d="m217.3 403.1l8.1-2.9q0.1 0 0.2 0 0.1 0 0.2 0 0.1 0.1 0.2 0.1 0.1 0.1 0.2 0.2l3.8 6q0.1 0.2 0.1 0.5 0.1 0.3 0 0.5-0.1 0.3-0.3 0.4-0.2 0.2-0.4 0.3c-3 1-7.2 2.3-10.9 3.6-4.2 1.5-5.5 4.4-10.8 4.4-4.4 0-4.8-2.3-3.5-2.8 5.9-2.2 7.7-4.3 11.5-9.1q0.2-0.2 0.4-0.4 0.1-0.2 0.3-0.3 0.2-0.2 0.5-0.3 0.2-0.1 0.4-0.2z"/>
		<path id="Layer" class="s6" d="m181.8 316.7c-0.9-23.9 15.8-87.2 15.8-87.2l27.3 3.7c-9.9 28.2-17.7 51.3-21 80.4-3.8 14.4 18.9 77.3 18.9 77.3l-12.5 4.4c0 0-27.5-53.8-28.5-78.6z"/>
		<path id="Layer" class="s10" d="m181.8 316.7c-0.9-23.9 15.8-87.2 15.8-87.2l27.3 3.7c-9.9 28.2-17.7 51.3-21 80.4-3.8 14.4 18.9 77.3 18.9 77.3l-12.5 4.4c0 0-27.5-53.8-28.5-78.6z"/>
		<path id="Layer" class="s7" d="m215 245.9l3.9 4.6q-0.6 1.7-1.1 3.5-1.6 4.9-3.2 9.8-1.5 5-2.8 10-1.4 4.9-2.6 10-1.2 5-2.2 10.1c-0.4-14.3-2-40 8-48z"/>
		<path id="Layer" class="s9" d="m208.8 396.2l14.9-5.3-1.7-4.8-15.1 5.1 1.9 5z"/>
		<path id="Layer" fill-rule="evenodd" class="s6" d="m216.9 404.4c-1.1 0.7-3.1 1.7-4.1 1.3q-0.2-0.1-0.3-0.1-0.1-0.1-0.1-0.2-0.1-0.1-0.2-0.2 0-0.1-0.1-0.3 0 0 0-0.1 0-0.1 0-0.2 0 0 0.1-0.1 0-0.1 0-0.1c0.8-0.9 4.3-0.4 4.7-0.4q0 0.1 0 0.1 0.1 0 0.1 0 0 0 0 0 0 0.1 0 0.1 0 0 0 0.1 0 0 0 0 0 0 0 0.1 0 0-0.1 0zm-4.3 0.2h-0.1q0 0.1 0 0.1 0 0 0 0 0 0.1 0 0.1 0 0 0 0.1 0 0 0.1 0.1 0 0.1 0.1 0.1 0 0.1 0.1 0.2 0 0 0.1 0c0.6 0.3 1.9-0.1 3.4-1-1.4-0.1-3.3-0.1-3.7 0.3z"/>
		<path id="Layer" fill-rule="evenodd" class="s6" d="m216.9 404.4q0 0 0 0 0 0 0 0 0 0-0.1 0 0 0 0 0c-1-0.1-3.4-1.1-3.5-1.9 0-0.2 0-0.5 0.5-0.8q0.1 0 0.2 0 0.2-0.1 0.3-0.1 0.1 0 0.3 0.1 0.1 0 0.2 0c1.3 0.5 2.2 2.4 2.2 2.5q0 0 0 0 0 0 0 0.1 0 0 0 0 0 0 0 0.1zm-3.2-2.2c-0.1 0.1-0.1 0.2-0.1 0.2 0.1 0.5 1.7 1.4 2.8 1.6q-0.1-0.3-0.3-0.6-0.2-0.3-0.4-0.5-0.2-0.3-0.5-0.5-0.2-0.2-0.5-0.4-0.1 0-0.2 0-0.1 0-0.2 0-0.1 0-0.2 0-0.1 0-0.2 0.1-0.1 0-0.1 0 0 0 0 0 0 0-0.1 0 0 0.1 0 0.1z"/>
		<path id="Layer" class="s8" d="m233.7 408.3l-7.8-0.1-0.6-18.1h7.8l0.6 18.1z"/>
		<path id="Layer" class="s9" d="m225.2 407.3h9.5q0.2 0 0.3 0.1 0.1 0 0.2 0.1 0.1 0.1 0.1 0.2 0.1 0.1 0.1 0.2l1.6 7q0 0.2-0.1 0.5 0 0.2-0.2 0.4-0.2 0.2-0.4 0.4-0.2 0.1-0.5 0.1c-3.1-0.1-5.3-0.3-9.2-0.3-2.3 0-9.5 0.3-12.8 0.3-3.3 0-3.7-3.3-2.4-3.6 6-1.3 10.6-3.1 12.5-4.8q0.1-0.2 0.3-0.3 0.1-0.1 0.3-0.1 0.2-0.1 0.3-0.1 0.2-0.1 0.4-0.1z"/>
		<path id="Layer" class="s8" d="m201.5 168.4l-7.8 15.2c-2.6 5-5.3 10.1-8.1 14.6l-1.1 1.6q0 0.1-0.1 0.2-0.1 0.1-0.1 0.2-0.1 0.1-0.2 0.2-0.1 0.1-0.1 0.2c-0.4 0.3-0.5 0.4-0.9 0.5q-0.2 0.1-0.5 0.1-0.2 0-0.5-0.1-0.3 0-0.5-0.1-0.3 0-0.5-0.1-0.4-0.2-0.8-0.3-0.4-0.2-0.8-0.3-0.4-0.2-0.7-0.4-0.4-0.2-0.7-0.4-0.9-0.6-1.7-1.1-0.8-0.6-1.6-1.2-0.7-0.5-1.5-1.2-0.7-0.6-1.5-1.3-1.5-1.3-3-2.8c-1-1-2-2-2.8-2.9l-4.9 3.3c0.8 1.5 1.6 2.7 2.4 4 0.9 1.2 1.8 2.5 2.7 3.7q0.7 0.9 1.5 1.8 0.8 0.9 1.6 1.8 0.8 0.9 1.7 1.7 0.9 0.8 1.8 1.6 0.5 0.4 1.1 0.8 0.5 0.4 1.1 0.7 0.5 0.4 1.1 0.7 0.6 0.4 1.2 0.6 0.7 0.4 1.5 0.7 0.8 0.3 1.6 0.5 0.8 0.2 1.6 0.2 0.8 0.1 1.6 0.1 1 0 1.9-0.1 1-0.2 1.9-0.5 0.9-0.4 1.7-0.8 0.9-0.5 1.6-1.1 0.3-0.3 0.7-0.6 0.3-0.3 0.6-0.6 0.3-0.3 0.6-0.6 0.3-0.3 0.5-0.6l1.5-1.9q1.3-1.8 2.5-3.7 1.2-1.9 2.4-3.8 1.2-1.9 2.4-3.8 1.1-1.9 2.2-3.9c2.9-5.1 5.6-10.3 8.1-15.6z"/>
		<path id="Layer" class="s9" d="m215.6 169.1c1.3 7.4-11.4 28.1-11.4 28.1l-13.3-14.6c0 0 3.2-11.3 9.6-16.6 6.2-5.2 13.7-5.4 15.1 3.1z"/>
		<path id="Layer" class="s7" d="m199.8 186.2c2.9-6.6 9.1-10.4 14.8-10.3-2.9 9-10.4 21.3-10.4 21.3l-5.9-6.5q0.1-0.6 0.3-1.2 0.1-0.6 0.3-1.1 0.2-0.6 0.4-1.1 0.3-0.6 0.5-1.1z"/>
		<path id="Layer" class="s8" d="m167.3 190.7l-3.5-5.3-8.2 5.9c0 0 6.8 5.7 11 3.3z"/>
		<path id="Layer" class="s8" d="m154 184.4l-6.2 2.5 7.8 4.4 8.2-5.9-9.8-1z"/>
		<path id="Layer" class="s7" d="m233.1 390.1h-7.8l0.3 9.4h7.8l-0.3-9.4z"/>
		<path id="Layer" class="s9" d="m250.7 168q-1.1 3.1-2.1 6.2-0.9 3.2-1.7 6.4-0.9 3.1-1.6 6.3-0.7 3.3-1.3 6.5c-1.1 6-1.9 11.7-2.6 17-1.4 12.2-1.7 21.6-2.3 24.8l-41.5-5.6c0.7-45.7 9.5-67 9.5-67q1.3-0.2 2.5-0.3 1.3-0.1 2.5-0.2 1.3-0.1 2.5-0.1 1.3 0 2.6 0 1 0 2.1 0 2.2 0.2 4.5 0.4 2.2 0.2 4.4 0.5 2.2 0.3 4.4 0.7 2.2 0.3 4.4 0.8 1.7 0.3 3.3 0.7c5.5 1.2 10.4 2.9 10.4 2.9z"/>
		<path id="Layer" class="s7" d="m241.4 177.6l5.7 2.2c-1.2 4.6-2.2 9.2-3 13.6q-0.2 1.1-0.4 2.1c-2.8-5.3-3.4-11.3-2.3-17.9z"/>
		<path id="Layer" class="s8" d="m237.9 144.3c-1.9 5.5-4.4 15.8-0.9 20.1q-1.5 1.2-3.2 2-1.7 0.9-3.6 1.3-1.8 0.5-3.7 0.6-2 0-3.8-0.3c-4.9-0.8-4.7-4.2-3.3-6 6.5-0.6 7-5.3 6.5-9.9z"/>
		<path id="Layer" class="s6" d="m226.4 168.6l-0.3 0.6-3-1.2 1.4-0.9 1.9 1.5z"/>
		<path id="Layer" class="s6" d="m220.5 167.7l2.6 0.3-0.1-1.3-1.5-0.3-1 1.3z"/>
		<path id="Layer" class="s5" d="m236.4 162.5q-1.2 1.1-2.6 2-1.4 0.9-2.9 1.5-1.5 0.6-3.1 0.8-1.6 0.3-3.3 0.3c1.7 1 1.9 5.2 1.9 5.2 0-0.1 9-2.1 12-8q-0.2-0.2-0.4-0.5-0.3-0.2-0.5-0.4-0.3-0.3-0.5-0.5-0.3-0.2-0.6-0.4z"/>
		<path id="Layer" class="s5" d="m221 161.4c0 0-2.2 3.6 2 5.3-3.3 0.6-4.5 4.8-4.5 4.8 0 0-3.4-3.5-0.8-9.7q0.4-0.1 0.8-0.1 0.4-0.1 0.9-0.1 0.4-0.1 0.8-0.1 0.4-0.1 0.8-0.1z"/>
		<path id="Layer" class="s7" d="m233 147.5l-7.1 4.6q0 0.4 0 0.8 0.1 0.4 0.1 0.8 0 0.4 0 0.8 0 0.4 0 0.8c2.4 0 6.1-2.3 6.7-4.8q0.1-0.3 0.2-0.7 0.1-0.4 0.1-0.8 0-0.4 0-0.8 0-0.4 0-0.7z"/>
		<path id="Layer" class="s8" d="m239.8 135.8c-1.6 7.7-2.1 12.2-6.5 15.6-6.6 5.2-15.6 0.4-16.4-7.6-0.7-7.1 1.8-18.3 9.8-20.4 1.7-0.5 3.6-0.5 5.3 0 1.8 0.4 3.4 1.3 4.7 2.6 1.3 1.2 2.3 2.8 2.8 4.5 0.5 1.7 0.6 3.6 0.2 5.3z"/>
		<path id="Layer" class="s9" d="m235.9 143.6q-0.2-1.2-0.3-2.4 0-1.1 0.1-2.3 0.1-1.2 0.5-2.3 0.3-1.1 0.7-2.2c-0.8-1.6-2.8-5.5-2.3-8 3.2-1 10.2 0 10.2 0 0 0 4.4 11.4-8.9 17.2z"/>
		<path id="Layer" class="s9" d="m240.5 129.2c-3.6 0.5-18.1-1.1-21.2-7.5-1.1-2.3 2.7-0.1 4.8 0.2 2.2 0.4 15.2-0.4 18.8 0.1 2.1 0.3 7.6 5.6-2.4 7.2z"/>
		<path id="Layer" class="s9" d="m244.3 122.6c1.8-5.3-12.7-0.7-16.9-3-6.3-3.6-8.6-2.3-7.1 0.2 1.5 2.4 2.5 3.3 9.6 3.3 7.1 0 13.3 2.6 14.4-0.5z"/>
		<path id="Layer" class="s8" d="m242.5 143.6q-0.4 0.6-1 1-0.6 0.5-1.2 0.8-0.7 0.3-1.4 0.5-0.7 0.2-1.4 0.3c-2.6 0.2-3.4-2.2-2.2-4.4 1-2 3.5-4.4 6-3.6 2.4 0.8 2.7 3.5 1.2 5.4z"/>
		<path id="Layer" class="s6" d="m212.4 231.5c0 0 0.7 67.5 2.6 90.3 2 25 7 75.9 7 75.9h14.3c0 0 0.3-46.6-1.1-71-1.6-27.9 3.9-91.6 3.9-91.6z"/>
		<path id="Layer" class="s10" d="m212.4 231.5c0 0 0.7 67.5 2.6 90.3 2 25 7 75.9 7 75.9h14.3c0 0 0.3-46.6-1.1-71-1.6-27.9 3.9-91.6 3.9-91.6z"/>
		<path id="Layer" class="s9" d="m220.3 398h16.8l0.5-5.4h-18.3l1 5.4z"/>
		<path id="Layer" class="s9" d="m227.8 136.4c-0.1 0.6-0.5 1.1-0.9 1-0.4-0.1-0.7-0.6-0.6-1.2 0.1-0.6 0.5-1.1 0.9-1 0.4 0.1 0.7 0.6 0.6 1.2z"/>
		<path id="Layer" class="s9" d="m220.7 135.4c0 0.7-0.4 1.1-0.9 1-0.4 0-0.6-0.6-0.5-1.2 0-0.6 0.4-1.1 0.8-1 0.5 0.1 0.7 0.6 0.6 1.2z"/>
		<path id="Layer" class="s11" d="m222.9 136.1q-0.3 0.7-0.8 1.3-0.4 0.7-0.8 1.3-0.5 0.6-1 1.2-0.5 0.6-1.1 1.2 0.3 0.2 0.7 0.5 0.3 0.2 0.7 0.3 0.4 0.1 0.7 0.2 0.4 0 0.8 0z"/>
		<path id="Layer" class="s9" d="m224.6 144q-0.2 0-0.3 0-0.1 0-0.2 0-0.1 0-0.2 0-0.1 0-0.2-0.1 0 0 0 0-0.1 0-0.1 0 0-0.1 0-0.1 0 0 0-0.1 0 0 0 0 0-0.1 0-0.1 0.1 0 0.1 0 0 0 0.1 0 0.6 0.1 1.1 0 0.6 0 1.2-0.2 0.6-0.2 1.1-0.5 0.5-0.3 0.9-0.7 0 0 0-0.1 0.1 0 0.1 0 0 0 0.1 0 0 0.1 0 0.1 0.1 0 0.1 0 0 0.1 0 0.1 0 0 0 0.1 0 0-0.1 0-0.3 0.4-0.8 0.7-0.4 0.3-0.9 0.5-0.5 0.2-1 0.3-0.5 0.1-1 0.1z"/>
		<path id="Layer" class="s9" d="m230.3 134.4q-0.1 0-0.1 0-0.1 0-0.1 0 0-0.1-0.1-0.1 0 0 0-0.1-0.2-0.3-0.4-0.5-0.3-0.3-0.5-0.5-0.3-0.2-0.7-0.3-0.3-0.2-0.6-0.2-0.1 0-0.2-0.1 0 0-0.1 0 0-0.1 0-0.2-0.1 0-0.1-0.1 0-0.1 0.1-0.1 0-0.1 0.1-0.2 0 0 0.1 0 0.1-0.1 0.1-0.1 0.5 0.1 0.9 0.3 0.4 0.1 0.8 0.4 0.3 0.2 0.6 0.5 0.3 0.4 0.5 0.8 0 0 0.1 0.1 0 0.1-0.1 0.1 0 0.1 0 0.2-0.1 0-0.1 0.1-0.1 0-0.1 0 0 0 0 0 0 0-0.1 0 0 0 0 0z"/>
		<path id="Layer" class="s9" d="m218 132.6q0 0-0.1 0 0 0 0 0 0 0-0.1 0 0 0 0 0-0.1-0.1-0.1-0.2 0 0-0.1-0.1 0-0.1 0-0.1 0.1-0.1 0.1-0.2 0.2-0.3 0.5-0.6 0.4-0.4 0.7-0.6 0.4-0.2 0.8-0.3 0.5-0.2 0.9-0.2 0.2 0 0.3 0.1 0.1 0.1 0.1 0.3 0 0.1-0.1 0.3-0.1 0.1-0.3 0.1-0.3 0-0.7 0.1-0.3 0.1-0.6 0.3-0.3 0.1-0.6 0.4-0.2 0.2-0.4 0.5 0 0.1 0 0.1-0.1 0-0.1 0.1-0.1 0-0.1 0-0.1 0-0.1 0z"/>
		<path id="Layer" fill-rule="evenodd" class="s6" d="m222.6 408.7q-0.2 0-0.4 0-0.2 0-0.4-0.1-0.2 0-0.4-0.1-0.1-0.1-0.3-0.2-0.1-0.1-0.2-0.2-0.1-0.1-0.1-0.2-0.1-0.2-0.1-0.3 0-0.2 0-0.3 0-0.1 0-0.2 0.1 0 0.1-0.1 0-0.1 0.1-0.1 0.1-0.1 0.1-0.1c0.9-0.5 3.4 1.1 3.7 1.3q0 0 0.1 0 0 0 0 0.1 0 0 0 0 0 0 0 0.1 0 0 0 0 0 0-0.1 0.1 0 0 0 0 0 0 0 0-0.3 0.1-0.6 0.1-0.2 0.1-0.5 0.1-0.2 0.1-0.5 0.1-0.2 0-0.5 0zm-1.2-1.6q0 0 0 0 0 0-0.1 0 0 0 0 0-0.1 0-0.1 0 0 0-0.1 0 0 0.1 0 0.1 0 0 0 0 0 0.1 0 0.1 0 0.1 0 0.2 0 0.1 0 0.2 0.1 0.1 0.1 0.1 0.1 0.1 0.1 0.2c0.5 0.3 1.5 0.4 2.8 0.1q-0.3-0.2-0.6-0.3-0.3-0.2-0.7-0.3-0.3-0.2-0.7-0.2-0.3-0.1-0.7-0.2z"/>
		<path id="Layer" fill-rule="evenodd" class="s6" d="m224.6 408.4h-0.1c-0.8-0.4-2.3-2.1-2.2-3q0-0.1 0.1-0.2 0 0 0.1-0.1 0.1-0.1 0.2-0.1 0.1-0.1 0.2 0 0.1-0.1 0.2-0.1 0.1 0.1 0.2 0.1 0.1 0 0.2 0.1 0.1 0 0.2 0.1c0.9 0.7 1.1 3 1.1 3.1q0 0 0 0 0 0.1 0 0.1 0 0-0.1 0 0 0 0 0.1 0 0 0 0 0-0.1 0-0.1-0.1 0-0.1 0 0 0 0 0zm-1.6-3.1c-0.3 0-0.3 0.1-0.3 0.2-0.1 0.5 0.9 1.8 1.7 2.4q0-0.4-0.1-0.7-0.1-0.3-0.2-0.6-0.1-0.3-0.3-0.6-0.1-0.3-0.3-0.6-0.1 0-0.1-0.1-0.1 0-0.2 0 0 0-0.1 0 0 0-0.1 0z"/>
		<path id="Layer" class="s8" d="m244.3 180.1l2 2.9q1 1.5 2 3c1.3 2.1 2.6 4.1 3.8 6.2q0.9 1.5 1.7 3.1 0.9 1.5 1.7 3.1 0.8 1.6 1.5 3.2 0.7 1.6 1.4 3.3l0.6 1.6 0.3 0.7q0-0.1 0-0.1 0 0 0 0 0 0 0 0 0 0 0 0c0.1-0.1 0.1 0.4-0.1 1.1q-0.3 0.7-0.7 1.3-0.3 0.7-0.7 1.3-0.4 0.6-0.8 1.2-0.5 0.6-1 1.2-0.5 0.7-1.1 1.4-0.6 0.6-1.2 1.3-0.6 0.6-1.2 1.3-0.6 0.6-1.2 1.2c-0.9 0.9-1.7 1.7-2.6 2.6l-2.7 2.4 3.2 5q1.8-0.9 3.6-1.9 1.7-1 3.4-2.1 1.7-1.1 3.3-2.3 1.6-1.2 3.1-2.6 0.9-0.7 1.7-1.5 0.8-0.9 1.5-1.8 0.8-0.8 1.4-1.8 0.7-1 1.2-2 0.4-0.7 0.7-1.4 0.3-0.8 0.5-1.6 0.1-0.7 0.2-1.5 0.1-0.8 0.1-1.6 0-0.3-0.1-0.5 0-0.3 0-0.5-0.1-0.3-0.1-0.5 0-0.3-0.1-0.5l-0.1-0.4-0.1-0.3-0.1-0.5-0.6-2q-0.6-1.9-1.3-3.7-0.7-1.9-1.5-3.8-0.8-1.8-1.7-3.6-0.9-1.9-1.8-3.6c-1.3-2.4-2.6-4.6-4-6.9q-1.1-1.6-2.2-3.3c-0.7-1-1.5-2.1-2.3-3.2z"/>
		<path id="Layer" class="s9" d="m250.7 168c6.9 2.5 14.9 21.7 14.9 21.7l-17.3 8q-1.2-1.9-2.2-3.9-1-2-1.8-4.1-0.8-2-1.5-4.2-0.6-2.1-1-4.3c-2-10.3 0.3-16.2 8.9-13.2z"/>
		<path id="Layer" class="s8" d="m245 224.2l-2 5.3 8.6 1.2c0 0 2.4-6.5-0.9-8.2h-2.8q-0.4 0-0.9 0.1-0.4 0.2-0.8 0.4-0.3 0.2-0.7 0.5-0.3 0.3-0.5 0.7z"/>
		<path id="Layer" class="s8" d="m244 235.6l6.6 1 1.1-5.9-8.6-1.3 0.9 6.2z"/>
	</g>
	<g id="freepik--Like--inject-67">
		<path id="Layer" class="s6" d="m133 150.1q0.1-0.7 0.2-1.5 0.2-0.7 0.3-1.5 0.2-0.7 0.5-1.5 0.2-0.7 0.5-1.4l-0.9-0.4q-0.3 0.8-0.6 1.5-0.2 0.8-0.4 1.6-0.2 0.7-0.4 1.5-0.1 0.8-0.2 1.6z"/>
		<path id="Layer" class="s6" d="m137.1 139.4q1-1.3 2.1-2.5 1.1-1.2 2.4-2.2 1.3-1 2.7-1.8 1.5-0.9 3-1.5l-0.4-0.9q-1.6 0.6-3.1 1.5-1.5 0.9-2.8 1.9-1.3 1.1-2.5 2.3-1.2 1.3-2.2 2.7z"/>
		<path id="Layer" class="s6" d="m155.8 176.7c3.2-0.1 6.3-0.7 9.2-1.9 2.9-1.2 5.5-3 7.8-5.2 2.2-2.2 4-4.9 5.2-7.8 1.2-2.9 1.8-6 1.8-9.1h-1c0 3-0.6 6-1.8 8.7-1.1 2.8-2.8 5.4-4.9 7.5-2.2 2.1-4.7 3.8-7.5 5-2.8 1.1-5.8 1.7-8.8 1.8z"/>
		<path id="Layer" class="s6" d="m141.4 167.2c8 8 20.9 8 28.9 0 8-8 8-21 0-29-8-8-20.9-8-28.9 0-8 8-8 21 0 29z"/>
		<path id="Layer" class="s5" d="m151.1 145.6l2.6 0.9c-0.6-1.2-0.7-3.6 0.8-6.1q0.1-0.2 0.3-0.4 0.1-0.1 0.3-0.2 0.3-0.1 0.5-0.2 0.2 0 0.5 0 0.3 0.1 0.5 0.2 0.3 0.1 0.5 0.4 0.2 0.2 0.3 0.5 0.1 0.3 0.1 0.6c0 2.3 0.5 7 5.2 7.9l1 1.3-4 11.3-2-0.4c-0.8-0.1-5.1-0.6-7.9-1q-1.3-0.1-2.4-0.7-1-0.6-1.8-1.6-0.8-0.9-1.2-2.1-0.4-1.2-0.4-2.4l0.6-5.2q0-0.8 0.4-1.4 0.4-0.7 1-1.1 0.6-0.5 1.3-0.6 0.8-0.2 1.5-0.1z"/>
		<path id="Layer" class="s9" d="m158.9 163.5c-0.1 0.5 0.2 1.1 0.8 1.3l3.7 1.1c0.5 0.1 1.1-0.2 1.3-0.8l3.6-12.3c0.1-0.5-0.2-1.1-0.8-1.3l-3.7-1.1c-0.5-0.1-1.1 0.2-1.3 0.8z"/>
	</g>
</svg>